ISO-10303-21;
HEADER;
/* Generated by software containing ST-Developer
 * from STEP Tools, Inc. (www.steptools.com) 
 */

FILE_DESCRIPTION(
/* description */ (''),
/* implementation_level */ '2;1');

FILE_NAME(
/* name */ 'Handle.step',
/* time_stamp */ '2026-09-25T17:17:39-04:00',
/* author */ (''),
/* organization */ (''),
/* preprocessor_version */ 'ST-DEVELOPER v20.2',
/* originating_system */ 'Autodesk Translation Framework v15.15.0.0',
/* authorisation */ '');

FILE_SCHEMA (('AUTOMOTIVE_DESIGN { 1 0 10303 214 3 1 1 }'));
ENDSEC;

DATA;
#10=MECHANICAL_DESIGN_GEOMETRIC_PRESENTATION_REPRESENTATION('',(#13),#583);
#11=SHAPE_REPRESENTATION_RELATIONSHIP('SRR','None',#593,#12);
#12=ADVANCED_BREP_SHAPE_REPRESENTATION('',(#14),#582);
#13=STYLED_ITEM('',(#602),#14);
#14=MANIFOLD_SOLID_BREP('Body1',#335);
#15=FACE_BOUND('',#68,.T.);
#16=FACE_BOUND('',#69,.T.);
#17=FACE_BOUND('',#70,.T.);
#18=FACE_BOUND('',#71,.T.);
#19=FACE_BOUND('',#72,.T.);
#20=FACE_BOUND('',#73,.T.);
#21=FACE_BOUND('',#74,.T.);
#22=FACE_BOUND('',#75,.T.);
#23=FACE_BOUND('',#76,.T.);
#24=FACE_BOUND('',#77,.T.);
#25=FACE_BOUND('',#83,.T.);
#26=FACE_BOUND('',#84,.T.);
#27=FACE_BOUND('',#85,.T.);
#28=FACE_BOUND('',#86,.T.);
#29=FACE_BOUND('',#87,.T.);
#30=FACE_BOUND('',#88,.T.);
#31=FACE_BOUND('',#89,.T.);
#32=FACE_BOUND('',#90,.T.);
#33=FACE_BOUND('',#91,.T.);
#34=PLANE('',#352);
#35=PLANE('',#380);
#36=PLANE('',#387);
#37=PLANE('',#388);
#38=PLANE('',#389);
#39=FACE_OUTER_BOUND('',#56,.T.);
#40=FACE_OUTER_BOUND('',#57,.T.);
#41=FACE_OUTER_BOUND('',#58,.T.);
#42=FACE_OUTER_BOUND('',#59,.T.);
#43=FACE_OUTER_BOUND('',#60,.T.);
#44=FACE_OUTER_BOUND('',#61,.T.);
#45=FACE_OUTER_BOUND('',#62,.T.);
#46=FACE_OUTER_BOUND('',#63,.T.);
#47=FACE_OUTER_BOUND('',#64,.T.);
#48=FACE_OUTER_BOUND('',#65,.T.);
#49=FACE_OUTER_BOUND('',#66,.T.);
#50=FACE_OUTER_BOUND('',#67,.T.);
#51=FACE_OUTER_BOUND('',#78,.T.);
#52=FACE_OUTER_BOUND('',#79,.T.);
#53=FACE_OUTER_BOUND('',#80,.T.);
#54=FACE_OUTER_BOUND('',#81,.T.);
#55=FACE_OUTER_BOUND('',#82,.T.);
#56=EDGE_LOOP('',(#222,#223,#224,#225));
#57=EDGE_LOOP('',(#226));
#58=EDGE_LOOP('',(#227,#228,#229,#230));
#59=EDGE_LOOP('',(#231,#232,#233,#234));
#60=EDGE_LOOP('',(#235,#236,#237,#238));
#61=EDGE_LOOP('',(#239,#240,#241,#242));
#62=EDGE_LOOP('',(#243,#244,#245,#246));
#63=EDGE_LOOP('',(#247,#248,#249,#250));
#64=EDGE_LOOP('',(#251,#252,#253,#254));
#65=EDGE_LOOP('',(#255,#256,#257,#258));
#66=EDGE_LOOP('',(#259,#260,#261,#262));
#67=EDGE_LOOP('',(#263,#264,#265,#266));
#68=EDGE_LOOP('',(#267));
#69=EDGE_LOOP('',(#268));
#70=EDGE_LOOP('',(#269));
#71=EDGE_LOOP('',(#270));
#72=EDGE_LOOP('',(#271));
#73=EDGE_LOOP('',(#272));
#74=EDGE_LOOP('',(#273));
#75=EDGE_LOOP('',(#274));
#76=EDGE_LOOP('',(#275));
#77=EDGE_LOOP('',(#276));
#78=EDGE_LOOP('',(#277,#278,#279,#280));
#79=EDGE_LOOP('',(#281,#282,#283,#284));
#80=EDGE_LOOP('',(#285,#286,#287,#288));
#81=EDGE_LOOP('',(#289,#290,#291,#292));
#82=EDGE_LOOP('',(#293,#294,#295,#296));
#83=EDGE_LOOP('',(#297));
#84=EDGE_LOOP('',(#298));
#85=EDGE_LOOP('',(#299));
#86=EDGE_LOOP('',(#300));
#87=EDGE_LOOP('',(#301));
#88=EDGE_LOOP('',(#302));
#89=EDGE_LOOP('',(#303));
#90=EDGE_LOOP('',(#304));
#91=EDGE_LOOP('',(#305));
#92=LINE('',#497,#110);
#93=LINE('',#504,#111);
#94=LINE('',#510,#112);
#95=LINE('',#516,#113);
#96=LINE('',#522,#114);
#97=LINE('',#528,#115);
#98=LINE('',#534,#116);
#99=LINE('',#540,#117);
#100=LINE('',#546,#118);
#101=LINE('',#552,#119);
#102=LINE('',#559,#120);
#103=LINE('',#562,#121);
#104=LINE('',#567,#122);
#105=LINE('',#568,#123);
#106=LINE('',#573,#124);
#107=LINE('',#574,#125);
#108=LINE('',#576,#126);
#109=LINE('',#578,#127);
#110=VECTOR('',#396,0.0885);
#111=VECTOR('',#405,0.0885);
#112=VECTOR('',#412,0.0885);
#113=VECTOR('',#419,0.0885);
#114=VECTOR('',#426,0.0885);
#115=VECTOR('',#433,0.0885);
#116=VECTOR('',#440,0.0885);
#117=VECTOR('',#447,0.0885);
#118=VECTOR('',#454,0.0885);
#119=VECTOR('',#461,0.0885);
#120=VECTOR('',#468,0.393700787401575);
#121=VECTOR('',#471,0.393700787401575);
#122=VECTOR('',#476,0.393700787401575);
#123=VECTOR('',#477,0.393700787401575);
#124=VECTOR('',#482,0.393700787401575);
#125=VECTOR('',#483,0.393700787401575);
#126=VECTOR('',#486,0.393700787401575);
#127=VECTOR('',#489,0.393700787401575);
#128=CIRCLE('',#350,0.0885);
#129=CIRCLE('',#351,0.0885);
#130=CIRCLE('',#354,0.0885);
#131=CIRCLE('',#355,0.0885);
#132=CIRCLE('',#357,0.0885);
#133=CIRCLE('',#358,0.0885);
#134=CIRCLE('',#360,0.0885);
#135=CIRCLE('',#361,0.0885);
#136=CIRCLE('',#363,0.0885);
#137=CIRCLE('',#364,0.0885);
#138=CIRCLE('',#366,0.0885);
#139=CIRCLE('',#367,0.0885);
#140=CIRCLE('',#369,0.0885);
#141=CIRCLE('',#370,0.0885);
#142=CIRCLE('',#372,0.0885);
#143=CIRCLE('',#373,0.0885);
#144=CIRCLE('',#375,0.0885);
#145=CIRCLE('',#376,0.0885);
#146=CIRCLE('',#378,0.0885);
#147=CIRCLE('',#379,0.0885);
#148=CIRCLE('',#381,0.25);
#149=CIRCLE('',#382,0.25);
#150=CIRCLE('',#384,0.25);
#151=CIRCLE('',#386,0.25);
#152=VERTEX_POINT('',#494);
#153=VERTEX_POINT('',#496);
#154=VERTEX_POINT('',#501);
#155=VERTEX_POINT('',#503);
#156=VERTEX_POINT('',#507);
#157=VERTEX_POINT('',#509);
#158=VERTEX_POINT('',#513);
#159=VERTEX_POINT('',#515);
#160=VERTEX_POINT('',#519);
#161=VERTEX_POINT('',#521);
#162=VERTEX_POINT('',#525);
#163=VERTEX_POINT('',#527);
#164=VERTEX_POINT('',#531);
#165=VERTEX_POINT('',#533);
#166=VERTEX_POINT('',#537);
#167=VERTEX_POINT('',#539);
#168=VERTEX_POINT('',#543);
#169=VERTEX_POINT('',#545);
#170=VERTEX_POINT('',#549);
#171=VERTEX_POINT('',#551);
#172=VERTEX_POINT('',#555);
#173=VERTEX_POINT('',#556);
#174=VERTEX_POINT('',#558);
#175=VERTEX_POINT('',#560);
#176=VERTEX_POINT('',#564);
#177=VERTEX_POINT('',#565);
#178=VERTEX_POINT('',#570);
#179=VERTEX_POINT('',#571);
#180=EDGE_CURVE('',#152,#152,#128,.T.);
#181=EDGE_CURVE('',#152,#153,#92,.T.);
#182=EDGE_CURVE('',#153,#153,#129,.T.);
#183=EDGE_CURVE('',#154,#154,#130,.T.);
#184=EDGE_CURVE('',#154,#155,#93,.T.);
#185=EDGE_CURVE('',#155,#155,#131,.T.);
#186=EDGE_CURVE('',#156,#156,#132,.T.);
#187=EDGE_CURVE('',#156,#157,#94,.T.);
#188=EDGE_CURVE('',#157,#157,#133,.T.);
#189=EDGE_CURVE('',#158,#158,#134,.T.);
#190=EDGE_CURVE('',#158,#159,#95,.T.);
#191=EDGE_CURVE('',#159,#159,#135,.T.);
#192=EDGE_CURVE('',#160,#160,#136,.T.);
#193=EDGE_CURVE('',#160,#161,#96,.T.);
#194=EDGE_CURVE('',#161,#161,#137,.T.);
#195=EDGE_CURVE('',#162,#162,#138,.T.);
#196=EDGE_CURVE('',#162,#163,#97,.T.);
#197=EDGE_CURVE('',#163,#163,#139,.T.);
#198=EDGE_CURVE('',#164,#164,#140,.T.);
#199=EDGE_CURVE('',#164,#165,#98,.T.);
#200=EDGE_CURVE('',#165,#165,#141,.T.);
#201=EDGE_CURVE('',#166,#166,#142,.T.);
#202=EDGE_CURVE('',#166,#167,#99,.T.);
#203=EDGE_CURVE('',#167,#167,#143,.T.);
#204=EDGE_CURVE('',#168,#168,#144,.T.);
#205=EDGE_CURVE('',#168,#169,#100,.T.);
#206=EDGE_CURVE('',#169,#169,#145,.T.);
#207=EDGE_CURVE('',#170,#170,#146,.T.);
#208=EDGE_CURVE('',#170,#171,#101,.T.);
#209=EDGE_CURVE('',#171,#171,#147,.T.);
#210=EDGE_CURVE('',#172,#173,#148,.T.);
#211=EDGE_CURVE('',#174,#172,#102,.T.);
#212=EDGE_CURVE('',#175,#174,#149,.T.);
#213=EDGE_CURVE('',#173,#175,#103,.T.);
#214=EDGE_CURVE('',#176,#177,#150,.T.);
#215=EDGE_CURVE('',#177,#172,#104,.T.);
#216=EDGE_CURVE('',#173,#176,#105,.T.);
#217=EDGE_CURVE('',#178,#179,#151,.T.);
#218=EDGE_CURVE('',#179,#175,#106,.T.);
#219=EDGE_CURVE('',#174,#178,#107,.T.);
#220=EDGE_CURVE('',#176,#179,#108,.T.);
#221=EDGE_CURVE('',#178,#177,#109,.T.);
#222=ORIENTED_EDGE('',*,*,#180,.F.);
#223=ORIENTED_EDGE('',*,*,#181,.T.);
#224=ORIENTED_EDGE('',*,*,#182,.F.);
#225=ORIENTED_EDGE('',*,*,#181,.F.);
#226=ORIENTED_EDGE('',*,*,#180,.T.);
#227=ORIENTED_EDGE('',*,*,#183,.F.);
#228=ORIENTED_EDGE('',*,*,#184,.T.);
#229=ORIENTED_EDGE('',*,*,#185,.F.);
#230=ORIENTED_EDGE('',*,*,#184,.F.);
#231=ORIENTED_EDGE('',*,*,#186,.F.);
#232=ORIENTED_EDGE('',*,*,#187,.T.);
#233=ORIENTED_EDGE('',*,*,#188,.F.);
#234=ORIENTED_EDGE('',*,*,#187,.F.);
#235=ORIENTED_EDGE('',*,*,#189,.F.);
#236=ORIENTED_EDGE('',*,*,#190,.T.);
#237=ORIENTED_EDGE('',*,*,#191,.F.);
#238=ORIENTED_EDGE('',*,*,#190,.F.);
#239=ORIENTED_EDGE('',*,*,#192,.F.);
#240=ORIENTED_EDGE('',*,*,#193,.T.);
#241=ORIENTED_EDGE('',*,*,#194,.F.);
#242=ORIENTED_EDGE('',*,*,#193,.F.);
#243=ORIENTED_EDGE('',*,*,#195,.F.);
#244=ORIENTED_EDGE('',*,*,#196,.T.);
#245=ORIENTED_EDGE('',*,*,#197,.F.);
#246=ORIENTED_EDGE('',*,*,#196,.F.);
#247=ORIENTED_EDGE('',*,*,#198,.F.);
#248=ORIENTED_EDGE('',*,*,#199,.T.);
#249=ORIENTED_EDGE('',*,*,#200,.F.);
#250=ORIENTED_EDGE('',*,*,#199,.F.);
#251=ORIENTED_EDGE('',*,*,#201,.F.);
#252=ORIENTED_EDGE('',*,*,#202,.T.);
#253=ORIENTED_EDGE('',*,*,#203,.F.);
#254=ORIENTED_EDGE('',*,*,#202,.F.);
#255=ORIENTED_EDGE('',*,*,#204,.F.);
#256=ORIENTED_EDGE('',*,*,#205,.T.);
#257=ORIENTED_EDGE('',*,*,#206,.F.);
#258=ORIENTED_EDGE('',*,*,#205,.F.);
#259=ORIENTED_EDGE('',*,*,#207,.F.);
#260=ORIENTED_EDGE('',*,*,#208,.T.);
#261=ORIENTED_EDGE('',*,*,#209,.F.);
#262=ORIENTED_EDGE('',*,*,#208,.F.);
#263=ORIENTED_EDGE('',*,*,#210,.F.);
#264=ORIENTED_EDGE('',*,*,#211,.F.);
#265=ORIENTED_EDGE('',*,*,#212,.F.);
#266=ORIENTED_EDGE('',*,*,#213,.F.);
#267=ORIENTED_EDGE('',*,*,#182,.T.);
#268=ORIENTED_EDGE('',*,*,#185,.T.);
#269=ORIENTED_EDGE('',*,*,#188,.T.);
#270=ORIENTED_EDGE('',*,*,#191,.T.);
#271=ORIENTED_EDGE('',*,*,#194,.T.);
#272=ORIENTED_EDGE('',*,*,#197,.T.);
#273=ORIENTED_EDGE('',*,*,#200,.T.);
#274=ORIENTED_EDGE('',*,*,#203,.T.);
#275=ORIENTED_EDGE('',*,*,#206,.T.);
#276=ORIENTED_EDGE('',*,*,#209,.T.);
#277=ORIENTED_EDGE('',*,*,#214,.T.);
#278=ORIENTED_EDGE('',*,*,#215,.T.);
#279=ORIENTED_EDGE('',*,*,#210,.T.);
#280=ORIENTED_EDGE('',*,*,#216,.T.);
#281=ORIENTED_EDGE('',*,*,#217,.T.);
#282=ORIENTED_EDGE('',*,*,#218,.T.);
#283=ORIENTED_EDGE('',*,*,#212,.T.);
#284=ORIENTED_EDGE('',*,*,#219,.T.);
#285=ORIENTED_EDGE('',*,*,#216,.F.);
#286=ORIENTED_EDGE('',*,*,#213,.T.);
#287=ORIENTED_EDGE('',*,*,#218,.F.);
#288=ORIENTED_EDGE('',*,*,#220,.F.);
#289=ORIENTED_EDGE('',*,*,#215,.F.);
#290=ORIENTED_EDGE('',*,*,#221,.F.);
#291=ORIENTED_EDGE('',*,*,#219,.F.);
#292=ORIENTED_EDGE('',*,*,#211,.T.);
#293=ORIENTED_EDGE('',*,*,#214,.F.);
#294=ORIENTED_EDGE('',*,*,#220,.T.);
#295=ORIENTED_EDGE('',*,*,#217,.F.);
#296=ORIENTED_EDGE('',*,*,#221,.T.);
#297=ORIENTED_EDGE('',*,*,#183,.T.);
#298=ORIENTED_EDGE('',*,*,#186,.T.);
#299=ORIENTED_EDGE('',*,*,#189,.T.);
#300=ORIENTED_EDGE('',*,*,#192,.T.);
#301=ORIENTED_EDGE('',*,*,#195,.T.);
#302=ORIENTED_EDGE('',*,*,#198,.T.);
#303=ORIENTED_EDGE('',*,*,#201,.T.);
#304=ORIENTED_EDGE('',*,*,#204,.T.);
#305=ORIENTED_EDGE('',*,*,#207,.T.);
#306=CYLINDRICAL_SURFACE('',#349,0.0885);
#307=CYLINDRICAL_SURFACE('',#353,0.0885);
#308=CYLINDRICAL_SURFACE('',#356,0.0885);
#309=CYLINDRICAL_SURFACE('',#359,0.0885);
#310=CYLINDRICAL_SURFACE('',#362,0.0885);
#311=CYLINDRICAL_SURFACE('',#365,0.0885);
#312=CYLINDRICAL_SURFACE('',#368,0.0885);
#313=CYLINDRICAL_SURFACE('',#371,0.0885);
#314=CYLINDRICAL_SURFACE('',#374,0.0885);
#315=CYLINDRICAL_SURFACE('',#377,0.0885);
#316=CYLINDRICAL_SURFACE('',#383,0.25);
#317=CYLINDRICAL_SURFACE('',#385,0.25);
#318=ADVANCED_FACE('',(#39),#306,.T.);
#319=ADVANCED_FACE('',(#40),#34,.F.);
#320=ADVANCED_FACE('',(#41),#307,.F.);
#321=ADVANCED_FACE('',(#42),#308,.F.);
#322=ADVANCED_FACE('',(#43),#309,.F.);
#323=ADVANCED_FACE('',(#44),#310,.F.);
#324=ADVANCED_FACE('',(#45),#311,.F.);
#325=ADVANCED_FACE('',(#46),#312,.F.);
#326=ADVANCED_FACE('',(#47),#313,.F.);
#327=ADVANCED_FACE('',(#48),#314,.F.);
#328=ADVANCED_FACE('',(#49),#315,.F.);
#329=ADVANCED_FACE('',(#50,#15,#16,#17,#18,#19,#20,#21,#22,#23,#24),#35,
 .F.);
#330=ADVANCED_FACE('',(#51),#316,.T.);
#331=ADVANCED_FACE('',(#52),#317,.T.);
#332=ADVANCED_FACE('',(#53),#36,.T.);
#333=ADVANCED_FACE('',(#54),#37,.T.);
#334=ADVANCED_FACE('',(#55,#25,#26,#27,#28,#29,#30,#31,#32,#33),#38,.T.);
#335=CLOSED_SHELL('',(#318,#319,#320,#321,#322,#323,#324,#325,#326,#327,
#328,#329,#330,#331,#332,#333,#334));
#336=DERIVED_UNIT_ELEMENT(#338,1.);
#337=DERIVED_UNIT_ELEMENT(#587,-3.);
#338=(
MASS_UNIT()
NAMED_UNIT(*)
SI_UNIT(.KILO.,.GRAM.)
);
#339=DERIVED_UNIT((#336,#337));
#340=MEASURE_REPRESENTATION_ITEM('density measure',
POSITIVE_RATIO_MEASURE(7850.),#339);
#341=PROPERTY_DEFINITION_REPRESENTATION(#346,#343);
#342=PROPERTY_DEFINITION_REPRESENTATION(#347,#344);
#343=REPRESENTATION('material name',(#345),#582);
#344=REPRESENTATION('density',(#340),#582);
#345=DESCRIPTIVE_REPRESENTATION_ITEM('Steel','Steel');
#346=PROPERTY_DEFINITION('material property','material name',#595);
#347=PROPERTY_DEFINITION('material property','density of part',#595);
#348=AXIS2_PLACEMENT_3D('',#492,#390,#391);
#349=AXIS2_PLACEMENT_3D('',#493,#392,#393);
#350=AXIS2_PLACEMENT_3D('',#495,#394,#395);
#351=AXIS2_PLACEMENT_3D('',#498,#397,#398);
#352=AXIS2_PLACEMENT_3D('',#499,#399,#400);
#353=AXIS2_PLACEMENT_3D('',#500,#401,#402);
#354=AXIS2_PLACEMENT_3D('',#502,#403,#404);
#355=AXIS2_PLACEMENT_3D('',#505,#406,#407);
#356=AXIS2_PLACEMENT_3D('',#506,#408,#409);
#357=AXIS2_PLACEMENT_3D('',#508,#410,#411);
#358=AXIS2_PLACEMENT_3D('',#511,#413,#414);
#359=AXIS2_PLACEMENT_3D('',#512,#415,#416);
#360=AXIS2_PLACEMENT_3D('',#514,#417,#418);
#361=AXIS2_PLACEMENT_3D('',#517,#420,#421);
#362=AXIS2_PLACEMENT_3D('',#518,#422,#423);
#363=AXIS2_PLACEMENT_3D('',#520,#424,#425);
#364=AXIS2_PLACEMENT_3D('',#523,#427,#428);
#365=AXIS2_PLACEMENT_3D('',#524,#429,#430);
#366=AXIS2_PLACEMENT_3D('',#526,#431,#432);
#367=AXIS2_PLACEMENT_3D('',#529,#434,#435);
#368=AXIS2_PLACEMENT_3D('',#530,#436,#437);
#369=AXIS2_PLACEMENT_3D('',#532,#438,#439);
#370=AXIS2_PLACEMENT_3D('',#535,#441,#442);
#371=AXIS2_PLACEMENT_3D('',#536,#443,#444);
#372=AXIS2_PLACEMENT_3D('',#538,#445,#446);
#373=AXIS2_PLACEMENT_3D('',#541,#448,#449);
#374=AXIS2_PLACEMENT_3D('',#542,#450,#451);
#375=AXIS2_PLACEMENT_3D('',#544,#452,#453);
#376=AXIS2_PLACEMENT_3D('',#547,#455,#456);
#377=AXIS2_PLACEMENT_3D('',#548,#457,#458);
#378=AXIS2_PLACEMENT_3D('',#550,#459,#460);
#379=AXIS2_PLACEMENT_3D('',#553,#462,#463);
#380=AXIS2_PLACEMENT_3D('',#554,#464,#465);
#381=AXIS2_PLACEMENT_3D('',#557,#466,#467);
#382=AXIS2_PLACEMENT_3D('',#561,#469,#470);
#383=AXIS2_PLACEMENT_3D('',#563,#472,#473);
#384=AXIS2_PLACEMENT_3D('',#566,#474,#475);
#385=AXIS2_PLACEMENT_3D('',#569,#478,#479);
#386=AXIS2_PLACEMENT_3D('',#572,#480,#481);
#387=AXIS2_PLACEMENT_3D('',#575,#484,#485);
#388=AXIS2_PLACEMENT_3D('',#577,#487,#488);
#389=AXIS2_PLACEMENT_3D('',#579,#490,#491);
#390=DIRECTION('axis',(0.,0.,1.));
#391=DIRECTION('refdir',(1.,0.,0.));
#392=DIRECTION('center_axis',(0.,0.,-1.));
#393=DIRECTION('ref_axis',(-1.,0.,0.));
#394=DIRECTION('center_axis',(0.,0.,-1.));
#395=DIRECTION('ref_axis',(-1.,0.,0.));
#396=DIRECTION('',(0.,0.,1.));
#397=DIRECTION('center_axis',(0.,0.,1.));
#398=DIRECTION('ref_axis',(1.,0.,0.));
#399=DIRECTION('center_axis',(0.,0.,1.));
#400=DIRECTION('ref_axis',(-1.,0.,0.));
#401=DIRECTION('center_axis',(0.,0.,-1.));
#402=DIRECTION('ref_axis',(1.,0.,0.));
#403=DIRECTION('center_axis',(0.,0.,-1.));
#404=DIRECTION('ref_axis',(1.,0.,0.));
#405=DIRECTION('',(0.,0.,-1.));
#406=DIRECTION('center_axis',(0.,0.,1.));
#407=DIRECTION('ref_axis',(1.,0.,0.));
#408=DIRECTION('center_axis',(0.,0.,-1.));
#409=DIRECTION('ref_axis',(1.,0.,0.));
#410=DIRECTION('center_axis',(0.,0.,-1.));
#411=DIRECTION('ref_axis',(1.,0.,0.));
#412=DIRECTION('',(0.,0.,-1.));
#413=DIRECTION('center_axis',(0.,0.,1.));
#414=DIRECTION('ref_axis',(1.,0.,0.));
#415=DIRECTION('center_axis',(0.,0.,-1.));
#416=DIRECTION('ref_axis',(1.,0.,0.));
#417=DIRECTION('center_axis',(0.,0.,-1.));
#418=DIRECTION('ref_axis',(1.,0.,0.));
#419=DIRECTION('',(0.,0.,-1.));
#420=DIRECTION('center_axis',(0.,0.,1.));
#421=DIRECTION('ref_axis',(1.,0.,0.));
#422=DIRECTION('center_axis',(0.,0.,-1.));
#423=DIRECTION('ref_axis',(1.,0.,0.));
#424=DIRECTION('center_axis',(0.,0.,-1.));
#425=DIRECTION('ref_axis',(1.,0.,0.));
#426=DIRECTION('',(0.,0.,-1.));
#427=DIRECTION('center_axis',(0.,0.,1.));
#428=DIRECTION('ref_axis',(1.,0.,0.));
#429=DIRECTION('center_axis',(0.,0.,-1.));
#430=DIRECTION('ref_axis',(1.,0.,0.));
#431=DIRECTION('center_axis',(0.,0.,-1.));
#432=DIRECTION('ref_axis',(1.,0.,0.));
#433=DIRECTION('',(0.,0.,-1.));
#434=DIRECTION('center_axis',(0.,0.,1.));
#435=DIRECTION('ref_axis',(1.,0.,0.));
#436=DIRECTION('center_axis',(0.,0.,-1.));
#437=DIRECTION('ref_axis',(1.,0.,0.));
#438=DIRECTION('center_axis',(0.,0.,-1.));
#439=DIRECTION('ref_axis',(1.,0.,0.));
#440=DIRECTION('',(0.,0.,-1.));
#441=DIRECTION('center_axis',(0.,0.,1.));
#442=DIRECTION('ref_axis',(1.,0.,0.));
#443=DIRECTION('center_axis',(0.,0.,-1.));
#444=DIRECTION('ref_axis',(1.,0.,0.));
#445=DIRECTION('center_axis',(0.,0.,-1.));
#446=DIRECTION('ref_axis',(1.,0.,0.));
#447=DIRECTION('',(0.,0.,-1.));
#448=DIRECTION('center_axis',(0.,0.,1.));
#449=DIRECTION('ref_axis',(1.,0.,0.));
#450=DIRECTION('center_axis',(0.,0.,-1.));
#451=DIRECTION('ref_axis',(1.,0.,0.));
#452=DIRECTION('center_axis',(0.,0.,-1.));
#453=DIRECTION('ref_axis',(1.,0.,0.));
#454=DIRECTION('',(0.,0.,-1.));
#455=DIRECTION('center_axis',(0.,0.,1.));
#456=DIRECTION('ref_axis',(1.,0.,0.));
#457=DIRECTION('center_axis',(0.,0.,-1.));
#458=DIRECTION('ref_axis',(1.,0.,0.));
#459=DIRECTION('center_axis',(0.,0.,-1.));
#460=DIRECTION('ref_axis',(1.,0.,0.));
#461=DIRECTION('',(0.,0.,-1.));
#462=DIRECTION('center_axis',(0.,0.,1.));
#463=DIRECTION('ref_axis',(1.,0.,0.));
#464=DIRECTION('center_axis',(0.,0.,1.));
#465=DIRECTION('ref_axis',(1.,0.,0.));
#466=DIRECTION('center_axis',(0.,0.,1.));
#467=DIRECTION('ref_axis',(-0.707106781186548,-0.707106781186548,0.));
#468=DIRECTION('',(-1.,0.,0.));
#469=DIRECTION('center_axis',(0.,0.,1.));
#470=DIRECTION('ref_axis',(0.707106781186546,0.707106781186549,0.));
#471=DIRECTION('',(1.,0.,0.));
#472=DIRECTION('center_axis',(0.,0.,1.));
#473=DIRECTION('ref_axis',(-0.707106781186547,0.707106781186548,0.));
#474=DIRECTION('center_axis',(0.,0.,-1.));
#475=DIRECTION('ref_axis',(-0.707106781186548,-0.707106781186548,0.));
#476=DIRECTION('',(0.,0.,-1.));
#477=DIRECTION('',(0.,0.,1.));
#478=DIRECTION('center_axis',(0.,0.,1.));
#479=DIRECTION('ref_axis',(0.707106781186548,-0.707106781186547,0.));
#480=DIRECTION('center_axis',(0.,0.,-1.));
#481=DIRECTION('ref_axis',(0.707106781186546,0.707106781186549,0.));
#482=DIRECTION('',(0.,0.,-1.));
#483=DIRECTION('',(0.,0.,1.));
#484=DIRECTION('center_axis',(0.,-1.,0.));
#485=DIRECTION('ref_axis',(1.,0.,0.));
#486=DIRECTION('',(1.,0.,0.));
#487=DIRECTION('center_axis',(0.,1.,0.));
#488=DIRECTION('ref_axis',(-1.,0.,0.));
#489=DIRECTION('',(-1.,0.,0.));
#490=DIRECTION('center_axis',(0.,0.,1.));
#491=DIRECTION('ref_axis',(1.,0.,0.));
#492=CARTESIAN_POINT('',(0.,0.,0.));
#493=CARTESIAN_POINT('Origin',(0.25,0.25,0.24));
#494=CARTESIAN_POINT('',(0.3385,0.25,-0.76));
#495=CARTESIAN_POINT('Origin',(0.25,0.25,-0.76));
#496=CARTESIAN_POINT('',(0.3385,0.25,0.));
#497=CARTESIAN_POINT('',(0.3385,0.25,0.24));
#498=CARTESIAN_POINT('Origin',(0.25,0.25,0.));
#499=CARTESIAN_POINT('Origin',(0.25,0.25,-0.76));
#500=CARTESIAN_POINT('Origin',(1.25,0.25,0.12));
#501=CARTESIAN_POINT('',(1.1615,0.25,0.24));
#502=CARTESIAN_POINT('Origin',(1.25,0.25,0.24));
#503=CARTESIAN_POINT('',(1.1615,0.25,0.));
#504=CARTESIAN_POINT('',(1.1615,0.25,0.12));
#505=CARTESIAN_POINT('Origin',(1.25,0.25,0.));
#506=CARTESIAN_POINT('Origin',(2.25,0.25,0.12));
#507=CARTESIAN_POINT('',(2.1615,0.25,0.24));
#508=CARTESIAN_POINT('Origin',(2.25,0.25,0.24));
#509=CARTESIAN_POINT('',(2.1615,0.25,0.));
#510=CARTESIAN_POINT('',(2.1615,0.25,0.12));
#511=CARTESIAN_POINT('Origin',(2.25,0.25,0.));
#512=CARTESIAN_POINT('Origin',(3.75,0.25,0.12));
#513=CARTESIAN_POINT('',(3.6615,0.25,0.24));
#514=CARTESIAN_POINT('Origin',(3.75,0.25,0.24));
#515=CARTESIAN_POINT('',(3.6615,0.25,0.));
#516=CARTESIAN_POINT('',(3.6615,0.25,0.12));
#517=CARTESIAN_POINT('Origin',(3.75,0.25,0.));
#518=CARTESIAN_POINT('Origin',(4.75,0.25,0.12));
#519=CARTESIAN_POINT('',(4.6615,0.25,0.24));
#520=CARTESIAN_POINT('Origin',(4.75,0.25,0.24));
#521=CARTESIAN_POINT('',(4.6615,0.25,0.));
#522=CARTESIAN_POINT('',(4.6615,0.25,0.12));
#523=CARTESIAN_POINT('Origin',(4.75,0.25,0.));
#524=CARTESIAN_POINT('Origin',(4.25,0.25,0.12));
#525=CARTESIAN_POINT('',(4.1615,0.25,0.24));
#526=CARTESIAN_POINT('Origin',(4.25,0.25,0.24));
#527=CARTESIAN_POINT('',(4.1615,0.25,0.));
#528=CARTESIAN_POINT('',(4.1615,0.25,0.12));
#529=CARTESIAN_POINT('Origin',(4.25,0.25,0.));
#530=CARTESIAN_POINT('Origin',(3.25,0.25,0.12));
#531=CARTESIAN_POINT('',(3.1615,0.25,0.24));
#532=CARTESIAN_POINT('Origin',(3.25,0.25,0.24));
#533=CARTESIAN_POINT('',(3.1615,0.25,0.));
#534=CARTESIAN_POINT('',(3.1615,0.25,0.12));
#535=CARTESIAN_POINT('Origin',(3.25,0.25,0.));
#536=CARTESIAN_POINT('Origin',(2.75,0.25,0.12));
#537=CARTESIAN_POINT('',(2.6615,0.25,0.24));
#538=CARTESIAN_POINT('Origin',(2.75,0.25,0.24));
#539=CARTESIAN_POINT('',(2.6615,0.25,0.));
#540=CARTESIAN_POINT('',(2.6615,0.25,0.12));
#541=CARTESIAN_POINT('Origin',(2.75,0.25,0.));
#542=CARTESIAN_POINT('Origin',(1.75,0.25,0.12));
#543=CARTESIAN_POINT('',(1.6615,0.25,0.24));
#544=CARTESIAN_POINT('Origin',(1.75,0.25,0.24));
#545=CARTESIAN_POINT('',(1.6615,0.25,0.));
#546=CARTESIAN_POINT('',(1.6615,0.25,0.12));
#547=CARTESIAN_POINT('Origin',(1.75,0.25,0.));
#548=CARTESIAN_POINT('Origin',(0.75,0.25,0.12));
#549=CARTESIAN_POINT('',(0.6615,0.25,0.24));
#550=CARTESIAN_POINT('Origin',(0.75,0.25,0.24));
#551=CARTESIAN_POINT('',(0.6615,0.25,0.));
#552=CARTESIAN_POINT('',(0.6615,0.25,0.12));
#553=CARTESIAN_POINT('Origin',(0.75,0.25,0.));
#554=CARTESIAN_POINT('Origin',(2.5,0.25,0.));
#555=CARTESIAN_POINT('',(0.25,0.5,0.));
#556=CARTESIAN_POINT('',(0.25,0.,0.));
#557=CARTESIAN_POINT('Origin',(0.25,0.25,0.));
#558=CARTESIAN_POINT('',(4.75,0.5,0.));
#559=CARTESIAN_POINT('',(5.,0.5,0.));
#560=CARTESIAN_POINT('',(4.75,0.,0.));
#561=CARTESIAN_POINT('Origin',(4.75,0.25,0.));
#562=CARTESIAN_POINT('',(0.,0.,0.));
#563=CARTESIAN_POINT('Origin',(0.25,0.25,0.));
#564=CARTESIAN_POINT('',(0.25,0.,0.24));
#565=CARTESIAN_POINT('',(0.25,0.5,0.24));
#566=CARTESIAN_POINT('Origin',(0.25,0.25,0.24));
#567=CARTESIAN_POINT('',(0.25,0.5,0.));
#568=CARTESIAN_POINT('',(0.25,0.,0.));
#569=CARTESIAN_POINT('Origin',(4.75,0.25,0.));
#570=CARTESIAN_POINT('',(4.75,0.5,0.24));
#571=CARTESIAN_POINT('',(4.75,0.,0.24));
#572=CARTESIAN_POINT('Origin',(4.75,0.25,0.24));
#573=CARTESIAN_POINT('',(4.75,0.,0.));
#574=CARTESIAN_POINT('',(4.75,0.5,0.));
#575=CARTESIAN_POINT('Origin',(1.34690505075512E-49,0.,0.));
#576=CARTESIAN_POINT('',(0.,0.,0.24));
#577=CARTESIAN_POINT('Origin',(5.,0.5,0.));
#578=CARTESIAN_POINT('',(5.,0.5,0.24));
#579=CARTESIAN_POINT('Origin',(2.5,0.25,0.24));
#580=UNCERTAINTY_MEASURE_WITH_UNIT(LENGTH_MEASURE(0.000393700787401575),
#585,'DISTANCE_ACCURACY_VALUE',
'Maximum model space distance between geometric entities at asserted c
onnectivities');
#581=UNCERTAINTY_MEASURE_WITH_UNIT(LENGTH_MEASURE(0.000393700787401575),
#585,'DISTANCE_ACCURACY_VALUE',
'Maximum model space distance between geometric entities at asserted c
onnectivities');
#582=(
GEOMETRIC_REPRESENTATION_CONTEXT(3)
GLOBAL_UNCERTAINTY_ASSIGNED_CONTEXT((#580))
GLOBAL_UNIT_ASSIGNED_CONTEXT((#585,#589,#590))
REPRESENTATION_CONTEXT('','3D')
);
#583=(
GEOMETRIC_REPRESENTATION_CONTEXT(3)
GLOBAL_UNCERTAINTY_ASSIGNED_CONTEXT((#581))
GLOBAL_UNIT_ASSIGNED_CONTEXT((#585,#589,#590))
REPRESENTATION_CONTEXT('','3D')
);
#584=DIMENSIONAL_EXPONENTS(1.,0.,0.,0.,0.,0.,0.);
#585=(
CONVERSION_BASED_UNIT('inch',#588)
LENGTH_UNIT()
NAMED_UNIT(#584)
);
#586=(
LENGTH_UNIT()
NAMED_UNIT(*)
SI_UNIT(.MILLI.,.METRE.)
);
#587=(
LENGTH_UNIT()
NAMED_UNIT(*)
SI_UNIT($,.METRE.)
);
#588=LENGTH_MEASURE_WITH_UNIT(LENGTH_MEASURE(25.4),#586);
#589=(
NAMED_UNIT(*)
PLANE_ANGLE_UNIT()
SI_UNIT($,.RADIAN.)
);
#590=(
NAMED_UNIT(*)
SI_UNIT($,.STERADIAN.)
SOLID_ANGLE_UNIT()
);
#591=SHAPE_DEFINITION_REPRESENTATION(#592,#593);
#592=PRODUCT_DEFINITION_SHAPE('',$,#595);
#593=SHAPE_REPRESENTATION('',(#348),#582);
#594=PRODUCT_DEFINITION_CONTEXT('part definition',#599,'design');
#595=PRODUCT_DEFINITION('Handle','Handle',#596,#594);
#596=PRODUCT_DEFINITION_FORMATION('',$,#601);
#597=PRODUCT_RELATED_PRODUCT_CATEGORY('Handle','Handle',(#601));
#598=APPLICATION_PROTOCOL_DEFINITION('international standard',
'automotive_design',2009,#599);
#599=APPLICATION_CONTEXT(
'Core Data for Automotive Mechanical Design Process');
#600=PRODUCT_CONTEXT('part definition',#599,'mechanical');
#601=PRODUCT('Handle','Handle',$,(#600));
#602=PRESENTATION_STYLE_ASSIGNMENT((#603));
#603=SURFACE_STYLE_USAGE(.BOTH.,#604);
#604=SURFACE_SIDE_STYLE('',(#605));
#605=SURFACE_STYLE_FILL_AREA(#606);
#606=FILL_AREA_STYLE('Steel - Satin',(#607));
#607=FILL_AREA_STYLE_COLOUR('Steel - Satin',#608);
#608=COLOUR_RGB('Steel - Satin',0.627450980392157,0.627450980392157,0.627450980392157);
ENDSEC;
END-ISO-10303-21;
