ISO-10303-21;
HEADER;
/* Generated by software containing ST-Developer
 * from STEP Tools, Inc. (www.steptools.com) 
 */

FILE_DESCRIPTION(
/* description */ (''),
/* implementation_level */ '2;1');

FILE_NAME(
/* name */ 'Screw block.step',
/* time_stamp */ '2026-09-22T00:16:23-04:00',
/* author */ (''),
/* organization */ (''),
/* preprocessor_version */ 'ST-DEVELOPER v20.2',
/* originating_system */ 'Autodesk Translation Framework v15.15.0.0',
/* authorisation */ '');

FILE_SCHEMA (('AUTOMOTIVE_DESIGN { 1 0 10303 214 3 1 1 }'));
ENDSEC;

DATA;
#10=MECHANICAL_DESIGN_GEOMETRIC_PRESENTATION_REPRESENTATION('',(#13),#167);
#11=SHAPE_REPRESENTATION_RELATIONSHIP('SRR','None',#177,#12);
#12=ADVANCED_BREP_SHAPE_REPRESENTATION('',(#14),#166);
#13=STYLED_ITEM('',(#186),#14);
#14=MANIFOLD_SOLID_BREP('Body1',#85);
#15=FACE_BOUND('',#35,.T.);
#16=PLANE('',#106);
#17=PLANE('',#107);
#18=PLANE('',#111);
#19=LINE('',#153,#21);
#20=LINE('',#161,#22);
#21=VECTOR('',#126,0.1335);
#22=VECTOR('',#137,0.0835);
#23=CYLINDRICAL_SURFACE('',#104,0.1335);
#24=CYLINDRICAL_SURFACE('',#109,0.0835);
#25=FACE_OUTER_BOUND('',#31,.T.);
#26=FACE_OUTER_BOUND('',#32,.T.);
#27=FACE_OUTER_BOUND('',#33,.T.);
#28=FACE_OUTER_BOUND('',#34,.T.);
#29=FACE_OUTER_BOUND('',#36,.T.);
#30=FACE_OUTER_BOUND('',#37,.T.);
#31=EDGE_LOOP('',(#60,#61,#62,#63,#64));
#32=EDGE_LOOP('',(#65,#66,#67,#68,#69));
#33=EDGE_LOOP('',(#70));
#34=EDGE_LOOP('',(#71));
#35=EDGE_LOOP('',(#72));
#36=EDGE_LOOP('',(#73,#74,#75,#76));
#37=EDGE_LOOP('',(#77));
#38=CIRCLE('',#100,0.0735);
#39=CIRCLE('',#101,0.06);
#40=CIRCLE('',#102,0.1335);
#41=CIRCLE('',#103,0.1335);
#42=CIRCLE('',#105,0.1335);
#43=CIRCLE('',#108,0.0835);
#44=CIRCLE('',#110,0.0835);
#45=VERTEX_POINT('',#144);
#46=VERTEX_POINT('',#146);
#47=VERTEX_POINT('',#148);
#48=VERTEX_POINT('',#152);
#49=VERTEX_POINT('',#157);
#50=VERTEX_POINT('',#160);
#51=EDGE_CURVE('',#45,#45,#38,.T.);
#52=EDGE_CURVE('',#45,#46,#39,.T.);
#53=EDGE_CURVE('',#46,#47,#40,.T.);
#54=EDGE_CURVE('',#47,#46,#41,.T.);
#55=EDGE_CURVE('',#47,#48,#19,.T.);
#56=EDGE_CURVE('',#48,#48,#42,.T.);
#57=EDGE_CURVE('',#49,#49,#43,.T.);
#58=EDGE_CURVE('',#49,#50,#20,.T.);
#59=EDGE_CURVE('',#50,#50,#44,.T.);
#60=ORIENTED_EDGE('',*,*,#51,.T.);
#61=ORIENTED_EDGE('',*,*,#52,.T.);
#62=ORIENTED_EDGE('',*,*,#53,.T.);
#63=ORIENTED_EDGE('',*,*,#54,.T.);
#64=ORIENTED_EDGE('',*,*,#52,.F.);
#65=ORIENTED_EDGE('',*,*,#54,.F.);
#66=ORIENTED_EDGE('',*,*,#55,.T.);
#67=ORIENTED_EDGE('',*,*,#56,.T.);
#68=ORIENTED_EDGE('',*,*,#55,.F.);
#69=ORIENTED_EDGE('',*,*,#53,.F.);
#70=ORIENTED_EDGE('',*,*,#51,.F.);
#71=ORIENTED_EDGE('',*,*,#56,.F.);
#72=ORIENTED_EDGE('',*,*,#57,.T.);
#73=ORIENTED_EDGE('',*,*,#57,.F.);
#74=ORIENTED_EDGE('',*,*,#58,.T.);
#75=ORIENTED_EDGE('',*,*,#59,.T.);
#76=ORIENTED_EDGE('',*,*,#58,.F.);
#77=ORIENTED_EDGE('',*,*,#59,.F.);
#78=TOROIDAL_SURFACE('',#99,0.0735,0.06);
#79=ADVANCED_FACE('',(#25),#78,.T.);
#80=ADVANCED_FACE('',(#26),#23,.T.);
#81=ADVANCED_FACE('',(#27),#16,.T.);
#82=ADVANCED_FACE('',(#28,#15),#17,.F.);
#83=ADVANCED_FACE('',(#29),#24,.T.);
#84=ADVANCED_FACE('',(#30),#18,.F.);
#85=CLOSED_SHELL('',(#79,#80,#81,#82,#83,#84));
#86=DERIVED_UNIT_ELEMENT(#88,1.);
#87=DERIVED_UNIT_ELEMENT(#171,-3.);
#88=(
MASS_UNIT()
NAMED_UNIT(*)
SI_UNIT(.KILO.,.GRAM.)
);
#89=DERIVED_UNIT((#86,#87));
#90=MEASURE_REPRESENTATION_ITEM('density measure',
POSITIVE_RATIO_MEASURE(7850.),#89);
#91=PROPERTY_DEFINITION_REPRESENTATION(#96,#93);
#92=PROPERTY_DEFINITION_REPRESENTATION(#97,#94);
#93=REPRESENTATION('material name',(#95),#166);
#94=REPRESENTATION('density',(#90),#166);
#95=DESCRIPTIVE_REPRESENTATION_ITEM('Steel','Steel');
#96=PROPERTY_DEFINITION('material property','material name',#179);
#97=PROPERTY_DEFINITION('material property','density of part',#179);
#98=AXIS2_PLACEMENT_3D('',#142,#112,#113);
#99=AXIS2_PLACEMENT_3D('',#143,#114,#115);
#100=AXIS2_PLACEMENT_3D('',#145,#116,#117);
#101=AXIS2_PLACEMENT_3D('',#147,#118,#119);
#102=AXIS2_PLACEMENT_3D('',#149,#120,#121);
#103=AXIS2_PLACEMENT_3D('',#150,#122,#123);
#104=AXIS2_PLACEMENT_3D('',#151,#124,#125);
#105=AXIS2_PLACEMENT_3D('',#154,#127,#128);
#106=AXIS2_PLACEMENT_3D('',#155,#129,#130);
#107=AXIS2_PLACEMENT_3D('',#156,#131,#132);
#108=AXIS2_PLACEMENT_3D('',#158,#133,#134);
#109=AXIS2_PLACEMENT_3D('',#159,#135,#136);
#110=AXIS2_PLACEMENT_3D('',#162,#138,#139);
#111=AXIS2_PLACEMENT_3D('',#163,#140,#141);
#112=DIRECTION('axis',(0.,0.,1.));
#113=DIRECTION('refdir',(1.,0.,0.));
#114=DIRECTION('center_axis',(0.,0.,1.));
#115=DIRECTION('ref_axis',(1.,0.,0.));
#116=DIRECTION('center_axis',(0.,0.,-1.));
#117=DIRECTION('ref_axis',(-1.,0.,0.));
#118=DIRECTION('center_axis',(0.,-1.,0.));
#119=DIRECTION('ref_axis',(-1.,0.,0.));
#120=DIRECTION('center_axis',(0.,0.,1.));
#121=DIRECTION('ref_axis',(-1.,0.,0.));
#122=DIRECTION('center_axis',(0.,0.,1.));
#123=DIRECTION('ref_axis',(-1.,0.,0.));
#124=DIRECTION('center_axis',(0.,0.,1.));
#125=DIRECTION('ref_axis',(-1.,0.,0.));
#126=DIRECTION('',(0.,0.,-1.));
#127=DIRECTION('center_axis',(0.,0.,1.));
#128=DIRECTION('ref_axis',(-1.,0.,0.));
#129=DIRECTION('center_axis',(0.,0.,1.));
#130=DIRECTION('ref_axis',(-1.,0.,0.));
#131=DIRECTION('center_axis',(0.,0.,1.));
#132=DIRECTION('ref_axis',(-1.,0.,0.));
#133=DIRECTION('center_axis',(0.,0.,1.));
#134=DIRECTION('ref_axis',(1.,0.,0.));
#135=DIRECTION('center_axis',(0.,0.,1.));
#136=DIRECTION('ref_axis',(1.,0.,0.));
#137=DIRECTION('',(0.,0.,-1.));
#138=DIRECTION('center_axis',(0.,0.,1.));
#139=DIRECTION('ref_axis',(1.,0.,0.));
#140=DIRECTION('center_axis',(0.,0.,1.));
#141=DIRECTION('ref_axis',(1.,0.,0.));
#142=CARTESIAN_POINT('',(0.,0.,0.));
#143=CARTESIAN_POINT('Origin',(0.249637894549838,0.25028584642176,0.865));
#144=CARTESIAN_POINT('',(0.176137894549838,0.25028584642176,0.925));
#145=CARTESIAN_POINT('Origin',(0.249637894549838,0.25028584642176,0.925));
#146=CARTESIAN_POINT('',(0.116137894549838,0.25028584642176,0.865));
#147=CARTESIAN_POINT('Origin',(0.176137894549838,0.25028584642176,0.865));
#148=CARTESIAN_POINT('',(0.383137894549838,0.25028584642176,0.865));
#149=CARTESIAN_POINT('Origin',(0.249637894549838,0.25028584642176,0.865));
#150=CARTESIAN_POINT('Origin',(0.249637894549838,0.25028584642176,0.865));
#151=CARTESIAN_POINT('Origin',(0.249637894549838,0.25028584642176,0.8));
#152=CARTESIAN_POINT('',(0.383137894549838,0.25028584642176,0.8));
#153=CARTESIAN_POINT('',(0.383137894549838,0.25028584642176,0.8));
#154=CARTESIAN_POINT('Origin',(0.249637894549838,0.25028584642176,0.8));
#155=CARTESIAN_POINT('Origin',(0.249637894549838,0.25028584642176,0.925));
#156=CARTESIAN_POINT('Origin',(0.249637894549838,0.25028584642176,0.8));
#157=CARTESIAN_POINT('',(0.166137894549838,0.25028584642176,0.8));
#158=CARTESIAN_POINT('Origin',(0.249637894549838,0.25028584642176,0.8));
#159=CARTESIAN_POINT('Origin',(0.249637894549838,0.25028584642176,0.));
#160=CARTESIAN_POINT('',(0.166137894549838,0.25028584642176,0.));
#161=CARTESIAN_POINT('',(0.166137894549838,0.25028584642176,0.));
#162=CARTESIAN_POINT('Origin',(0.249637894549838,0.25028584642176,0.));
#163=CARTESIAN_POINT('Origin',(0.249637894549838,0.25028584642176,0.));
#164=UNCERTAINTY_MEASURE_WITH_UNIT(LENGTH_MEASURE(0.000393700787401575),
#169,'DISTANCE_ACCURACY_VALUE',
'Maximum model space distance between geometric entities at asserted c
onnectivities');
#165=UNCERTAINTY_MEASURE_WITH_UNIT(LENGTH_MEASURE(0.000393700787401575),
#169,'DISTANCE_ACCURACY_VALUE',
'Maximum model space distance between geometric entities at asserted c
onnectivities');
#166=(
GEOMETRIC_REPRESENTATION_CONTEXT(3)
GLOBAL_UNCERTAINTY_ASSIGNED_CONTEXT((#164))
GLOBAL_UNIT_ASSIGNED_CONTEXT((#169,#173,#174))
REPRESENTATION_CONTEXT('','3D')
);
#167=(
GEOMETRIC_REPRESENTATION_CONTEXT(3)
GLOBAL_UNCERTAINTY_ASSIGNED_CONTEXT((#165))
GLOBAL_UNIT_ASSIGNED_CONTEXT((#169,#173,#174))
REPRESENTATION_CONTEXT('','3D')
);
#168=DIMENSIONAL_EXPONENTS(1.,0.,0.,0.,0.,0.,0.);
#169=(
CONVERSION_BASED_UNIT('inch',#172)
LENGTH_UNIT()
NAMED_UNIT(#168)
);
#170=(
LENGTH_UNIT()
NAMED_UNIT(*)
SI_UNIT(.MILLI.,.METRE.)
);
#171=(
LENGTH_UNIT()
NAMED_UNIT(*)
SI_UNIT($,.METRE.)
);
#172=LENGTH_MEASURE_WITH_UNIT(LENGTH_MEASURE(25.4),#170);
#173=(
NAMED_UNIT(*)
PLANE_ANGLE_UNIT()
SI_UNIT($,.RADIAN.)
);
#174=(
NAMED_UNIT(*)
SI_UNIT($,.STERADIAN.)
SOLID_ANGLE_UNIT()
);
#175=SHAPE_DEFINITION_REPRESENTATION(#176,#177);
#176=PRODUCT_DEFINITION_SHAPE('',$,#179);
#177=SHAPE_REPRESENTATION('',(#98),#166);
#178=PRODUCT_DEFINITION_CONTEXT('part definition',#183,'design');
#179=PRODUCT_DEFINITION('Screw','Screw',#180,#178);
#180=PRODUCT_DEFINITION_FORMATION('',$,#185);
#181=PRODUCT_RELATED_PRODUCT_CATEGORY('Screw','Screw',(#185));
#182=APPLICATION_PROTOCOL_DEFINITION('international standard',
'automotive_design',2009,#183);
#183=APPLICATION_CONTEXT(
'Core Data for Automotive Mechanical Design Process');
#184=PRODUCT_CONTEXT('part definition',#183,'mechanical');
#185=PRODUCT('Screw','Screw',$,(#184));
#186=PRESENTATION_STYLE_ASSIGNMENT((#187));
#187=SURFACE_STYLE_USAGE(.BOTH.,#188);
#188=SURFACE_SIDE_STYLE('',(#189));
#189=SURFACE_STYLE_FILL_AREA(#190);
#190=FILL_AREA_STYLE('Steel - Satin',(#191));
#191=FILL_AREA_STYLE_COLOUR('Steel - Satin',#192);
#192=COLOUR_RGB('Steel - Satin',0.627450980392157,0.627450980392157,0.627450980392157);
ENDSEC;
END-ISO-10303-21;
