ISO-10303-21;
HEADER;
/* Generated by software containing ST-Developer
 * from STEP Tools, Inc. (www.steptools.com) 
 */

FILE_DESCRIPTION(
/* description */ (''),
/* implementation_level */ '2;1');

FILE_NAME(
/* name */ 'Pin Slider Block.step',
/* time_stamp */ '2026-09-21T23:45:22-04:00',
/* author */ (''),
/* organization */ (''),
/* preprocessor_version */ 'ST-DEVELOPER v20.2',
/* originating_system */ 'Autodesk Translation Framework v15.15.0.0',
/* authorisation */ '');

FILE_SCHEMA (('AUTOMOTIVE_DESIGN { 1 0 10303 214 3 1 1 }'));
ENDSEC;

DATA;
#10=MECHANICAL_DESIGN_GEOMETRIC_PRESENTATION_REPRESENTATION('',(#13),#807);
#11=SHAPE_REPRESENTATION_RELATIONSHIP('SRR','None',#817,#12);
#12=ADVANCED_BREP_SHAPE_REPRESENTATION('',(#14),#806);
#13=STYLED_ITEM('',(#826),#14);
#14=MANIFOLD_SOLID_BREP('Body1',#479);
#15=ELLIPSE('',#501,0.353553390593273,0.25);
#16=ELLIPSE('',#502,0.353553390593274,0.25);
#17=ELLIPSE('',#504,0.353553390593274,0.25);
#18=ELLIPSE('',#505,0.353553390593273,0.25);
#19=ELLIPSE('',#511,0.353553390593274,0.25);
#20=ELLIPSE('',#512,0.353553390593274,0.25);
#21=ELLIPSE('',#514,0.353553390593274,0.25);
#22=ELLIPSE('',#515,0.353553390593274,0.25);
#23=LINE('',#677,#73);
#24=LINE('',#680,#74);
#25=LINE('',#687,#75);
#26=LINE('',#693,#76);
#27=LINE('',#697,#77);
#28=LINE('',#701,#78);
#29=LINE('',#705,#79);
#30=LINE('',#706,#80);
#31=LINE('',#709,#81);
#32=LINE('',#711,#82);
#33=LINE('',#713,#83);
#34=LINE('',#717,#84);
#35=LINE('',#719,#85);
#36=LINE('',#721,#86);
#37=LINE('',#722,#87);
#38=LINE('',#727,#88);
#39=LINE('',#733,#89);
#40=LINE('',#737,#90);
#41=LINE('',#740,#91);
#42=LINE('',#743,#92);
#43=LINE('',#744,#93);
#44=LINE('',#747,#94);
#45=LINE('',#749,#95);
#46=LINE('',#751,#96);
#47=LINE('',#752,#97);
#48=LINE('',#754,#98);
#49=LINE('',#756,#99);
#50=LINE('',#757,#100);
#51=LINE('',#760,#101);
#52=LINE('',#761,#102);
#53=LINE('',#764,#103);
#54=LINE('',#766,#104);
#55=LINE('',#767,#105);
#56=LINE('',#769,#106);
#57=LINE('',#770,#107);
#58=LINE('',#773,#108);
#59=LINE('',#774,#109);
#60=LINE('',#775,#110);
#61=LINE('',#778,#111);
#62=LINE('',#779,#112);
#63=LINE('',#782,#113);
#64=LINE('',#783,#114);
#65=LINE('',#785,#115);
#66=LINE('',#787,#116);
#67=LINE('',#789,#117);
#68=LINE('',#793,#118);
#69=LINE('',#794,#119);
#70=LINE('',#796,#120);
#71=LINE('',#798,#121);
#72=LINE('',#801,#122);
#73=VECTOR('',#546,0.0885);
#74=VECTOR('',#549,0.0825);
#75=VECTOR('',#556,0.393700787401575);
#76=VECTOR('',#561,0.393700787401575);
#77=VECTOR('',#564,0.393700787401575);
#78=VECTOR('',#567,0.393700787401575);
#79=VECTOR('',#572,0.393700787401575);
#80=VECTOR('',#573,0.393700787401575);
#81=VECTOR('',#576,0.393700787401575);
#82=VECTOR('',#577,0.393700787401575);
#83=VECTOR('',#578,0.393700787401575);
#84=VECTOR('',#581,0.393700787401575);
#85=VECTOR('',#582,0.393700787401575);
#86=VECTOR('',#583,0.393700787401575);
#87=VECTOR('',#584,0.393700787401575);
#88=VECTOR('',#589,0.393700787401575);
#89=VECTOR('',#594,0.393700787401575);
#90=VECTOR('',#597,0.393700787401575);
#91=VECTOR('',#600,0.393700787401575);
#92=VECTOR('',#603,0.393700787401575);
#93=VECTOR('',#604,0.393700787401575);
#94=VECTOR('',#607,0.393700787401575);
#95=VECTOR('',#608,0.393700787401575);
#96=VECTOR('',#609,0.393700787401575);
#97=VECTOR('',#610,0.393700787401575);
#98=VECTOR('',#611,0.393700787401575);
#99=VECTOR('',#612,0.393700787401575);
#100=VECTOR('',#613,0.393700787401575);
#101=VECTOR('',#616,0.393700787401575);
#102=VECTOR('',#617,0.393700787401575);
#103=VECTOR('',#620,0.393700787401575);
#104=VECTOR('',#621,0.393700787401575);
#105=VECTOR('',#622,0.393700787401575);
#106=VECTOR('',#623,0.393700787401575);
#107=VECTOR('',#624,0.393700787401575);
#108=VECTOR('',#627,0.393700787401575);
#109=VECTOR('',#628,0.393700787401575);
#110=VECTOR('',#629,0.393700787401575);
#111=VECTOR('',#632,0.393700787401575);
#112=VECTOR('',#633,0.393700787401575);
#113=VECTOR('',#636,0.393700787401575);
#114=VECTOR('',#637,0.393700787401575);
#115=VECTOR('',#640,0.393700787401575);
#116=VECTOR('',#643,0.393700787401575);
#117=VECTOR('',#646,0.393700787401575);
#118=VECTOR('',#651,0.393700787401575);
#119=VECTOR('',#652,0.393700787401575);
#120=VECTOR('',#655,0.393700787401575);
#121=VECTOR('',#658,0.393700787401575);
#122=VECTOR('',#663,0.393700787401575);
#123=CYLINDRICAL_SURFACE('',#496,0.0885);
#124=CYLINDRICAL_SURFACE('',#498,0.0825);
#125=CYLINDRICAL_SURFACE('',#500,0.25);
#126=CYLINDRICAL_SURFACE('',#510,0.25);
#127=FACE_BOUND('',#156,.T.);
#128=FACE_BOUND('',#167,.T.);
#129=FACE_BOUND('',#182,.T.);
#130=FACE_OUTER_BOUND('',#155,.T.);
#131=FACE_OUTER_BOUND('',#157,.T.);
#132=FACE_OUTER_BOUND('',#158,.T.);
#133=FACE_OUTER_BOUND('',#159,.T.);
#134=FACE_OUTER_BOUND('',#160,.T.);
#135=FACE_OUTER_BOUND('',#161,.T.);
#136=FACE_OUTER_BOUND('',#162,.T.);
#137=FACE_OUTER_BOUND('',#163,.T.);
#138=FACE_OUTER_BOUND('',#164,.T.);
#139=FACE_OUTER_BOUND('',#165,.T.);
#140=FACE_OUTER_BOUND('',#166,.T.);
#141=FACE_OUTER_BOUND('',#168,.T.);
#142=FACE_OUTER_BOUND('',#169,.T.);
#143=FACE_OUTER_BOUND('',#170,.T.);
#144=FACE_OUTER_BOUND('',#171,.T.);
#145=FACE_OUTER_BOUND('',#172,.T.);
#146=FACE_OUTER_BOUND('',#173,.T.);
#147=FACE_OUTER_BOUND('',#174,.T.);
#148=FACE_OUTER_BOUND('',#175,.T.);
#149=FACE_OUTER_BOUND('',#176,.T.);
#150=FACE_OUTER_BOUND('',#177,.T.);
#151=FACE_OUTER_BOUND('',#178,.T.);
#152=FACE_OUTER_BOUND('',#179,.T.);
#153=FACE_OUTER_BOUND('',#180,.T.);
#154=FACE_OUTER_BOUND('',#181,.T.);
#155=EDGE_LOOP('',(#301));
#156=EDGE_LOOP('',(#302));
#157=EDGE_LOOP('',(#303,#304,#305,#306));
#158=EDGE_LOOP('',(#307,#308,#309,#310));
#159=EDGE_LOOP('',(#311,#312,#313,#314,#315,#316,#317,#318,#319,#320));
#160=EDGE_LOOP('',(#321,#322,#323));
#161=EDGE_LOOP('',(#324,#325,#326,#327,#328,#329,#330,#331,#332,#333));
#162=EDGE_LOOP('',(#334,#335,#336,#337,#338,#339,#340,#341,#342,#343));
#163=EDGE_LOOP('',(#344,#345,#346));
#164=EDGE_LOOP('',(#347,#348,#349,#350,#351,#352,#353,#354,#355,#356));
#165=EDGE_LOOP('',(#357,#358,#359,#360));
#166=EDGE_LOOP('',(#361,#362,#363,#364,#365,#366,#367,#368));
#167=EDGE_LOOP('',(#369));
#168=EDGE_LOOP('',(#370,#371,#372,#373,#374));
#169=EDGE_LOOP('',(#375,#376,#377,#378));
#170=EDGE_LOOP('',(#379,#380,#381,#382,#383));
#171=EDGE_LOOP('',(#384,#385,#386,#387));
#172=EDGE_LOOP('',(#388,#389,#390,#391));
#173=EDGE_LOOP('',(#392,#393,#394));
#174=EDGE_LOOP('',(#395,#396,#397,#398));
#175=EDGE_LOOP('',(#399,#400,#401,#402,#403));
#176=EDGE_LOOP('',(#404,#405,#406,#407));
#177=EDGE_LOOP('',(#408,#409,#410,#411));
#178=EDGE_LOOP('',(#412,#413,#414));
#179=EDGE_LOOP('',(#415,#416,#417,#418,#419));
#180=EDGE_LOOP('',(#420,#421,#422,#423));
#181=EDGE_LOOP('',(#424,#425,#426,#427,#428,#429,#430,#431));
#182=EDGE_LOOP('',(#432));
#183=CIRCLE('',#494,0.0885);
#184=CIRCLE('',#495,0.0825);
#185=CIRCLE('',#497,0.0885);
#186=CIRCLE('',#499,0.0825000000000001);
#187=CIRCLE('',#503,0.25);
#188=CIRCLE('',#506,0.25);
#189=CIRCLE('',#509,0.25);
#190=CIRCLE('',#513,0.25);
#191=VERTEX_POINT('',#670);
#192=VERTEX_POINT('',#672);
#193=VERTEX_POINT('',#675);
#194=VERTEX_POINT('',#679);
#195=VERTEX_POINT('',#683);
#196=VERTEX_POINT('',#684);
#197=VERTEX_POINT('',#686);
#198=VERTEX_POINT('',#688);
#199=VERTEX_POINT('',#690);
#200=VERTEX_POINT('',#692);
#201=VERTEX_POINT('',#694);
#202=VERTEX_POINT('',#696);
#203=VERTEX_POINT('',#698);
#204=VERTEX_POINT('',#700);
#205=VERTEX_POINT('',#704);
#206=VERTEX_POINT('',#708);
#207=VERTEX_POINT('',#710);
#208=VERTEX_POINT('',#712);
#209=VERTEX_POINT('',#714);
#210=VERTEX_POINT('',#716);
#211=VERTEX_POINT('',#718);
#212=VERTEX_POINT('',#720);
#213=VERTEX_POINT('',#724);
#214=VERTEX_POINT('',#726);
#215=VERTEX_POINT('',#728);
#216=VERTEX_POINT('',#730);
#217=VERTEX_POINT('',#732);
#218=VERTEX_POINT('',#734);
#219=VERTEX_POINT('',#736);
#220=VERTEX_POINT('',#738);
#221=VERTEX_POINT('',#742);
#222=VERTEX_POINT('',#746);
#223=VERTEX_POINT('',#748);
#224=VERTEX_POINT('',#750);
#225=VERTEX_POINT('',#753);
#226=VERTEX_POINT('',#755);
#227=VERTEX_POINT('',#759);
#228=VERTEX_POINT('',#763);
#229=VERTEX_POINT('',#765);
#230=VERTEX_POINT('',#768);
#231=VERTEX_POINT('',#772);
#232=VERTEX_POINT('',#777);
#233=VERTEX_POINT('',#781);
#234=VERTEX_POINT('',#792);
#235=EDGE_CURVE('',#191,#191,#183,.T.);
#236=EDGE_CURVE('',#192,#192,#184,.T.);
#237=EDGE_CURVE('',#193,#193,#185,.T.);
#238=EDGE_CURVE('',#193,#191,#23,.T.);
#239=EDGE_CURVE('',#192,#194,#24,.T.);
#240=EDGE_CURVE('',#194,#194,#186,.T.);
#241=EDGE_CURVE('',#195,#196,#15,.T.);
#242=EDGE_CURVE('',#196,#197,#25,.T.);
#243=EDGE_CURVE('',#197,#198,#16,.T.);
#244=EDGE_CURVE('',#198,#199,#187,.T.);
#245=EDGE_CURVE('',#199,#200,#26,.T.);
#246=EDGE_CURVE('',#201,#200,#17,.T.);
#247=EDGE_CURVE('',#201,#202,#27,.F.);
#248=EDGE_CURVE('',#203,#202,#18,.T.);
#249=EDGE_CURVE('',#203,#204,#28,.T.);
#250=EDGE_CURVE('',#204,#195,#188,.T.);
#251=EDGE_CURVE('',#205,#199,#29,.T.);
#252=EDGE_CURVE('',#200,#205,#30,.F.);
#253=EDGE_CURVE('',#206,#198,#31,.T.);
#254=EDGE_CURVE('',#206,#207,#32,.T.);
#255=EDGE_CURVE('',#208,#207,#33,.T.);
#256=EDGE_CURVE('',#209,#208,#189,.T.);
#257=EDGE_CURVE('',#209,#210,#34,.T.);
#258=EDGE_CURVE('',#211,#210,#35,.T.);
#259=EDGE_CURVE('',#212,#211,#36,.T.);
#260=EDGE_CURVE('',#205,#212,#37,.T.);
#261=EDGE_CURVE('',#208,#213,#19,.T.);
#262=EDGE_CURVE('',#213,#214,#38,.T.);
#263=EDGE_CURVE('',#214,#215,#20,.T.);
#264=EDGE_CURVE('',#215,#216,#190,.T.);
#265=EDGE_CURVE('',#216,#217,#39,.T.);
#266=EDGE_CURVE('',#218,#217,#21,.T.);
#267=EDGE_CURVE('',#218,#219,#40,.F.);
#268=EDGE_CURVE('',#220,#219,#22,.T.);
#269=EDGE_CURVE('',#220,#209,#41,.T.);
#270=EDGE_CURVE('',#221,#216,#42,.T.);
#271=EDGE_CURVE('',#217,#221,#43,.F.);
#272=EDGE_CURVE('',#204,#222,#44,.T.);
#273=EDGE_CURVE('',#223,#222,#45,.T.);
#274=EDGE_CURVE('',#224,#223,#46,.T.);
#275=EDGE_CURVE('',#221,#224,#47,.T.);
#276=EDGE_CURVE('',#225,#215,#48,.T.);
#277=EDGE_CURVE('',#225,#226,#49,.T.);
#278=EDGE_CURVE('',#195,#226,#50,.T.);
#279=EDGE_CURVE('',#207,#227,#51,.T.);
#280=EDGE_CURVE('',#227,#213,#52,.T.);
#281=EDGE_CURVE('',#228,#206,#53,.T.);
#282=EDGE_CURVE('',#229,#228,#54,.T.);
#283=EDGE_CURVE('',#226,#229,#55,.T.);
#284=EDGE_CURVE('',#230,#225,#56,.T.);
#285=EDGE_CURVE('',#227,#230,#57,.T.);
#286=EDGE_CURVE('',#231,#211,#58,.T.);
#287=EDGE_CURVE('',#210,#220,#59,.F.);
#288=EDGE_CURVE('',#219,#231,#60,.F.);
#289=EDGE_CURVE('',#232,#218,#61,.T.);
#290=EDGE_CURVE('',#231,#232,#62,.T.);
#291=EDGE_CURVE('',#212,#233,#63,.T.);
#292=EDGE_CURVE('',#233,#201,#64,.T.);
#293=EDGE_CURVE('',#197,#228,#65,.T.);
#294=EDGE_CURVE('',#229,#196,#66,.T.);
#295=EDGE_CURVE('',#222,#203,#67,.F.);
#296=EDGE_CURVE('',#234,#223,#68,.T.);
#297=EDGE_CURVE('',#202,#234,#69,.F.);
#298=EDGE_CURVE('',#234,#233,#70,.T.);
#299=EDGE_CURVE('',#214,#230,#71,.T.);
#300=EDGE_CURVE('',#224,#232,#72,.T.);
#301=ORIENTED_EDGE('',*,*,#235,.F.);
#302=ORIENTED_EDGE('',*,*,#236,.T.);
#303=ORIENTED_EDGE('',*,*,#237,.F.);
#304=ORIENTED_EDGE('',*,*,#238,.T.);
#305=ORIENTED_EDGE('',*,*,#235,.T.);
#306=ORIENTED_EDGE('',*,*,#238,.F.);
#307=ORIENTED_EDGE('',*,*,#236,.F.);
#308=ORIENTED_EDGE('',*,*,#239,.T.);
#309=ORIENTED_EDGE('',*,*,#240,.F.);
#310=ORIENTED_EDGE('',*,*,#239,.F.);
#311=ORIENTED_EDGE('',*,*,#241,.T.);
#312=ORIENTED_EDGE('',*,*,#242,.T.);
#313=ORIENTED_EDGE('',*,*,#243,.T.);
#314=ORIENTED_EDGE('',*,*,#244,.T.);
#315=ORIENTED_EDGE('',*,*,#245,.T.);
#316=ORIENTED_EDGE('',*,*,#246,.F.);
#317=ORIENTED_EDGE('',*,*,#247,.T.);
#318=ORIENTED_EDGE('',*,*,#248,.F.);
#319=ORIENTED_EDGE('',*,*,#249,.T.);
#320=ORIENTED_EDGE('',*,*,#250,.T.);
#321=ORIENTED_EDGE('',*,*,#245,.F.);
#322=ORIENTED_EDGE('',*,*,#251,.F.);
#323=ORIENTED_EDGE('',*,*,#252,.F.);
#324=ORIENTED_EDGE('',*,*,#244,.F.);
#325=ORIENTED_EDGE('',*,*,#253,.F.);
#326=ORIENTED_EDGE('',*,*,#254,.T.);
#327=ORIENTED_EDGE('',*,*,#255,.F.);
#328=ORIENTED_EDGE('',*,*,#256,.F.);
#329=ORIENTED_EDGE('',*,*,#257,.T.);
#330=ORIENTED_EDGE('',*,*,#258,.F.);
#331=ORIENTED_EDGE('',*,*,#259,.F.);
#332=ORIENTED_EDGE('',*,*,#260,.F.);
#333=ORIENTED_EDGE('',*,*,#251,.T.);
#334=ORIENTED_EDGE('',*,*,#261,.T.);
#335=ORIENTED_EDGE('',*,*,#262,.T.);
#336=ORIENTED_EDGE('',*,*,#263,.T.);
#337=ORIENTED_EDGE('',*,*,#264,.T.);
#338=ORIENTED_EDGE('',*,*,#265,.T.);
#339=ORIENTED_EDGE('',*,*,#266,.F.);
#340=ORIENTED_EDGE('',*,*,#267,.T.);
#341=ORIENTED_EDGE('',*,*,#268,.F.);
#342=ORIENTED_EDGE('',*,*,#269,.T.);
#343=ORIENTED_EDGE('',*,*,#256,.T.);
#344=ORIENTED_EDGE('',*,*,#265,.F.);
#345=ORIENTED_EDGE('',*,*,#270,.F.);
#346=ORIENTED_EDGE('',*,*,#271,.F.);
#347=ORIENTED_EDGE('',*,*,#250,.F.);
#348=ORIENTED_EDGE('',*,*,#272,.T.);
#349=ORIENTED_EDGE('',*,*,#273,.F.);
#350=ORIENTED_EDGE('',*,*,#274,.F.);
#351=ORIENTED_EDGE('',*,*,#275,.F.);
#352=ORIENTED_EDGE('',*,*,#270,.T.);
#353=ORIENTED_EDGE('',*,*,#264,.F.);
#354=ORIENTED_EDGE('',*,*,#276,.F.);
#355=ORIENTED_EDGE('',*,*,#277,.T.);
#356=ORIENTED_EDGE('',*,*,#278,.F.);
#357=ORIENTED_EDGE('',*,*,#261,.F.);
#358=ORIENTED_EDGE('',*,*,#255,.T.);
#359=ORIENTED_EDGE('',*,*,#279,.T.);
#360=ORIENTED_EDGE('',*,*,#280,.T.);
#361=ORIENTED_EDGE('',*,*,#279,.F.);
#362=ORIENTED_EDGE('',*,*,#254,.F.);
#363=ORIENTED_EDGE('',*,*,#281,.F.);
#364=ORIENTED_EDGE('',*,*,#282,.F.);
#365=ORIENTED_EDGE('',*,*,#283,.F.);
#366=ORIENTED_EDGE('',*,*,#277,.F.);
#367=ORIENTED_EDGE('',*,*,#284,.F.);
#368=ORIENTED_EDGE('',*,*,#285,.F.);
#369=ORIENTED_EDGE('',*,*,#237,.T.);
#370=ORIENTED_EDGE('',*,*,#286,.T.);
#371=ORIENTED_EDGE('',*,*,#258,.T.);
#372=ORIENTED_EDGE('',*,*,#287,.T.);
#373=ORIENTED_EDGE('',*,*,#268,.T.);
#374=ORIENTED_EDGE('',*,*,#288,.T.);
#375=ORIENTED_EDGE('',*,*,#288,.F.);
#376=ORIENTED_EDGE('',*,*,#267,.F.);
#377=ORIENTED_EDGE('',*,*,#289,.F.);
#378=ORIENTED_EDGE('',*,*,#290,.F.);
#379=ORIENTED_EDGE('',*,*,#291,.T.);
#380=ORIENTED_EDGE('',*,*,#292,.T.);
#381=ORIENTED_EDGE('',*,*,#246,.T.);
#382=ORIENTED_EDGE('',*,*,#252,.T.);
#383=ORIENTED_EDGE('',*,*,#260,.T.);
#384=ORIENTED_EDGE('',*,*,#243,.F.);
#385=ORIENTED_EDGE('',*,*,#293,.T.);
#386=ORIENTED_EDGE('',*,*,#281,.T.);
#387=ORIENTED_EDGE('',*,*,#253,.T.);
#388=ORIENTED_EDGE('',*,*,#242,.F.);
#389=ORIENTED_EDGE('',*,*,#294,.F.);
#390=ORIENTED_EDGE('',*,*,#282,.T.);
#391=ORIENTED_EDGE('',*,*,#293,.F.);
#392=ORIENTED_EDGE('',*,*,#249,.F.);
#393=ORIENTED_EDGE('',*,*,#295,.F.);
#394=ORIENTED_EDGE('',*,*,#272,.F.);
#395=ORIENTED_EDGE('',*,*,#241,.F.);
#396=ORIENTED_EDGE('',*,*,#278,.T.);
#397=ORIENTED_EDGE('',*,*,#283,.T.);
#398=ORIENTED_EDGE('',*,*,#294,.T.);
#399=ORIENTED_EDGE('',*,*,#296,.T.);
#400=ORIENTED_EDGE('',*,*,#273,.T.);
#401=ORIENTED_EDGE('',*,*,#295,.T.);
#402=ORIENTED_EDGE('',*,*,#248,.T.);
#403=ORIENTED_EDGE('',*,*,#297,.T.);
#404=ORIENTED_EDGE('',*,*,#292,.F.);
#405=ORIENTED_EDGE('',*,*,#298,.F.);
#406=ORIENTED_EDGE('',*,*,#297,.F.);
#407=ORIENTED_EDGE('',*,*,#247,.F.);
#408=ORIENTED_EDGE('',*,*,#263,.F.);
#409=ORIENTED_EDGE('',*,*,#299,.T.);
#410=ORIENTED_EDGE('',*,*,#284,.T.);
#411=ORIENTED_EDGE('',*,*,#276,.T.);
#412=ORIENTED_EDGE('',*,*,#269,.F.);
#413=ORIENTED_EDGE('',*,*,#287,.F.);
#414=ORIENTED_EDGE('',*,*,#257,.F.);
#415=ORIENTED_EDGE('',*,*,#300,.T.);
#416=ORIENTED_EDGE('',*,*,#289,.T.);
#417=ORIENTED_EDGE('',*,*,#266,.T.);
#418=ORIENTED_EDGE('',*,*,#271,.T.);
#419=ORIENTED_EDGE('',*,*,#275,.T.);
#420=ORIENTED_EDGE('',*,*,#262,.F.);
#421=ORIENTED_EDGE('',*,*,#280,.F.);
#422=ORIENTED_EDGE('',*,*,#285,.T.);
#423=ORIENTED_EDGE('',*,*,#299,.F.);
#424=ORIENTED_EDGE('',*,*,#286,.F.);
#425=ORIENTED_EDGE('',*,*,#290,.T.);
#426=ORIENTED_EDGE('',*,*,#300,.F.);
#427=ORIENTED_EDGE('',*,*,#274,.T.);
#428=ORIENTED_EDGE('',*,*,#296,.F.);
#429=ORIENTED_EDGE('',*,*,#298,.T.);
#430=ORIENTED_EDGE('',*,*,#291,.F.);
#431=ORIENTED_EDGE('',*,*,#259,.T.);
#432=ORIENTED_EDGE('',*,*,#240,.T.);
#433=PLANE('',#493);
#434=PLANE('',#507);
#435=PLANE('',#508);
#436=PLANE('',#516);
#437=PLANE('',#517);
#438=PLANE('',#518);
#439=PLANE('',#519);
#440=PLANE('',#520);
#441=PLANE('',#521);
#442=PLANE('',#522);
#443=PLANE('',#523);
#444=PLANE('',#524);
#445=PLANE('',#525);
#446=PLANE('',#526);
#447=PLANE('',#527);
#448=PLANE('',#528);
#449=PLANE('',#529);
#450=PLANE('',#530);
#451=PLANE('',#531);
#452=PLANE('',#532);
#453=PLANE('',#533);
#454=ADVANCED_FACE('',(#130,#127),#433,.F.);
#455=ADVANCED_FACE('',(#131),#123,.F.);
#456=ADVANCED_FACE('',(#132),#124,.F.);
#457=ADVANCED_FACE('',(#133),#125,.T.);
#458=ADVANCED_FACE('',(#134),#434,.F.);
#459=ADVANCED_FACE('',(#135),#435,.T.);
#460=ADVANCED_FACE('',(#136),#126,.T.);
#461=ADVANCED_FACE('',(#137),#436,.F.);
#462=ADVANCED_FACE('',(#138),#437,.T.);
#463=ADVANCED_FACE('',(#139),#438,.T.);
#464=ADVANCED_FACE('',(#140,#128),#439,.F.);
#465=ADVANCED_FACE('',(#141),#440,.T.);
#466=ADVANCED_FACE('',(#142),#441,.F.);
#467=ADVANCED_FACE('',(#143),#442,.T.);
#468=ADVANCED_FACE('',(#144),#443,.T.);
#469=ADVANCED_FACE('',(#145),#444,.T.);
#470=ADVANCED_FACE('',(#146),#445,.F.);
#471=ADVANCED_FACE('',(#147),#446,.T.);
#472=ADVANCED_FACE('',(#148),#447,.T.);
#473=ADVANCED_FACE('',(#149),#448,.F.);
#474=ADVANCED_FACE('',(#150),#449,.T.);
#475=ADVANCED_FACE('',(#151),#450,.F.);
#476=ADVANCED_FACE('',(#152),#451,.T.);
#477=ADVANCED_FACE('',(#153),#452,.T.);
#478=ADVANCED_FACE('',(#154,#129),#453,.T.);
#479=CLOSED_SHELL('',(#454,#455,#456,#457,#458,#459,#460,#461,#462,#463,
#464,#465,#466,#467,#468,#469,#470,#471,#472,#473,#474,#475,#476,#477,#478));
#480=DERIVED_UNIT_ELEMENT(#482,1.);
#481=DERIVED_UNIT_ELEMENT(#811,-3.);
#482=(
MASS_UNIT()
NAMED_UNIT(*)
SI_UNIT(.KILO.,.GRAM.)
);
#483=DERIVED_UNIT((#480,#481));
#484=MEASURE_REPRESENTATION_ITEM('density measure',
POSITIVE_RATIO_MEASURE(7850.),#483);
#485=PROPERTY_DEFINITION_REPRESENTATION(#490,#487);
#486=PROPERTY_DEFINITION_REPRESENTATION(#491,#488);
#487=REPRESENTATION('material name',(#489),#806);
#488=REPRESENTATION('density',(#484),#806);
#489=DESCRIPTIVE_REPRESENTATION_ITEM('Steel','Steel');
#490=PROPERTY_DEFINITION('material property','material name',#819);
#491=PROPERTY_DEFINITION('material property','density of part',#819);
#492=AXIS2_PLACEMENT_3D('',#668,#534,#535);
#493=AXIS2_PLACEMENT_3D('',#669,#536,#537);
#494=AXIS2_PLACEMENT_3D('',#671,#538,#539);
#495=AXIS2_PLACEMENT_3D('',#673,#540,#541);
#496=AXIS2_PLACEMENT_3D('',#674,#542,#543);
#497=AXIS2_PLACEMENT_3D('',#676,#544,#545);
#498=AXIS2_PLACEMENT_3D('',#678,#547,#548);
#499=AXIS2_PLACEMENT_3D('',#681,#550,#551);
#500=AXIS2_PLACEMENT_3D('',#682,#552,#553);
#501=AXIS2_PLACEMENT_3D('',#685,#554,#555);
#502=AXIS2_PLACEMENT_3D('',#689,#557,#558);
#503=AXIS2_PLACEMENT_3D('',#691,#559,#560);
#504=AXIS2_PLACEMENT_3D('',#695,#562,#563);
#505=AXIS2_PLACEMENT_3D('',#699,#565,#566);
#506=AXIS2_PLACEMENT_3D('',#702,#568,#569);
#507=AXIS2_PLACEMENT_3D('',#703,#570,#571);
#508=AXIS2_PLACEMENT_3D('',#707,#574,#575);
#509=AXIS2_PLACEMENT_3D('',#715,#579,#580);
#510=AXIS2_PLACEMENT_3D('',#723,#585,#586);
#511=AXIS2_PLACEMENT_3D('',#725,#587,#588);
#512=AXIS2_PLACEMENT_3D('',#729,#590,#591);
#513=AXIS2_PLACEMENT_3D('',#731,#592,#593);
#514=AXIS2_PLACEMENT_3D('',#735,#595,#596);
#515=AXIS2_PLACEMENT_3D('',#739,#598,#599);
#516=AXIS2_PLACEMENT_3D('',#741,#601,#602);
#517=AXIS2_PLACEMENT_3D('',#745,#605,#606);
#518=AXIS2_PLACEMENT_3D('',#758,#614,#615);
#519=AXIS2_PLACEMENT_3D('',#762,#618,#619);
#520=AXIS2_PLACEMENT_3D('',#771,#625,#626);
#521=AXIS2_PLACEMENT_3D('',#776,#630,#631);
#522=AXIS2_PLACEMENT_3D('',#780,#634,#635);
#523=AXIS2_PLACEMENT_3D('',#784,#638,#639);
#524=AXIS2_PLACEMENT_3D('',#786,#641,#642);
#525=AXIS2_PLACEMENT_3D('',#788,#644,#645);
#526=AXIS2_PLACEMENT_3D('',#790,#647,#648);
#527=AXIS2_PLACEMENT_3D('',#791,#649,#650);
#528=AXIS2_PLACEMENT_3D('',#795,#653,#654);
#529=AXIS2_PLACEMENT_3D('',#797,#656,#657);
#530=AXIS2_PLACEMENT_3D('',#799,#659,#660);
#531=AXIS2_PLACEMENT_3D('',#800,#661,#662);
#532=AXIS2_PLACEMENT_3D('',#802,#664,#665);
#533=AXIS2_PLACEMENT_3D('',#803,#666,#667);
#534=DIRECTION('axis',(0.,0.,1.));
#535=DIRECTION('refdir',(1.,0.,0.));
#536=DIRECTION('center_axis',(0.,0.,1.));
#537=DIRECTION('ref_axis',(-1.,0.,0.));
#538=DIRECTION('center_axis',(0.,0.,1.));
#539=DIRECTION('ref_axis',(-1.,0.,0.));
#540=DIRECTION('center_axis',(0.,0.,1.));
#541=DIRECTION('ref_axis',(-1.,0.,0.));
#542=DIRECTION('center_axis',(0.,0.,1.));
#543=DIRECTION('ref_axis',(-1.,0.,0.));
#544=DIRECTION('center_axis',(0.,0.,1.));
#545=DIRECTION('ref_axis',(-1.,0.,0.));
#546=DIRECTION('',(0.,0.,1.));
#547=DIRECTION('center_axis',(0.,0.,1.));
#548=DIRECTION('ref_axis',(-1.,0.,0.));
#549=DIRECTION('',(0.,0.,1.));
#550=DIRECTION('center_axis',(0.,0.,-1.));
#551=DIRECTION('ref_axis',(-1.,0.,0.));
#552=DIRECTION('center_axis',(1.,0.,0.));
#553=DIRECTION('ref_axis',(0.,0.707106781186548,0.707106781186547));
#554=DIRECTION('center_axis',(-0.707106781186549,-0.707106781186547,0.));
#555=DIRECTION('ref_axis',(-0.707106781186547,0.707106781186548,-1.23629327455416E-16));
#556=DIRECTION('',(-1.,0.,0.));
#557=DIRECTION('center_axis',(0.707106781186548,-0.707106781186548,0.));
#558=DIRECTION('ref_axis',(0.707106781186547,0.707106781186547,6.18146637277077E-17));
#559=DIRECTION('center_axis',(1.,3.305679065223E-33,0.));
#560=DIRECTION('ref_axis',(0.,0.707106781186548,0.707106781186547));
#561=DIRECTION('',(1.,0.,0.));
#562=DIRECTION('center_axis',(0.707106781186547,-0.707106781186548,0.));
#563=DIRECTION('ref_axis',(0.707106781186548,0.707106781186547,0.));
#564=DIRECTION('',(-1.,0.,0.));
#565=DIRECTION('center_axis',(-0.707106781186549,-0.707106781186546,0.));
#566=DIRECTION('ref_axis',(-0.707106781186546,0.707106781186549,0.));
#567=DIRECTION('',(1.,0.,0.));
#568=DIRECTION('center_axis',(-1.,0.,0.));
#569=DIRECTION('ref_axis',(0.,0.707106781186548,0.707106781186547));
#570=DIRECTION('center_axis',(0.,0.,-1.));
#571=DIRECTION('ref_axis',(-1.,0.,0.));
#572=DIRECTION('',(-3.305679065223E-33,1.,0.));
#573=DIRECTION('',(0.707106781186548,0.707106781186547,0.));
#574=DIRECTION('center_axis',(-1.,-3.305679065223E-33,0.));
#575=DIRECTION('ref_axis',(3.305679065223E-33,-1.,0.));
#576=DIRECTION('',(0.,0.,1.));
#577=DIRECTION('',(3.305679065223E-33,-1.,0.));
#578=DIRECTION('',(0.,0.,-1.));
#579=DIRECTION('center_axis',(1.,3.305679065223E-33,0.));
#580=DIRECTION('ref_axis',(0.,-0.707106781186548,0.707106781186548));
#581=DIRECTION('',(-3.305679065223E-33,1.,0.));
#582=DIRECTION('',(0.,0.,-1.));
#583=DIRECTION('',(3.305679065223E-33,-1.,0.));
#584=DIRECTION('',(0.,0.,1.));
#585=DIRECTION('center_axis',(-1.,0.,0.));
#586=DIRECTION('ref_axis',(0.,-0.707106781186548,0.707106781186548));
#587=DIRECTION('center_axis',(0.707106781186548,0.707106781186548,0.));
#588=DIRECTION('ref_axis',(0.707106781186547,-0.707106781186547,0.));
#589=DIRECTION('',(1.,0.,0.));
#590=DIRECTION('center_axis',(-0.707106781186548,0.707106781186547,0.));
#591=DIRECTION('ref_axis',(-0.707106781186547,-0.707106781186548,0.));
#592=DIRECTION('center_axis',(-1.,0.,0.));
#593=DIRECTION('ref_axis',(0.,-0.707106781186548,0.707106781186548));
#594=DIRECTION('',(-1.,0.,0.));
#595=DIRECTION('center_axis',(-0.707106781186548,0.707106781186547,0.));
#596=DIRECTION('ref_axis',(-0.707106781186547,-0.707106781186548,0.));
#597=DIRECTION('',(1.,0.,0.));
#598=DIRECTION('center_axis',(0.707106781186548,0.707106781186547,0.));
#599=DIRECTION('ref_axis',(0.707106781186547,-0.707106781186548,0.));
#600=DIRECTION('',(-1.,0.,0.));
#601=DIRECTION('center_axis',(0.,0.,-1.));
#602=DIRECTION('ref_axis',(-1.,0.,0.));
#603=DIRECTION('',(0.,-1.,0.));
#604=DIRECTION('',(-0.707106781186547,-0.707106781186548,0.));
#605=DIRECTION('center_axis',(1.,0.,0.));
#606=DIRECTION('ref_axis',(0.,1.,0.));
#607=DIRECTION('',(0.,-1.,0.));
#608=DIRECTION('',(0.,0.,-1.));
#609=DIRECTION('',(0.,1.,0.));
#610=DIRECTION('',(0.,0.,1.));
#611=DIRECTION('',(0.,0.,1.));
#612=DIRECTION('',(0.,1.,0.));
#613=DIRECTION('',(0.,0.,-1.));
#614=DIRECTION('center_axis',(-0.707106781186548,-0.707106781186548,0.));
#615=DIRECTION('ref_axis',(0.,0.,1.));
#616=DIRECTION('',(0.707106781186548,-0.707106781186548,0.));
#617=DIRECTION('',(0.,0.,1.));
#618=DIRECTION('center_axis',(0.,0.,1.));
#619=DIRECTION('ref_axis',(1.,0.,0.));
#620=DIRECTION('',(-0.707106781186548,-0.707106781186548,0.));
#621=DIRECTION('',(-1.,0.,0.));
#622=DIRECTION('',(-0.707106781186547,0.707106781186549,0.));
#623=DIRECTION('',(0.707106781186547,0.707106781186548,0.));
#624=DIRECTION('',(1.,0.,0.));
#625=DIRECTION('center_axis',(-0.707106781186548,-0.707106781186547,0.));
#626=DIRECTION('ref_axis',(0.,0.,1.));
#627=DIRECTION('',(-0.707106781186547,0.707106781186548,0.));
#628=DIRECTION('',(-0.707106781186547,0.707106781186548,0.));
#629=DIRECTION('',(0.,0.,-1.));
#630=DIRECTION('center_axis',(0.,1.,0.));
#631=DIRECTION('ref_axis',(1.,0.,0.));
#632=DIRECTION('',(0.,0.,-1.));
#633=DIRECTION('',(1.,0.,0.));
#634=DIRECTION('center_axis',(-0.707106781186547,0.707106781186548,0.));
#635=DIRECTION('ref_axis',(0.,0.,1.));
#636=DIRECTION('',(0.707106781186548,0.707106781186547,0.));
#637=DIRECTION('',(0.,0.,-1.));
#638=DIRECTION('center_axis',(-0.707106781186548,0.707106781186548,0.));
#639=DIRECTION('ref_axis',(0.,0.,1.));
#640=DIRECTION('',(0.,0.,-1.));
#641=DIRECTION('center_axis',(0.,1.,0.));
#642=DIRECTION('ref_axis',(-1.,0.,0.));
#643=DIRECTION('',(0.,0.,1.));
#644=DIRECTION('center_axis',(0.,0.,-1.));
#645=DIRECTION('ref_axis',(-1.,0.,0.));
#646=DIRECTION('',(0.707106781186546,-0.707106781186549,0.));
#647=DIRECTION('center_axis',(0.707106781186549,0.707106781186547,0.));
#648=DIRECTION('ref_axis',(0.,0.,-1.));
#649=DIRECTION('center_axis',(0.707106781186549,0.707106781186546,0.));
#650=DIRECTION('ref_axis',(0.,0.,-1.));
#651=DIRECTION('',(0.707106781186546,-0.707106781186549,0.));
#652=DIRECTION('',(0.,0.,-1.));
#653=DIRECTION('center_axis',(0.,-1.,0.));
#654=DIRECTION('ref_axis',(-1.,0.,0.));
#655=DIRECTION('',(-1.,0.,0.));
#656=DIRECTION('center_axis',(0.707106781186548,-0.707106781186547,0.));
#657=DIRECTION('ref_axis',(0.,0.,-1.));
#658=DIRECTION('',(0.,0.,-1.));
#659=DIRECTION('center_axis',(0.,0.,-1.));
#660=DIRECTION('ref_axis',(-1.,0.,0.));
#661=DIRECTION('center_axis',(0.707106781186548,-0.707106781186547,0.));
#662=DIRECTION('ref_axis',(0.,0.,-1.));
#663=DIRECTION('',(-0.707106781186547,-0.707106781186548,0.));
#664=DIRECTION('center_axis',(0.,-1.,0.));
#665=DIRECTION('ref_axis',(1.,0.,0.));
#666=DIRECTION('center_axis',(0.,0.,1.));
#667=DIRECTION('ref_axis',(1.,0.,0.));
#668=CARTESIAN_POINT('',(0.,0.,0.));
#669=CARTESIAN_POINT('Origin',(0.875,0.367,0.633));
#670=CARTESIAN_POINT('',(0.9635,0.367,0.633));
#671=CARTESIAN_POINT('Origin',(0.875,0.367,0.633));
#672=CARTESIAN_POINT('',(0.9575,0.367,0.633));
#673=CARTESIAN_POINT('Origin',(0.875,0.367,0.633));
#674=CARTESIAN_POINT('Origin',(0.875,0.367,0.3165));
#675=CARTESIAN_POINT('',(0.9635,0.367,0.));
#676=CARTESIAN_POINT('Origin',(0.875,0.367,0.));
#677=CARTESIAN_POINT('',(0.9635,0.367,0.3165));
#678=CARTESIAN_POINT('Origin',(0.875,0.367,0.4065));
#679=CARTESIAN_POINT('',(0.9575,0.367,0.813));
#680=CARTESIAN_POINT('',(0.9575,0.367,0.4065));
#681=CARTESIAN_POINT('Origin',(0.875,0.367,0.813));
#682=CARTESIAN_POINT('Origin',(1.3125,0.484,0.125));
#683=CARTESIAN_POINT('',(1.75,0.609,0.34150635094611));
#684=CARTESIAN_POINT('',(1.625,0.734,0.125));
#685=CARTESIAN_POINT('Origin',(1.875,0.484,0.125));
#686=CARTESIAN_POINT('',(0.125,0.734,0.125));
#687=CARTESIAN_POINT('',(1.3125,0.734,0.125));
#688=CARTESIAN_POINT('',(0.,0.609,0.34150635094611));
#689=CARTESIAN_POINT('Origin',(-0.125,0.484,0.125));
#690=CARTESIAN_POINT('',(7.0989457925664E-34,0.484,0.375));
#691=CARTESIAN_POINT('Origin',(0.,0.484,0.125));
#692=CARTESIAN_POINT('',(0.0159999999999997,0.484,0.375));
#693=CARTESIAN_POINT('',(1.3125,0.484,0.375));
#694=CARTESIAN_POINT('',(0.125,0.593,0.349986666271581));
#695=CARTESIAN_POINT('Origin',(0.0159999999999997,0.484,0.125));
#696=CARTESIAN_POINT('',(1.625,0.593,0.349986666271581));
#697=CARTESIAN_POINT('',(1.3125,0.593,0.349986666271581));
#698=CARTESIAN_POINT('',(1.734,0.484,0.375));
#699=CARTESIAN_POINT('Origin',(1.734,0.484,0.125));
#700=CARTESIAN_POINT('',(1.75,0.484,0.375));
#701=CARTESIAN_POINT('',(1.3125,0.484,0.375));
#702=CARTESIAN_POINT('Origin',(1.75,0.484,0.125));
#703=CARTESIAN_POINT('Origin',(0.875,0.6635,0.375));
#704=CARTESIAN_POINT('',(0.,0.468,0.375));
#705=CARTESIAN_POINT('',(0.,0.69875,0.375));
#706=CARTESIAN_POINT('',(0.298875,0.766875,0.375));
#707=CARTESIAN_POINT('Origin',(-2.42636843387368E-33,0.734,0.));
#708=CARTESIAN_POINT('',(-2.01315855072081E-33,0.609,0.));
#709=CARTESIAN_POINT('',(0.,0.609,0.));
#710=CARTESIAN_POINT('',(-4.13209883152875E-34,0.125,0.));
#711=CARTESIAN_POINT('',(-2.42636843387368E-33,0.734,0.));
#712=CARTESIAN_POINT('',(0.,0.125,0.34150635094611));
#713=CARTESIAN_POINT('',(0.,0.125,0.));
#714=CARTESIAN_POINT('',(5.03289637680202E-34,0.25,0.375));
#715=CARTESIAN_POINT('Origin',(0.,0.25,0.125));
#716=CARTESIAN_POINT('',(0.,0.266,0.375));
#717=CARTESIAN_POINT('',(0.,0.40225,0.375));
#718=CARTESIAN_POINT('',(-8.79310631349318E-34,0.266,0.813));
#719=CARTESIAN_POINT('',(0.,0.266,0.4065));
#720=CARTESIAN_POINT('',(-1.54705780252437E-33,0.468,0.813));
#721=CARTESIAN_POINT('',(-2.42636843387368E-33,0.734,0.813));
#722=CARTESIAN_POINT('',(0.,0.468,0.4065));
#723=CARTESIAN_POINT('Origin',(0.4375,0.25,0.125));
#724=CARTESIAN_POINT('',(0.125,0.,0.125));
#725=CARTESIAN_POINT('Origin',(-0.125,0.25,0.125));
#726=CARTESIAN_POINT('',(1.625,0.,0.125));
#727=CARTESIAN_POINT('',(0.4375,0.,0.125));
#728=CARTESIAN_POINT('',(1.75,0.125,0.34150635094611));
#729=CARTESIAN_POINT('Origin',(1.875,0.25,0.125));
#730=CARTESIAN_POINT('',(1.75,0.25,0.375));
#731=CARTESIAN_POINT('Origin',(1.75,0.25,0.125));
#732=CARTESIAN_POINT('',(1.734,0.25,0.375));
#733=CARTESIAN_POINT('',(0.4375,0.25,0.375));
#734=CARTESIAN_POINT('',(1.625,0.141,0.349986666271582));
#735=CARTESIAN_POINT('Origin',(1.734,0.25,0.125));
#736=CARTESIAN_POINT('',(0.125,0.141,0.349986666271582));
#737=CARTESIAN_POINT('',(0.4375,0.141,0.349986666271582));
#738=CARTESIAN_POINT('',(0.0159999999999999,0.25,0.375));
#739=CARTESIAN_POINT('Origin',(0.0159999999999999,0.25,0.125));
#740=CARTESIAN_POINT('',(0.4375,0.25,0.375));
#741=CARTESIAN_POINT('Origin',(0.875,0.0705,0.375));
#742=CARTESIAN_POINT('',(1.75,0.266,0.375));
#743=CARTESIAN_POINT('',(1.75,0.03525,0.375));
#744=CARTESIAN_POINT('',(1.451125,-0.0328750000000001,0.375));
#745=CARTESIAN_POINT('Origin',(1.75,0.,0.));
#746=CARTESIAN_POINT('',(1.75,0.468,0.375));
#747=CARTESIAN_POINT('',(1.75,0.33175,0.375));
#748=CARTESIAN_POINT('',(1.75,0.468,0.813));
#749=CARTESIAN_POINT('',(1.75,0.468,0.4065));
#750=CARTESIAN_POINT('',(1.75,0.266,0.813));
#751=CARTESIAN_POINT('',(1.75,0.,0.813));
#752=CARTESIAN_POINT('',(1.75,0.266,0.4065));
#753=CARTESIAN_POINT('',(1.75,0.125,0.));
#754=CARTESIAN_POINT('',(1.75,0.125,0.));
#755=CARTESIAN_POINT('',(1.75,0.609,0.));
#756=CARTESIAN_POINT('',(1.75,0.,0.));
#757=CARTESIAN_POINT('',(1.75,0.609,0.));
#758=CARTESIAN_POINT('Origin',(0.0625,0.0625,0.));
#759=CARTESIAN_POINT('',(0.125,0.,0.));
#760=CARTESIAN_POINT('',(0.1895,-0.0645000000000001,0.));
#761=CARTESIAN_POINT('',(0.125,0.,0.));
#762=CARTESIAN_POINT('Origin',(0.875,0.367,0.));
#763=CARTESIAN_POINT('',(0.125,0.734,0.));
#764=CARTESIAN_POINT('',(0.1895,0.7985,0.));
#765=CARTESIAN_POINT('',(1.625,0.734,0.));
#766=CARTESIAN_POINT('',(1.75,0.734,0.));
#767=CARTESIAN_POINT('',(1.5605,0.7985,0.));
#768=CARTESIAN_POINT('',(1.625,0.,0.));
#769=CARTESIAN_POINT('',(1.5605,-0.0645000000000001,0.));
#770=CARTESIAN_POINT('',(0.,0.,0.));
#771=CARTESIAN_POINT('Origin',(0.0625,0.2035,0.4065));
#772=CARTESIAN_POINT('',(0.125,0.141,0.813));
#773=CARTESIAN_POINT('',(0.22475,0.0412499999999999,0.813));
#774=CARTESIAN_POINT('',(0.298875,-0.0328750000000001,0.375));
#775=CARTESIAN_POINT('',(0.125,0.141,0.60975));
#776=CARTESIAN_POINT('Origin',(0.,0.141,0.813));
#777=CARTESIAN_POINT('',(1.625,0.141,0.813));
#778=CARTESIAN_POINT('',(1.625,0.141,0.4065));
#779=CARTESIAN_POINT('',(0.4375,0.141,0.813));
#780=CARTESIAN_POINT('Origin',(0.0625,0.5305,0.4065));
#781=CARTESIAN_POINT('',(0.125,0.593,0.813));
#782=CARTESIAN_POINT('',(0.22475,0.69275,0.813));
#783=CARTESIAN_POINT('',(0.125,0.593,0.4065));
#784=CARTESIAN_POINT('Origin',(0.0625,0.6715,0.));
#785=CARTESIAN_POINT('',(0.125,0.734,0.));
#786=CARTESIAN_POINT('Origin',(1.75,0.734,0.));
#787=CARTESIAN_POINT('',(1.625,0.734,0.));
#788=CARTESIAN_POINT('Origin',(0.875,0.6635,0.375));
#789=CARTESIAN_POINT('',(1.451125,0.766875,0.375));
#790=CARTESIAN_POINT('Origin',(1.6875,0.6715,0.));
#791=CARTESIAN_POINT('Origin',(1.6875,0.5305,0.4065));
#792=CARTESIAN_POINT('',(1.625,0.593,0.813));
#793=CARTESIAN_POINT('',(1.52525,0.69275,0.813));
#794=CARTESIAN_POINT('',(1.625,0.593,0.60975));
#795=CARTESIAN_POINT('Origin',(1.75,0.593,0.813));
#796=CARTESIAN_POINT('',(1.3125,0.593,0.813));
#797=CARTESIAN_POINT('Origin',(1.6875,0.0625,0.));
#798=CARTESIAN_POINT('',(1.625,0.,0.));
#799=CARTESIAN_POINT('Origin',(0.875,0.0705,0.375));
#800=CARTESIAN_POINT('Origin',(1.6875,0.2035,0.4065));
#801=CARTESIAN_POINT('',(1.52525,0.0412499999999999,0.813));
#802=CARTESIAN_POINT('Origin',(0.,0.,0.));
#803=CARTESIAN_POINT('Origin',(0.875,0.367,0.813));
#804=UNCERTAINTY_MEASURE_WITH_UNIT(LENGTH_MEASURE(0.000393700787401575),
#809,'DISTANCE_ACCURACY_VALUE',
'Maximum model space distance between geometric entities at asserted c
onnectivities');
#805=UNCERTAINTY_MEASURE_WITH_UNIT(LENGTH_MEASURE(0.000393700787401575),
#809,'DISTANCE_ACCURACY_VALUE',
'Maximum model space distance between geometric entities at asserted c
onnectivities');
#806=(
GEOMETRIC_REPRESENTATION_CONTEXT(3)
GLOBAL_UNCERTAINTY_ASSIGNED_CONTEXT((#804))
GLOBAL_UNIT_ASSIGNED_CONTEXT((#809,#813,#814))
REPRESENTATION_CONTEXT('','3D')
);
#807=(
GEOMETRIC_REPRESENTATION_CONTEXT(3)
GLOBAL_UNCERTAINTY_ASSIGNED_CONTEXT((#805))
GLOBAL_UNIT_ASSIGNED_CONTEXT((#809,#813,#814))
REPRESENTATION_CONTEXT('','3D')
);
#808=DIMENSIONAL_EXPONENTS(1.,0.,0.,0.,0.,0.,0.);
#809=(
CONVERSION_BASED_UNIT('inch',#812)
LENGTH_UNIT()
NAMED_UNIT(#808)
);
#810=(
LENGTH_UNIT()
NAMED_UNIT(*)
SI_UNIT(.MILLI.,.METRE.)
);
#811=(
LENGTH_UNIT()
NAMED_UNIT(*)
SI_UNIT($,.METRE.)
);
#812=LENGTH_MEASURE_WITH_UNIT(LENGTH_MEASURE(25.4),#810);
#813=(
NAMED_UNIT(*)
PLANE_ANGLE_UNIT()
SI_UNIT($,.RADIAN.)
);
#814=(
NAMED_UNIT(*)
SI_UNIT($,.STERADIAN.)
SOLID_ANGLE_UNIT()
);
#815=SHAPE_DEFINITION_REPRESENTATION(#816,#817);
#816=PRODUCT_DEFINITION_SHAPE('',$,#819);
#817=SHAPE_REPRESENTATION('',(#492),#806);
#818=PRODUCT_DEFINITION_CONTEXT('part definition',#823,'design');
#819=PRODUCT_DEFINITION('Pin Slider','Pin Slider',#820,#818);
#820=PRODUCT_DEFINITION_FORMATION('',$,#825);
#821=PRODUCT_RELATED_PRODUCT_CATEGORY('Pin Slider','Pin Slider',(#825));
#822=APPLICATION_PROTOCOL_DEFINITION('international standard',
'automotive_design',2009,#823);
#823=APPLICATION_CONTEXT(
'Core Data for Automotive Mechanical Design Process');
#824=PRODUCT_CONTEXT('part definition',#823,'mechanical');
#825=PRODUCT('Pin Slider','Pin Slider',$,(#824));
#826=PRESENTATION_STYLE_ASSIGNMENT((#827));
#827=SURFACE_STYLE_USAGE(.BOTH.,#828);
#828=SURFACE_SIDE_STYLE('',(#829));
#829=SURFACE_STYLE_FILL_AREA(#830);
#830=FILL_AREA_STYLE('Steel - Satin',(#831));
#831=FILL_AREA_STYLE_COLOUR('Steel - Satin',#832);
#832=COLOUR_RGB('Steel - Satin',0.627450980392157,0.627450980392157,0.627450980392157);
ENDSEC;
END-ISO-10303-21;
