ISO-10303-21;
HEADER;
/* Generated by software containing ST-Developer
 * from STEP Tools, Inc. (www.steptools.com) 
 */

FILE_DESCRIPTION(
/* description */ (''),
/* implementation_level */ '2;1');

FILE_NAME(
/* name */ 'Screw Slider Block.step',
/* time_stamp */ '2026-09-21T23:45:34-04:00',
/* author */ (''),
/* organization */ (''),
/* preprocessor_version */ 'ST-DEVELOPER v20.2',
/* originating_system */ 'Autodesk Translation Framework v15.15.0.0',
/* authorisation */ '');

FILE_SCHEMA (('AUTOMOTIVE_DESIGN { 1 0 10303 214 3 1 1 }'));
ENDSEC;

DATA;
#10=MECHANICAL_DESIGN_GEOMETRIC_PRESENTATION_REPRESENTATION('',(#13),#826);
#11=SHAPE_REPRESENTATION_RELATIONSHIP('SRR','None',#836,#12);
#12=ADVANCED_BREP_SHAPE_REPRESENTATION('',(#14),#825);
#13=STYLED_ITEM('',(#845),#14);
#14=MANIFOLD_SOLID_BREP('Body1',#514);
#15=CYLINDRICAL_SURFACE('',#536,0.0885);
#16=FACE_BOUND('',#54,.T.);
#17=FACE_BOUND('',#61,.T.);
#18=FACE_BOUND('',#68,.T.);
#19=CIRCLE('',#535,0.0885);
#20=CIRCLE('',#537,0.0885);
#21=FACE_OUTER_BOUND('',#47,.T.);
#22=FACE_OUTER_BOUND('',#48,.T.);
#23=FACE_OUTER_BOUND('',#49,.T.);
#24=FACE_OUTER_BOUND('',#50,.T.);
#25=FACE_OUTER_BOUND('',#51,.T.);
#26=FACE_OUTER_BOUND('',#52,.T.);
#27=FACE_OUTER_BOUND('',#53,.T.);
#28=FACE_OUTER_BOUND('',#55,.T.);
#29=FACE_OUTER_BOUND('',#56,.T.);
#30=FACE_OUTER_BOUND('',#57,.T.);
#31=FACE_OUTER_BOUND('',#58,.T.);
#32=FACE_OUTER_BOUND('',#59,.T.);
#33=FACE_OUTER_BOUND('',#60,.T.);
#34=FACE_OUTER_BOUND('',#62,.T.);
#35=FACE_OUTER_BOUND('',#63,.T.);
#36=FACE_OUTER_BOUND('',#64,.T.);
#37=FACE_OUTER_BOUND('',#65,.T.);
#38=FACE_OUTER_BOUND('',#66,.T.);
#39=FACE_OUTER_BOUND('',#67,.T.);
#40=FACE_OUTER_BOUND('',#69,.T.);
#41=FACE_OUTER_BOUND('',#70,.T.);
#42=FACE_OUTER_BOUND('',#71,.T.);
#43=FACE_OUTER_BOUND('',#72,.T.);
#44=FACE_OUTER_BOUND('',#73,.T.);
#45=FACE_OUTER_BOUND('',#74,.T.);
#46=FACE_OUTER_BOUND('',#75,.T.);
#47=EDGE_LOOP('',(#325,#326,#327,#328));
#48=EDGE_LOOP('',(#329,#330,#331,#332));
#49=EDGE_LOOP('',(#333,#334,#335,#336));
#50=EDGE_LOOP('',(#337,#338,#339,#340));
#51=EDGE_LOOP('',(#341,#342,#343,#344));
#52=EDGE_LOOP('',(#345,#346,#347,#348));
#53=EDGE_LOOP('',(#349,#350,#351,#352,#353,#354));
#54=EDGE_LOOP('',(#355));
#55=EDGE_LOOP('',(#356,#357,#358,#359));
#56=EDGE_LOOP('',(#360,#361,#362,#363));
#57=EDGE_LOOP('',(#364,#365,#366,#367,#368,#369,#370,#371));
#58=EDGE_LOOP('',(#372,#373,#374,#375,#376,#377,#378,#379));
#59=EDGE_LOOP('',(#380,#381,#382,#383));
#60=EDGE_LOOP('',(#384,#385,#386,#387,#388,#389,#390,#391));
#61=EDGE_LOOP('',(#392));
#62=EDGE_LOOP('',(#393,#394,#395,#396));
#63=EDGE_LOOP('',(#397,#398,#399,#400));
#64=EDGE_LOOP('',(#401,#402,#403,#404));
#65=EDGE_LOOP('',(#405,#406,#407,#408,#409,#410,#411,#412));
#66=EDGE_LOOP('',(#413,#414,#415,#416));
#67=EDGE_LOOP('',(#417,#418,#419,#420,#421,#422,#423,#424));
#68=EDGE_LOOP('',(#425,#426,#427,#428,#429,#430));
#69=EDGE_LOOP('',(#431,#432,#433,#434,#435,#436,#437,#438));
#70=EDGE_LOOP('',(#439,#440,#441,#442));
#71=EDGE_LOOP('',(#443,#444,#445,#446));
#72=EDGE_LOOP('',(#447,#448,#449,#450));
#73=EDGE_LOOP('',(#451,#452,#453,#454));
#74=EDGE_LOOP('',(#455,#456,#457,#458));
#75=EDGE_LOOP('',(#459,#460,#461,#462));
#76=LINE('',#685,#143);
#77=LINE('',#687,#144);
#78=LINE('',#689,#145);
#79=LINE('',#690,#146);
#80=LINE('',#693,#147);
#81=LINE('',#695,#148);
#82=LINE('',#696,#149);
#83=LINE('',#699,#150);
#84=LINE('',#701,#151);
#85=LINE('',#702,#152);
#86=LINE('',#705,#153);
#87=LINE('',#707,#154);
#88=LINE('',#708,#155);
#89=LINE('',#711,#156);
#90=LINE('',#713,#157);
#91=LINE('',#714,#158);
#92=LINE('',#716,#159);
#93=LINE('',#717,#160);
#94=LINE('',#724,#161);
#95=LINE('',#728,#162);
#96=LINE('',#730,#163);
#97=LINE('',#732,#164);
#98=LINE('',#733,#165);
#99=LINE('',#736,#166);
#100=LINE('',#738,#167);
#101=LINE('',#740,#168);
#102=LINE('',#742,#169);
#103=LINE('',#744,#170);
#104=LINE('',#746,#171);
#105=LINE('',#747,#172);
#106=LINE('',#750,#173);
#107=LINE('',#752,#174);
#108=LINE('',#754,#175);
#109=LINE('',#756,#176);
#110=LINE('',#758,#177);
#111=LINE('',#759,#178);
#112=LINE('',#762,#179);
#113=LINE('',#763,#180);
#114=LINE('',#766,#181);
#115=LINE('',#768,#182);
#116=LINE('',#770,#183);
#117=LINE('',#772,#184);
#118=LINE('',#774,#185);
#119=LINE('',#775,#186);
#120=LINE('',#778,#187);
#121=LINE('',#779,#188);
#122=LINE('',#782,#189);
#123=LINE('',#783,#190);
#124=LINE('',#786,#191);
#125=LINE('',#788,#192);
#126=LINE('',#789,#193);
#127=LINE('',#792,#194);
#128=LINE('',#794,#195);
#129=LINE('',#796,#196);
#130=LINE('',#797,#197);
#131=LINE('',#800,#198);
#132=LINE('',#802,#199);
#133=LINE('',#803,#200);
#134=LINE('',#805,#201);
#135=LINE('',#807,#202);
#136=LINE('',#809,#203);
#137=LINE('',#810,#204);
#138=LINE('',#812,#205);
#139=LINE('',#813,#206);
#140=LINE('',#814,#207);
#141=LINE('',#816,#208);
#142=LINE('',#818,#209);
#143=VECTOR('',#560,0.393700787401575);
#144=VECTOR('',#561,0.393700787401575);
#145=VECTOR('',#562,0.393700787401575);
#146=VECTOR('',#563,0.393700787401575);
#147=VECTOR('',#566,0.393700787401575);
#148=VECTOR('',#567,0.393700787401575);
#149=VECTOR('',#568,0.393700787401575);
#150=VECTOR('',#571,0.393700787401575);
#151=VECTOR('',#572,0.393700787401575);
#152=VECTOR('',#573,0.393700787401575);
#153=VECTOR('',#576,0.393700787401575);
#154=VECTOR('',#577,0.393700787401575);
#155=VECTOR('',#578,0.393700787401575);
#156=VECTOR('',#581,0.393700787401575);
#157=VECTOR('',#582,0.393700787401575);
#158=VECTOR('',#583,0.393700787401575);
#159=VECTOR('',#586,0.393700787401575);
#160=VECTOR('',#587,0.393700787401575);
#161=VECTOR('',#596,0.0885);
#162=VECTOR('',#599,0.393700787401575);
#163=VECTOR('',#600,0.393700787401575);
#164=VECTOR('',#601,0.393700787401575);
#165=VECTOR('',#602,0.393700787401575);
#166=VECTOR('',#605,0.393700787401575);
#167=VECTOR('',#606,0.393700787401575);
#168=VECTOR('',#607,0.393700787401575);
#169=VECTOR('',#608,0.393700787401575);
#170=VECTOR('',#609,0.393700787401575);
#171=VECTOR('',#610,0.393700787401575);
#172=VECTOR('',#611,0.393700787401575);
#173=VECTOR('',#614,0.393700787401575);
#174=VECTOR('',#615,0.393700787401575);
#175=VECTOR('',#616,0.393700787401575);
#176=VECTOR('',#617,0.393700787401575);
#177=VECTOR('',#618,0.393700787401575);
#178=VECTOR('',#619,0.393700787401575);
#179=VECTOR('',#622,0.393700787401575);
#180=VECTOR('',#623,0.393700787401575);
#181=VECTOR('',#626,0.393700787401575);
#182=VECTOR('',#627,0.393700787401575);
#183=VECTOR('',#628,0.393700787401575);
#184=VECTOR('',#629,0.393700787401575);
#185=VECTOR('',#630,0.393700787401575);
#186=VECTOR('',#631,0.393700787401575);
#187=VECTOR('',#634,0.393700787401575);
#188=VECTOR('',#635,0.393700787401575);
#189=VECTOR('',#638,0.393700787401575);
#190=VECTOR('',#639,0.393700787401575);
#191=VECTOR('',#642,0.393700787401575);
#192=VECTOR('',#643,0.393700787401575);
#193=VECTOR('',#644,0.393700787401575);
#194=VECTOR('',#647,0.393700787401575);
#195=VECTOR('',#648,0.393700787401575);
#196=VECTOR('',#649,0.393700787401575);
#197=VECTOR('',#650,0.393700787401575);
#198=VECTOR('',#653,0.393700787401575);
#199=VECTOR('',#654,0.393700787401575);
#200=VECTOR('',#655,0.393700787401575);
#201=VECTOR('',#658,0.393700787401575);
#202=VECTOR('',#659,0.393700787401575);
#203=VECTOR('',#660,0.393700787401575);
#204=VECTOR('',#661,0.393700787401575);
#205=VECTOR('',#664,0.393700787401575);
#206=VECTOR('',#665,0.393700787401575);
#207=VECTOR('',#666,0.393700787401575);
#208=VECTOR('',#669,0.393700787401575);
#209=VECTOR('',#672,0.393700787401575);
#210=VERTEX_POINT('',#683);
#211=VERTEX_POINT('',#684);
#212=VERTEX_POINT('',#686);
#213=VERTEX_POINT('',#688);
#214=VERTEX_POINT('',#692);
#215=VERTEX_POINT('',#694);
#216=VERTEX_POINT('',#698);
#217=VERTEX_POINT('',#700);
#218=VERTEX_POINT('',#704);
#219=VERTEX_POINT('',#706);
#220=VERTEX_POINT('',#710);
#221=VERTEX_POINT('',#712);
#222=VERTEX_POINT('',#719);
#223=VERTEX_POINT('',#722);
#224=VERTEX_POINT('',#726);
#225=VERTEX_POINT('',#727);
#226=VERTEX_POINT('',#729);
#227=VERTEX_POINT('',#731);
#228=VERTEX_POINT('',#735);
#229=VERTEX_POINT('',#737);
#230=VERTEX_POINT('',#739);
#231=VERTEX_POINT('',#741);
#232=VERTEX_POINT('',#743);
#233=VERTEX_POINT('',#745);
#234=VERTEX_POINT('',#749);
#235=VERTEX_POINT('',#751);
#236=VERTEX_POINT('',#753);
#237=VERTEX_POINT('',#755);
#238=VERTEX_POINT('',#757);
#239=VERTEX_POINT('',#761);
#240=VERTEX_POINT('',#765);
#241=VERTEX_POINT('',#767);
#242=VERTEX_POINT('',#769);
#243=VERTEX_POINT('',#771);
#244=VERTEX_POINT('',#773);
#245=VERTEX_POINT('',#777);
#246=VERTEX_POINT('',#781);
#247=VERTEX_POINT('',#785);
#248=VERTEX_POINT('',#787);
#249=VERTEX_POINT('',#791);
#250=VERTEX_POINT('',#793);
#251=VERTEX_POINT('',#795);
#252=VERTEX_POINT('',#799);
#253=VERTEX_POINT('',#801);
#254=VERTEX_POINT('',#806);
#255=VERTEX_POINT('',#808);
#256=EDGE_CURVE('',#210,#211,#76,.T.);
#257=EDGE_CURVE('',#210,#212,#77,.T.);
#258=EDGE_CURVE('',#212,#213,#78,.T.);
#259=EDGE_CURVE('',#211,#213,#79,.T.);
#260=EDGE_CURVE('',#214,#210,#80,.T.);
#261=EDGE_CURVE('',#214,#215,#81,.T.);
#262=EDGE_CURVE('',#215,#212,#82,.T.);
#263=EDGE_CURVE('',#216,#214,#83,.T.);
#264=EDGE_CURVE('',#216,#217,#84,.T.);
#265=EDGE_CURVE('',#217,#215,#85,.T.);
#266=EDGE_CURVE('',#218,#216,#86,.T.);
#267=EDGE_CURVE('',#218,#219,#87,.T.);
#268=EDGE_CURVE('',#219,#217,#88,.T.);
#269=EDGE_CURVE('',#220,#218,#89,.T.);
#270=EDGE_CURVE('',#220,#221,#90,.T.);
#271=EDGE_CURVE('',#221,#219,#91,.T.);
#272=EDGE_CURVE('',#211,#220,#92,.T.);
#273=EDGE_CURVE('',#213,#221,#93,.T.);
#274=EDGE_CURVE('',#222,#222,#19,.T.);
#275=EDGE_CURVE('',#223,#223,#20,.T.);
#276=EDGE_CURVE('',#223,#222,#94,.T.);
#277=EDGE_CURVE('',#224,#225,#95,.T.);
#278=EDGE_CURVE('',#225,#226,#96,.T.);
#279=EDGE_CURVE('',#226,#227,#97,.T.);
#280=EDGE_CURVE('',#227,#224,#98,.T.);
#281=EDGE_CURVE('',#228,#224,#99,.T.);
#282=EDGE_CURVE('',#229,#228,#100,.F.);
#283=EDGE_CURVE('',#230,#229,#101,.T.);
#284=EDGE_CURVE('',#231,#230,#102,.F.);
#285=EDGE_CURVE('',#232,#231,#103,.T.);
#286=EDGE_CURVE('',#233,#232,#104,.T.);
#287=EDGE_CURVE('',#225,#233,#105,.T.);
#288=EDGE_CURVE('',#234,#227,#106,.T.);
#289=EDGE_CURVE('',#235,#234,#107,.T.);
#290=EDGE_CURVE('',#235,#236,#108,.T.);
#291=EDGE_CURVE('',#237,#236,#109,.T.);
#292=EDGE_CURVE('',#238,#237,#110,.T.);
#293=EDGE_CURVE('',#228,#238,#111,.T.);
#294=EDGE_CURVE('',#238,#239,#112,.T.);
#295=EDGE_CURVE('',#239,#229,#113,.T.);
#296=EDGE_CURVE('',#240,#237,#114,.T.);
#297=EDGE_CURVE('',#240,#241,#115,.T.);
#298=EDGE_CURVE('',#242,#241,#116,.T.);
#299=EDGE_CURVE('',#242,#243,#117,.T.);
#300=EDGE_CURVE('',#244,#243,#118,.T.);
#301=EDGE_CURVE('',#244,#239,#119,.T.);
#302=EDGE_CURVE('',#236,#245,#120,.F.);
#303=EDGE_CURVE('',#245,#240,#121,.T.);
#304=EDGE_CURVE('',#245,#246,#122,.T.);
#305=EDGE_CURVE('',#241,#246,#123,.T.);
#306=EDGE_CURVE('',#247,#235,#124,.T.);
#307=EDGE_CURVE('',#234,#248,#125,.T.);
#308=EDGE_CURVE('',#248,#247,#126,.T.);
#309=EDGE_CURVE('',#249,#247,#127,.T.);
#310=EDGE_CURVE('',#250,#249,#128,.T.);
#311=EDGE_CURVE('',#251,#250,#129,.T.);
#312=EDGE_CURVE('',#246,#251,#130,.F.);
#313=EDGE_CURVE('',#232,#252,#131,.T.);
#314=EDGE_CURVE('',#252,#253,#132,.T.);
#315=EDGE_CURVE('',#253,#233,#133,.T.);
#316=EDGE_CURVE('',#226,#253,#134,.T.);
#317=EDGE_CURVE('',#252,#254,#135,.T.);
#318=EDGE_CURVE('',#255,#254,#136,.T.);
#319=EDGE_CURVE('',#255,#248,#137,.T.);
#320=EDGE_CURVE('',#243,#231,#138,.T.);
#321=EDGE_CURVE('',#251,#242,#139,.T.);
#322=EDGE_CURVE('',#254,#250,#140,.T.);
#323=EDGE_CURVE('',#249,#255,#141,.T.);
#324=EDGE_CURVE('',#230,#244,#142,.T.);
#325=ORIENTED_EDGE('',*,*,#256,.F.);
#326=ORIENTED_EDGE('',*,*,#257,.T.);
#327=ORIENTED_EDGE('',*,*,#258,.T.);
#328=ORIENTED_EDGE('',*,*,#259,.F.);
#329=ORIENTED_EDGE('',*,*,#260,.F.);
#330=ORIENTED_EDGE('',*,*,#261,.T.);
#331=ORIENTED_EDGE('',*,*,#262,.T.);
#332=ORIENTED_EDGE('',*,*,#257,.F.);
#333=ORIENTED_EDGE('',*,*,#263,.F.);
#334=ORIENTED_EDGE('',*,*,#264,.T.);
#335=ORIENTED_EDGE('',*,*,#265,.T.);
#336=ORIENTED_EDGE('',*,*,#261,.F.);
#337=ORIENTED_EDGE('',*,*,#266,.F.);
#338=ORIENTED_EDGE('',*,*,#267,.T.);
#339=ORIENTED_EDGE('',*,*,#268,.T.);
#340=ORIENTED_EDGE('',*,*,#264,.F.);
#341=ORIENTED_EDGE('',*,*,#269,.F.);
#342=ORIENTED_EDGE('',*,*,#270,.T.);
#343=ORIENTED_EDGE('',*,*,#271,.T.);
#344=ORIENTED_EDGE('',*,*,#267,.F.);
#345=ORIENTED_EDGE('',*,*,#272,.F.);
#346=ORIENTED_EDGE('',*,*,#259,.T.);
#347=ORIENTED_EDGE('',*,*,#273,.T.);
#348=ORIENTED_EDGE('',*,*,#270,.F.);
#349=ORIENTED_EDGE('',*,*,#273,.F.);
#350=ORIENTED_EDGE('',*,*,#258,.F.);
#351=ORIENTED_EDGE('',*,*,#262,.F.);
#352=ORIENTED_EDGE('',*,*,#265,.F.);
#353=ORIENTED_EDGE('',*,*,#268,.F.);
#354=ORIENTED_EDGE('',*,*,#271,.F.);
#355=ORIENTED_EDGE('',*,*,#274,.F.);
#356=ORIENTED_EDGE('',*,*,#275,.F.);
#357=ORIENTED_EDGE('',*,*,#276,.T.);
#358=ORIENTED_EDGE('',*,*,#274,.T.);
#359=ORIENTED_EDGE('',*,*,#276,.F.);
#360=ORIENTED_EDGE('',*,*,#277,.T.);
#361=ORIENTED_EDGE('',*,*,#278,.T.);
#362=ORIENTED_EDGE('',*,*,#279,.T.);
#363=ORIENTED_EDGE('',*,*,#280,.T.);
#364=ORIENTED_EDGE('',*,*,#277,.F.);
#365=ORIENTED_EDGE('',*,*,#281,.F.);
#366=ORIENTED_EDGE('',*,*,#282,.F.);
#367=ORIENTED_EDGE('',*,*,#283,.F.);
#368=ORIENTED_EDGE('',*,*,#284,.F.);
#369=ORIENTED_EDGE('',*,*,#285,.F.);
#370=ORIENTED_EDGE('',*,*,#286,.F.);
#371=ORIENTED_EDGE('',*,*,#287,.F.);
#372=ORIENTED_EDGE('',*,*,#280,.F.);
#373=ORIENTED_EDGE('',*,*,#288,.F.);
#374=ORIENTED_EDGE('',*,*,#289,.F.);
#375=ORIENTED_EDGE('',*,*,#290,.T.);
#376=ORIENTED_EDGE('',*,*,#291,.F.);
#377=ORIENTED_EDGE('',*,*,#292,.F.);
#378=ORIENTED_EDGE('',*,*,#293,.F.);
#379=ORIENTED_EDGE('',*,*,#281,.T.);
#380=ORIENTED_EDGE('',*,*,#294,.T.);
#381=ORIENTED_EDGE('',*,*,#295,.T.);
#382=ORIENTED_EDGE('',*,*,#282,.T.);
#383=ORIENTED_EDGE('',*,*,#293,.T.);
#384=ORIENTED_EDGE('',*,*,#294,.F.);
#385=ORIENTED_EDGE('',*,*,#292,.T.);
#386=ORIENTED_EDGE('',*,*,#296,.F.);
#387=ORIENTED_EDGE('',*,*,#297,.T.);
#388=ORIENTED_EDGE('',*,*,#298,.F.);
#389=ORIENTED_EDGE('',*,*,#299,.T.);
#390=ORIENTED_EDGE('',*,*,#300,.F.);
#391=ORIENTED_EDGE('',*,*,#301,.T.);
#392=ORIENTED_EDGE('',*,*,#275,.T.);
#393=ORIENTED_EDGE('',*,*,#296,.T.);
#394=ORIENTED_EDGE('',*,*,#291,.T.);
#395=ORIENTED_EDGE('',*,*,#302,.T.);
#396=ORIENTED_EDGE('',*,*,#303,.T.);
#397=ORIENTED_EDGE('',*,*,#303,.F.);
#398=ORIENTED_EDGE('',*,*,#304,.T.);
#399=ORIENTED_EDGE('',*,*,#305,.F.);
#400=ORIENTED_EDGE('',*,*,#297,.F.);
#401=ORIENTED_EDGE('',*,*,#306,.T.);
#402=ORIENTED_EDGE('',*,*,#289,.T.);
#403=ORIENTED_EDGE('',*,*,#307,.T.);
#404=ORIENTED_EDGE('',*,*,#308,.T.);
#405=ORIENTED_EDGE('',*,*,#306,.F.);
#406=ORIENTED_EDGE('',*,*,#309,.F.);
#407=ORIENTED_EDGE('',*,*,#310,.F.);
#408=ORIENTED_EDGE('',*,*,#311,.F.);
#409=ORIENTED_EDGE('',*,*,#312,.F.);
#410=ORIENTED_EDGE('',*,*,#304,.F.);
#411=ORIENTED_EDGE('',*,*,#302,.F.);
#412=ORIENTED_EDGE('',*,*,#290,.F.);
#413=ORIENTED_EDGE('',*,*,#286,.T.);
#414=ORIENTED_EDGE('',*,*,#313,.T.);
#415=ORIENTED_EDGE('',*,*,#314,.T.);
#416=ORIENTED_EDGE('',*,*,#315,.T.);
#417=ORIENTED_EDGE('',*,*,#279,.F.);
#418=ORIENTED_EDGE('',*,*,#316,.T.);
#419=ORIENTED_EDGE('',*,*,#314,.F.);
#420=ORIENTED_EDGE('',*,*,#317,.T.);
#421=ORIENTED_EDGE('',*,*,#318,.F.);
#422=ORIENTED_EDGE('',*,*,#319,.T.);
#423=ORIENTED_EDGE('',*,*,#307,.F.);
#424=ORIENTED_EDGE('',*,*,#288,.T.);
#425=ORIENTED_EDGE('',*,*,#256,.T.);
#426=ORIENTED_EDGE('',*,*,#272,.T.);
#427=ORIENTED_EDGE('',*,*,#269,.T.);
#428=ORIENTED_EDGE('',*,*,#266,.T.);
#429=ORIENTED_EDGE('',*,*,#263,.T.);
#430=ORIENTED_EDGE('',*,*,#260,.T.);
#431=ORIENTED_EDGE('',*,*,#313,.F.);
#432=ORIENTED_EDGE('',*,*,#285,.T.);
#433=ORIENTED_EDGE('',*,*,#320,.F.);
#434=ORIENTED_EDGE('',*,*,#299,.F.);
#435=ORIENTED_EDGE('',*,*,#321,.F.);
#436=ORIENTED_EDGE('',*,*,#311,.T.);
#437=ORIENTED_EDGE('',*,*,#322,.F.);
#438=ORIENTED_EDGE('',*,*,#317,.F.);
#439=ORIENTED_EDGE('',*,*,#310,.T.);
#440=ORIENTED_EDGE('',*,*,#323,.T.);
#441=ORIENTED_EDGE('',*,*,#318,.T.);
#442=ORIENTED_EDGE('',*,*,#322,.T.);
#443=ORIENTED_EDGE('',*,*,#300,.T.);
#444=ORIENTED_EDGE('',*,*,#320,.T.);
#445=ORIENTED_EDGE('',*,*,#284,.T.);
#446=ORIENTED_EDGE('',*,*,#324,.T.);
#447=ORIENTED_EDGE('',*,*,#298,.T.);
#448=ORIENTED_EDGE('',*,*,#305,.T.);
#449=ORIENTED_EDGE('',*,*,#312,.T.);
#450=ORIENTED_EDGE('',*,*,#321,.T.);
#451=ORIENTED_EDGE('',*,*,#295,.F.);
#452=ORIENTED_EDGE('',*,*,#301,.F.);
#453=ORIENTED_EDGE('',*,*,#324,.F.);
#454=ORIENTED_EDGE('',*,*,#283,.T.);
#455=ORIENTED_EDGE('',*,*,#308,.F.);
#456=ORIENTED_EDGE('',*,*,#319,.F.);
#457=ORIENTED_EDGE('',*,*,#323,.F.);
#458=ORIENTED_EDGE('',*,*,#309,.T.);
#459=ORIENTED_EDGE('',*,*,#278,.F.);
#460=ORIENTED_EDGE('',*,*,#287,.T.);
#461=ORIENTED_EDGE('',*,*,#315,.F.);
#462=ORIENTED_EDGE('',*,*,#316,.F.);
#463=PLANE('',#528);
#464=PLANE('',#529);
#465=PLANE('',#530);
#466=PLANE('',#531);
#467=PLANE('',#532);
#468=PLANE('',#533);
#469=PLANE('',#534);
#470=PLANE('',#538);
#471=PLANE('',#539);
#472=PLANE('',#540);
#473=PLANE('',#541);
#474=PLANE('',#542);
#475=PLANE('',#543);
#476=PLANE('',#544);
#477=PLANE('',#545);
#478=PLANE('',#546);
#479=PLANE('',#547);
#480=PLANE('',#548);
#481=PLANE('',#549);
#482=PLANE('',#550);
#483=PLANE('',#551);
#484=PLANE('',#552);
#485=PLANE('',#553);
#486=PLANE('',#554);
#487=PLANE('',#555);
#488=ADVANCED_FACE('',(#21),#463,.F.);
#489=ADVANCED_FACE('',(#22),#464,.F.);
#490=ADVANCED_FACE('',(#23),#465,.F.);
#491=ADVANCED_FACE('',(#24),#466,.F.);
#492=ADVANCED_FACE('',(#25),#467,.F.);
#493=ADVANCED_FACE('',(#26),#468,.F.);
#494=ADVANCED_FACE('',(#27,#16),#469,.T.);
#495=ADVANCED_FACE('',(#28),#15,.F.);
#496=ADVANCED_FACE('',(#29),#470,.T.);
#497=ADVANCED_FACE('',(#30),#471,.F.);
#498=ADVANCED_FACE('',(#31),#472,.T.);
#499=ADVANCED_FACE('',(#32),#473,.T.);
#500=ADVANCED_FACE('',(#33,#17),#474,.T.);
#501=ADVANCED_FACE('',(#34),#475,.T.);
#502=ADVANCED_FACE('',(#35),#476,.F.);
#503=ADVANCED_FACE('',(#36),#477,.T.);
#504=ADVANCED_FACE('',(#37),#478,.F.);
#505=ADVANCED_FACE('',(#38),#479,.T.);
#506=ADVANCED_FACE('',(#39,#18),#480,.F.);
#507=ADVANCED_FACE('',(#40),#481,.T.);
#508=ADVANCED_FACE('',(#41),#482,.T.);
#509=ADVANCED_FACE('',(#42),#483,.T.);
#510=ADVANCED_FACE('',(#43),#484,.T.);
#511=ADVANCED_FACE('',(#44),#485,.F.);
#512=ADVANCED_FACE('',(#45),#486,.T.);
#513=ADVANCED_FACE('',(#46),#487,.T.);
#514=CLOSED_SHELL('',(#488,#489,#490,#491,#492,#493,#494,#495,#496,#497,
#498,#499,#500,#501,#502,#503,#504,#505,#506,#507,#508,#509,#510,#511,#512,
#513));
#515=DERIVED_UNIT_ELEMENT(#517,1.);
#516=DERIVED_UNIT_ELEMENT(#830,-3.);
#517=(
MASS_UNIT()
NAMED_UNIT(*)
SI_UNIT(.KILO.,.GRAM.)
);
#518=DERIVED_UNIT((#515,#516));
#519=MEASURE_REPRESENTATION_ITEM('density measure',
POSITIVE_RATIO_MEASURE(7850.),#518);
#520=PROPERTY_DEFINITION_REPRESENTATION(#525,#522);
#521=PROPERTY_DEFINITION_REPRESENTATION(#526,#523);
#522=REPRESENTATION('material name',(#524),#825);
#523=REPRESENTATION('density',(#519),#825);
#524=DESCRIPTIVE_REPRESENTATION_ITEM('Steel','Steel');
#525=PROPERTY_DEFINITION('material property','material name',#838);
#526=PROPERTY_DEFINITION('material property','density of part',#838);
#527=AXIS2_PLACEMENT_3D('',#681,#556,#557);
#528=AXIS2_PLACEMENT_3D('',#682,#558,#559);
#529=AXIS2_PLACEMENT_3D('',#691,#564,#565);
#530=AXIS2_PLACEMENT_3D('',#697,#569,#570);
#531=AXIS2_PLACEMENT_3D('',#703,#574,#575);
#532=AXIS2_PLACEMENT_3D('',#709,#579,#580);
#533=AXIS2_PLACEMENT_3D('',#715,#584,#585);
#534=AXIS2_PLACEMENT_3D('',#718,#588,#589);
#535=AXIS2_PLACEMENT_3D('',#720,#590,#591);
#536=AXIS2_PLACEMENT_3D('',#721,#592,#593);
#537=AXIS2_PLACEMENT_3D('',#723,#594,#595);
#538=AXIS2_PLACEMENT_3D('',#725,#597,#598);
#539=AXIS2_PLACEMENT_3D('',#734,#603,#604);
#540=AXIS2_PLACEMENT_3D('',#748,#612,#613);
#541=AXIS2_PLACEMENT_3D('',#760,#620,#621);
#542=AXIS2_PLACEMENT_3D('',#764,#624,#625);
#543=AXIS2_PLACEMENT_3D('',#776,#632,#633);
#544=AXIS2_PLACEMENT_3D('',#780,#636,#637);
#545=AXIS2_PLACEMENT_3D('',#784,#640,#641);
#546=AXIS2_PLACEMENT_3D('',#790,#645,#646);
#547=AXIS2_PLACEMENT_3D('',#798,#651,#652);
#548=AXIS2_PLACEMENT_3D('',#804,#656,#657);
#549=AXIS2_PLACEMENT_3D('',#811,#662,#663);
#550=AXIS2_PLACEMENT_3D('',#815,#667,#668);
#551=AXIS2_PLACEMENT_3D('',#817,#670,#671);
#552=AXIS2_PLACEMENT_3D('',#819,#673,#674);
#553=AXIS2_PLACEMENT_3D('',#820,#675,#676);
#554=AXIS2_PLACEMENT_3D('',#821,#677,#678);
#555=AXIS2_PLACEMENT_3D('',#822,#679,#680);
#556=DIRECTION('axis',(0.,0.,1.));
#557=DIRECTION('refdir',(1.,0.,0.));
#558=DIRECTION('center_axis',(-0.866025403784438,-0.5,0.));
#559=DIRECTION('ref_axis',(0.5,-0.866025403784438,0.));
#560=DIRECTION('',(0.5,-0.866025403784438,0.));
#561=DIRECTION('',(0.,0.,1.));
#562=DIRECTION('',(0.5,-0.866025403784438,0.));
#563=DIRECTION('',(0.,0.,1.));
#564=DIRECTION('center_axis',(-0.866025403784439,0.5,0.));
#565=DIRECTION('ref_axis',(-0.5,-0.866025403784439,0.));
#566=DIRECTION('',(-0.5,-0.866025403784439,0.));
#567=DIRECTION('',(0.,0.,1.));
#568=DIRECTION('',(-0.5,-0.866025403784439,0.));
#569=DIRECTION('center_axis',(-7.84530490956536E-16,1.,0.));
#570=DIRECTION('ref_axis',(-1.,-7.84530490956536E-16,0.));
#571=DIRECTION('',(-1.,-7.84530490956536E-16,0.));
#572=DIRECTION('',(0.,0.,1.));
#573=DIRECTION('',(-1.,-7.84530490956536E-16,0.));
#574=DIRECTION('center_axis',(0.866025403784438,0.500000000000001,0.));
#575=DIRECTION('ref_axis',(-0.500000000000001,0.866025403784438,0.));
#576=DIRECTION('',(-0.500000000000001,0.866025403784438,0.));
#577=DIRECTION('',(0.,0.,1.));
#578=DIRECTION('',(-0.500000000000001,0.866025403784438,0.));
#579=DIRECTION('center_axis',(0.866025403784439,-0.499999999999999,0.));
#580=DIRECTION('ref_axis',(0.499999999999999,0.866025403784439,0.));
#581=DIRECTION('',(0.499999999999999,0.866025403784439,0.));
#582=DIRECTION('',(0.,0.,1.));
#583=DIRECTION('',(0.499999999999999,0.866025403784439,0.));
#584=DIRECTION('center_axis',(6.86464179586968E-16,-1.,0.));
#585=DIRECTION('ref_axis',(1.,6.86464179586968E-16,0.));
#586=DIRECTION('',(1.,6.86464179586968E-16,0.));
#587=DIRECTION('',(1.,6.86464179586968E-16,0.));
#588=DIRECTION('center_axis',(0.,0.,-1.));
#589=DIRECTION('ref_axis',(1.,0.,0.));
#590=DIRECTION('center_axis',(0.,0.,-1.));
#591=DIRECTION('ref_axis',(1.,0.,0.));
#592=DIRECTION('center_axis',(0.,0.,-1.));
#593=DIRECTION('ref_axis',(1.,0.,0.));
#594=DIRECTION('center_axis',(0.,0.,-1.));
#595=DIRECTION('ref_axis',(1.,0.,0.));
#596=DIRECTION('',(0.,0.,-1.));
#597=DIRECTION('center_axis',(-0.707106781186548,0.707106781186547,0.));
#598=DIRECTION('ref_axis',(0.,0.,1.));
#599=DIRECTION('',(0.707106781186547,0.707106781186548,0.));
#600=DIRECTION('',(0.,0.,-1.));
#601=DIRECTION('',(-0.707106781186547,-0.707106781186548,0.));
#602=DIRECTION('',(0.,0.,1.));
#603=DIRECTION('center_axis',(0.,0.,-1.));
#604=DIRECTION('ref_axis',(-1.,0.,0.));
#605=DIRECTION('',(0.,1.,0.));
#606=DIRECTION('',(0.707106781186548,0.707106781186548,0.));
#607=DIRECTION('',(-1.,0.,0.));
#608=DIRECTION('',(0.707106781186548,-0.707106781186547,0.));
#609=DIRECTION('',(6.12323399573677E-17,-1.,0.));
#610=DIRECTION('',(0.707106781186547,-0.707106781186548,0.));
#611=DIRECTION('',(1.,0.,0.));
#612=DIRECTION('center_axis',(-1.,0.,0.));
#613=DIRECTION('ref_axis',(0.,-1.,0.));
#614=DIRECTION('',(0.,1.,0.));
#615=DIRECTION('',(0.,0.,-1.));
#616=DIRECTION('',(0.,1.,0.));
#617=DIRECTION('',(0.,0.,-1.));
#618=DIRECTION('',(0.,-1.,0.));
#619=DIRECTION('',(0.,0.,1.));
#620=DIRECTION('center_axis',(-0.707106781186548,0.707106781186548,0.));
#621=DIRECTION('ref_axis',(0.,0.,1.));
#622=DIRECTION('',(0.707106781186548,0.707106781186548,0.));
#623=DIRECTION('',(0.,0.,-1.));
#624=DIRECTION('center_axis',(0.,0.,1.));
#625=DIRECTION('ref_axis',(1.,0.,0.));
#626=DIRECTION('',(-0.707106781186546,0.707106781186549,0.));
#627=DIRECTION('',(1.,0.,0.));
#628=DIRECTION('',(-0.707106781186547,-0.707106781186548,0.));
#629=DIRECTION('',(-6.12323399573677E-17,1.,0.));
#630=DIRECTION('',(0.707106781186548,-0.707106781186547,0.));
#631=DIRECTION('',(-1.,0.,0.));
#632=DIRECTION('center_axis',(-0.707106781186549,-0.707106781186546,0.));
#633=DIRECTION('ref_axis',(0.,0.,1.));
#634=DIRECTION('',(-0.707106781186546,0.707106781186549,0.));
#635=DIRECTION('',(0.,0.,1.));
#636=DIRECTION('center_axis',(0.,1.,0.));
#637=DIRECTION('ref_axis',(1.,0.,0.));
#638=DIRECTION('',(1.,0.,0.));
#639=DIRECTION('',(0.,0.,-1.));
#640=DIRECTION('center_axis',(-0.707106781186549,-0.707106781186546,0.));
#641=DIRECTION('ref_axis',(0.,0.,1.));
#642=DIRECTION('',(-0.707106781186546,0.707106781186549,0.));
#643=DIRECTION('',(0.707106781186546,-0.707106781186549,0.));
#644=DIRECTION('',(0.,0.,1.));
#645=DIRECTION('center_axis',(0.,0.,-1.));
#646=DIRECTION('ref_axis',(-1.,0.,0.));
#647=DIRECTION('',(-1.,0.,0.));
#648=DIRECTION('',(-0.707106781186547,-0.707106781186548,0.));
#649=DIRECTION('',(6.12323399573677E-17,-1.,0.));
#650=DIRECTION('',(-0.707106781186547,-0.707106781186548,0.));
#651=DIRECTION('center_axis',(0.707106781186548,0.707106781186547,0.));
#652=DIRECTION('ref_axis',(0.,0.,-1.));
#653=DIRECTION('',(0.,0.,-1.));
#654=DIRECTION('',(-0.707106781186547,0.707106781186548,0.));
#655=DIRECTION('',(0.,0.,1.));
#656=DIRECTION('center_axis',(0.,0.,1.));
#657=DIRECTION('ref_axis',(1.,0.,0.));
#658=DIRECTION('',(1.,0.,0.));
#659=DIRECTION('',(6.12323399573677E-17,-1.,0.));
#660=DIRECTION('',(0.707106781186547,0.707106781186548,0.));
#661=DIRECTION('',(-1.,0.,0.));
#662=DIRECTION('center_axis',(1.,6.12323399573677E-17,0.));
#663=DIRECTION('ref_axis',(-6.12323399573677E-17,1.,0.));
#664=DIRECTION('',(0.,0.,-1.));
#665=DIRECTION('',(0.,0.,1.));
#666=DIRECTION('',(0.,0.,1.));
#667=DIRECTION('center_axis',(0.707106781186548,-0.707106781186547,0.));
#668=DIRECTION('ref_axis',(0.,0.,-1.));
#669=DIRECTION('',(0.,0.,-1.));
#670=DIRECTION('center_axis',(0.707106781186547,0.707106781186548,0.));
#671=DIRECTION('ref_axis',(0.,0.,-1.));
#672=DIRECTION('',(0.,0.,1.));
#673=DIRECTION('center_axis',(0.707106781186548,-0.707106781186547,0.));
#674=DIRECTION('ref_axis',(0.,0.,-1.));
#675=DIRECTION('center_axis',(0.,-1.,0.));
#676=DIRECTION('ref_axis',(-1.,0.,0.));
#677=DIRECTION('center_axis',(0.,-1.,0.));
#678=DIRECTION('ref_axis',(1.,0.,0.));
#679=DIRECTION('center_axis',(0.,1.,0.));
#680=DIRECTION('ref_axis',(-1.,0.,0.));
#681=CARTESIAN_POINT('',(0.,0.,0.));
#682=CARTESIAN_POINT('Origin',(-1.0978572039072,0.367,0.));
#683=CARTESIAN_POINT('',(-1.0978572039072,0.367,0.));
#684=CARTESIAN_POINT('',(-0.986428601953598,0.174,0.));
#685=CARTESIAN_POINT('',(-1.0700000534188,0.31875,0.));
#686=CARTESIAN_POINT('',(-1.0978572039072,0.367,0.255));
#687=CARTESIAN_POINT('',(-1.0978572039072,0.367,0.));
#688=CARTESIAN_POINT('',(-0.986428601953598,0.174,0.255));
#689=CARTESIAN_POINT('',(-0.986428601953598,0.174,0.255));
#690=CARTESIAN_POINT('',(-0.986428601953598,0.174,0.));
#691=CARTESIAN_POINT('Origin',(-0.986428601953598,0.56,0.));
#692=CARTESIAN_POINT('',(-0.986428601953598,0.56,0.));
#693=CARTESIAN_POINT('',(-1.014285752442,0.51175,0.));
#694=CARTESIAN_POINT('',(-0.986428601953598,0.56,0.255));
#695=CARTESIAN_POINT('',(-0.986428601953598,0.56,0.));
#696=CARTESIAN_POINT('',(-1.0978572039072,0.367,0.255));
#697=CARTESIAN_POINT('Origin',(-0.763571398046402,0.56,0.));
#698=CARTESIAN_POINT('',(-0.763571398046402,0.56,0.));
#699=CARTESIAN_POINT('',(-0.819285699023201,0.56,0.));
#700=CARTESIAN_POINT('',(-0.763571398046402,0.56,0.255));
#701=CARTESIAN_POINT('',(-0.763571398046402,0.56,0.));
#702=CARTESIAN_POINT('',(-0.986428601953598,0.56,0.255));
#703=CARTESIAN_POINT('Origin',(-0.652142796092804,0.367,0.));
#704=CARTESIAN_POINT('',(-0.652142796092804,0.367,0.));
#705=CARTESIAN_POINT('',(-0.679999946581204,0.41525,0.));
#706=CARTESIAN_POINT('',(-0.652142796092804,0.367,0.255));
#707=CARTESIAN_POINT('',(-0.652142796092804,0.367,0.));
#708=CARTESIAN_POINT('',(-0.763571398046402,0.56,0.255));
#709=CARTESIAN_POINT('Origin',(-0.763571398046402,0.174,0.));
#710=CARTESIAN_POINT('',(-0.763571398046402,0.174,0.));
#711=CARTESIAN_POINT('',(-0.735714247558003,0.22225,0.));
#712=CARTESIAN_POINT('',(-0.763571398046402,0.174,0.255));
#713=CARTESIAN_POINT('',(-0.763571398046402,0.174,0.));
#714=CARTESIAN_POINT('',(-0.652142796092804,0.367,0.255));
#715=CARTESIAN_POINT('Origin',(-0.986428601953598,0.174,0.));
#716=CARTESIAN_POINT('',(-0.930714300976799,0.174,0.));
#717=CARTESIAN_POINT('',(-0.763571398046402,0.174,0.255));
#718=CARTESIAN_POINT('Origin',(-0.875,0.367,0.255));
#719=CARTESIAN_POINT('',(-0.9635,0.367,0.255));
#720=CARTESIAN_POINT('Origin',(-0.875,0.367,0.255));
#721=CARTESIAN_POINT('Origin',(-0.875,0.367,0.422));
#722=CARTESIAN_POINT('',(-0.9635,0.367,0.844));
#723=CARTESIAN_POINT('Origin',(-0.875,0.367,0.844));
#724=CARTESIAN_POINT('',(-0.9635,0.367,0.422));
#725=CARTESIAN_POINT('Origin',(-1.6875,0.6715,0.));
#726=CARTESIAN_POINT('',(-1.75,0.609,0.355));
#727=CARTESIAN_POINT('',(-1.625,0.734,0.355));
#728=CARTESIAN_POINT('',(-1.486375,0.872625,0.355));
#729=CARTESIAN_POINT('',(-1.625,0.734,0.));
#730=CARTESIAN_POINT('',(-1.625,0.734,0.));
#731=CARTESIAN_POINT('',(-1.75,0.609,0.));
#732=CARTESIAN_POINT('',(-1.5605,0.7985,0.));
#733=CARTESIAN_POINT('',(-1.75,0.609,0.));
#734=CARTESIAN_POINT('Origin',(-0.875,0.6635,0.355));
#735=CARTESIAN_POINT('',(-1.75,0.468,0.355));
#736=CARTESIAN_POINT('',(-1.75,0.69875,0.355));
#737=CARTESIAN_POINT('',(-1.625,0.593,0.355));
#738=CARTESIAN_POINT('',(-1.451125,0.766875,0.355));
#739=CARTESIAN_POINT('',(-0.125,0.593,0.355));
#740=CARTESIAN_POINT('',(-1.75,0.593,0.355));
#741=CARTESIAN_POINT('',(-2.18547839493141E-17,0.468,0.355));
#742=CARTESIAN_POINT('',(-0.298875,0.766875,0.355));
#743=CARTESIAN_POINT('',(-1.69766662531802E-17,0.609,0.355));
#744=CARTESIAN_POINT('',(0.,0.33175,0.355));
#745=CARTESIAN_POINT('',(-0.125,0.734,0.355));
#746=CARTESIAN_POINT('',(-0.263625,0.872625,0.355));
#747=CARTESIAN_POINT('',(-0.4375,0.734,0.355));
#748=CARTESIAN_POINT('Origin',(-1.75,0.734,0.));
#749=CARTESIAN_POINT('',(-1.75,0.125,0.));
#750=CARTESIAN_POINT('',(-1.75,0.,0.));
#751=CARTESIAN_POINT('',(-1.75,0.125,0.355));
#752=CARTESIAN_POINT('',(-1.75,0.125,0.));
#753=CARTESIAN_POINT('',(-1.75,0.266,0.355));
#754=CARTESIAN_POINT('',(-1.75,0.40225,0.355));
#755=CARTESIAN_POINT('',(-1.75,0.266,0.844));
#756=CARTESIAN_POINT('',(-1.75,0.266,0.422));
#757=CARTESIAN_POINT('',(-1.75,0.468,0.844));
#758=CARTESIAN_POINT('',(-1.75,0.,0.844));
#759=CARTESIAN_POINT('',(-1.75,0.468,0.422));
#760=CARTESIAN_POINT('Origin',(-1.6875,0.5305,0.422));
#761=CARTESIAN_POINT('',(-1.625,0.593,0.844));
#762=CARTESIAN_POINT('',(-1.52525,0.69275,0.844));
#763=CARTESIAN_POINT('',(-1.625,0.593,0.422));
#764=CARTESIAN_POINT('Origin',(-0.875,0.367,0.844));
#765=CARTESIAN_POINT('',(-1.625,0.141,0.844));
#766=CARTESIAN_POINT('',(-1.52525,0.0412500000000001,0.844));
#767=CARTESIAN_POINT('',(-0.125,0.141,0.844));
#768=CARTESIAN_POINT('',(-1.3125,0.141,0.844));
#769=CARTESIAN_POINT('',(-1.62878024286598E-17,0.266,0.844));
#770=CARTESIAN_POINT('',(-0.22475,0.04125,0.844));
#771=CARTESIAN_POINT('',(-2.86567351000481E-17,0.468,0.844));
#772=CARTESIAN_POINT('',(-4.49445375287079E-17,0.734,0.844));
#773=CARTESIAN_POINT('',(-0.125,0.593,0.844));
#774=CARTESIAN_POINT('',(-0.22475,0.69275,0.844));
#775=CARTESIAN_POINT('',(-0.4375,0.593,0.844));
#776=CARTESIAN_POINT('Origin',(-1.6875,0.2035,0.422));
#777=CARTESIAN_POINT('',(-1.625,0.141,0.355));
#778=CARTESIAN_POINT('',(-1.451125,-0.0328750000000001,0.355));
#779=CARTESIAN_POINT('',(-1.625,0.141,0.422));
#780=CARTESIAN_POINT('Origin',(-1.75,0.141,0.844));
#781=CARTESIAN_POINT('',(-0.125,0.141,0.355));
#782=CARTESIAN_POINT('',(-1.75,0.141,0.355));
#783=CARTESIAN_POINT('',(-0.125,0.141,0.422));
#784=CARTESIAN_POINT('Origin',(-1.6875,0.0625,0.));
#785=CARTESIAN_POINT('',(-1.625,0.,0.355));
#786=CARTESIAN_POINT('',(-1.486375,-0.138625,0.355));
#787=CARTESIAN_POINT('',(-1.625,0.,0.));
#788=CARTESIAN_POINT('',(-1.5605,-0.0644999999999998,0.));
#789=CARTESIAN_POINT('',(-1.625,0.,0.));
#790=CARTESIAN_POINT('Origin',(-0.875,0.0705,0.355));
#791=CARTESIAN_POINT('',(-0.125,0.,0.355));
#792=CARTESIAN_POINT('',(-1.3125,0.,0.355));
#793=CARTESIAN_POINT('',(-5.49560251117375E-18,0.125,0.355));
#794=CARTESIAN_POINT('',(-0.263625,-0.138625,0.355));
#795=CARTESIAN_POINT('',(-2.18547839493141E-17,0.266,0.355));
#796=CARTESIAN_POINT('',(0.,0.03525,0.355));
#797=CARTESIAN_POINT('',(-0.298875,-0.0328750000000001,0.355));
#798=CARTESIAN_POINT('Origin',(-0.0625,0.6715,0.));
#799=CARTESIAN_POINT('',(-3.72904950340369E-17,0.609,0.));
#800=CARTESIAN_POINT('',(-4.37095678986282E-17,0.609,0.));
#801=CARTESIAN_POINT('',(-0.125,0.734,0.));
#802=CARTESIAN_POINT('',(-0.1895,0.7985,0.));
#803=CARTESIAN_POINT('',(-0.125,0.734,0.));
#804=CARTESIAN_POINT('Origin',(-0.875,0.367,0.));
#805=CARTESIAN_POINT('',(-1.75,0.734,0.));
#806=CARTESIAN_POINT('',(-7.65404249467096E-18,0.125,0.));
#807=CARTESIAN_POINT('',(-4.49445375287079E-17,0.734,0.));
#808=CARTESIAN_POINT('',(-0.125,0.,0.));
#809=CARTESIAN_POINT('',(-0.1895,-0.0645000000000001,0.));
#810=CARTESIAN_POINT('',(0.,0.,0.));
#811=CARTESIAN_POINT('Origin',(0.,0.,0.));
#812=CARTESIAN_POINT('',(-2.18547839493141E-17,0.468,0.422));
#813=CARTESIAN_POINT('',(-2.18547839493141E-17,0.266,0.422));
#814=CARTESIAN_POINT('',(0.,0.125,0.));
#815=CARTESIAN_POINT('Origin',(-0.0625,0.0625,0.));
#816=CARTESIAN_POINT('',(-0.125,0.,0.));
#817=CARTESIAN_POINT('Origin',(-0.0625,0.5305,0.422));
#818=CARTESIAN_POINT('',(-0.125,0.593,0.422));
#819=CARTESIAN_POINT('Origin',(-0.0625,0.2035,0.422));
#820=CARTESIAN_POINT('Origin',(0.,0.593,0.844));
#821=CARTESIAN_POINT('Origin',(-1.75,0.,0.));
#822=CARTESIAN_POINT('Origin',(0.,0.734,0.));
#823=UNCERTAINTY_MEASURE_WITH_UNIT(LENGTH_MEASURE(0.000393700787401575),
#828,'DISTANCE_ACCURACY_VALUE',
'Maximum model space distance between geometric entities at asserted c
onnectivities');
#824=UNCERTAINTY_MEASURE_WITH_UNIT(LENGTH_MEASURE(0.000393700787401575),
#828,'DISTANCE_ACCURACY_VALUE',
'Maximum model space distance between geometric entities at asserted c
onnectivities');
#825=(
GEOMETRIC_REPRESENTATION_CONTEXT(3)
GLOBAL_UNCERTAINTY_ASSIGNED_CONTEXT((#823))
GLOBAL_UNIT_ASSIGNED_CONTEXT((#828,#832,#833))
REPRESENTATION_CONTEXT('','3D')
);
#826=(
GEOMETRIC_REPRESENTATION_CONTEXT(3)
GLOBAL_UNCERTAINTY_ASSIGNED_CONTEXT((#824))
GLOBAL_UNIT_ASSIGNED_CONTEXT((#828,#832,#833))
REPRESENTATION_CONTEXT('','3D')
);
#827=DIMENSIONAL_EXPONENTS(1.,0.,0.,0.,0.,0.,0.);
#828=(
CONVERSION_BASED_UNIT('inch',#831)
LENGTH_UNIT()
NAMED_UNIT(#827)
);
#829=(
LENGTH_UNIT()
NAMED_UNIT(*)
SI_UNIT(.MILLI.,.METRE.)
);
#830=(
LENGTH_UNIT()
NAMED_UNIT(*)
SI_UNIT($,.METRE.)
);
#831=LENGTH_MEASURE_WITH_UNIT(LENGTH_MEASURE(25.4),#829);
#832=(
NAMED_UNIT(*)
PLANE_ANGLE_UNIT()
SI_UNIT($,.RADIAN.)
);
#833=(
NAMED_UNIT(*)
SI_UNIT($,.STERADIAN.)
SOLID_ANGLE_UNIT()
);
#834=SHAPE_DEFINITION_REPRESENTATION(#835,#836);
#835=PRODUCT_DEFINITION_SHAPE('',$,#838);
#836=SHAPE_REPRESENTATION('',(#527),#825);
#837=PRODUCT_DEFINITION_CONTEXT('part definition',#842,'design');
#838=PRODUCT_DEFINITION('Screw Slider Block','Screw Slider Block',#839,
#837);
#839=PRODUCT_DEFINITION_FORMATION('',$,#844);
#840=PRODUCT_RELATED_PRODUCT_CATEGORY('Screw Slider Block',
'Screw Slider Block',(#844));
#841=APPLICATION_PROTOCOL_DEFINITION('international standard',
'automotive_design',2009,#842);
#842=APPLICATION_CONTEXT(
'Core Data for Automotive Mechanical Design Process');
#843=PRODUCT_CONTEXT('part definition',#842,'mechanical');
#844=PRODUCT('Screw Slider Block','Screw Slider Block',$,(#843));
#845=PRESENTATION_STYLE_ASSIGNMENT((#846));
#846=SURFACE_STYLE_USAGE(.BOTH.,#847);
#847=SURFACE_SIDE_STYLE('',(#848));
#848=SURFACE_STYLE_FILL_AREA(#849);
#849=FILL_AREA_STYLE('Steel - Satin',(#850));
#850=FILL_AREA_STYLE_COLOUR('Steel - Satin',#851);
#851=COLOUR_RGB('Steel - Satin',0.627450980392157,0.627450980392157,0.627450980392157);
ENDSEC;
END-ISO-10303-21;
