ISO-10303-21;
HEADER;
/* Generated by software containing ST-Developer
 * from STEP Tools, Inc. (www.steptools.com) 
 */

FILE_DESCRIPTION(
/* description */ (''),
/* implementation_level */ '2;1');

FILE_NAME(
/* name */ 'Trammel T2 Component.step',
/* time_stamp */ '2026-09-20T23:56:12-04:00',
/* author */ (''),
/* organization */ (''),
/* preprocessor_version */ 'ST-DEVELOPER v20.2',
/* originating_system */ 'Autodesk Translation Framework v15.15.0.0',
/* authorisation */ '');

FILE_SCHEMA (('AUTOMOTIVE_DESIGN { 1 0 10303 214 3 1 1 }'));
ENDSEC;

DATA;
#10=MECHANICAL_DESIGN_GEOMETRIC_PRESENTATION_REPRESENTATION('',(#13),#486);
#11=SHAPE_REPRESENTATION_RELATIONSHIP('SRR','None',#496,#12);
#12=ADVANCED_BREP_SHAPE_REPRESENTATION('',(#14),#485);
#13=STYLED_ITEM('',(#505),#14);
#14=MANIFOLD_SOLID_BREP('Body1',#284);
#15=LINE('',#415,#40);
#16=LINE('',#418,#41);
#17=LINE('',#428,#42);
#18=LINE('',#431,#43);
#19=LINE('',#436,#44);
#20=LINE('',#438,#45);
#21=LINE('',#440,#46);
#22=LINE('',#442,#47);
#23=LINE('',#446,#48);
#24=LINE('',#448,#49);
#25=LINE('',#449,#50);
#26=LINE('',#453,#51);
#27=LINE('',#456,#52);
#28=LINE('',#457,#53);
#29=LINE('',#460,#54);
#30=LINE('',#462,#55);
#31=LINE('',#463,#56);
#32=LINE('',#466,#57);
#33=LINE('',#467,#58);
#34=LINE('',#470,#59);
#35=LINE('',#471,#60);
#36=LINE('',#474,#61);
#37=LINE('',#478,#62);
#38=LINE('',#479,#63);
#39=LINE('',#481,#64);
#40=VECTOR('',#337,0.155);
#41=VECTOR('',#340,0.0885);
#42=VECTOR('',#353,0.155);
#43=VECTOR('',#356,0.0885);
#44=VECTOR('',#361,0.393700787401575);
#45=VECTOR('',#362,0.393700787401575);
#46=VECTOR('',#363,0.393700787401575);
#47=VECTOR('',#364,0.393700787401575);
#48=VECTOR('',#369,0.393700787401575);
#49=VECTOR('',#370,0.393700787401575);
#50=VECTOR('',#371,0.393700787401575);
#51=VECTOR('',#374,0.393700787401575);
#52=VECTOR('',#377,0.393700787401575);
#53=VECTOR('',#378,0.393700787401575);
#54=VECTOR('',#381,0.393700787401575);
#55=VECTOR('',#382,0.393700787401575);
#56=VECTOR('',#383,0.393700787401575);
#57=VECTOR('',#386,0.393700787401575);
#58=VECTOR('',#387,0.393700787401575);
#59=VECTOR('',#390,0.393700787401575);
#60=VECTOR('',#391,0.393700787401575);
#61=VECTOR('',#394,0.393700787401575);
#62=VECTOR('',#399,0.393700787401575);
#63=VECTOR('',#400,0.393700787401575);
#64=VECTOR('',#403,0.393700787401575);
#65=CYLINDRICAL_SURFACE('',#301,0.155);
#66=CYLINDRICAL_SURFACE('',#303,0.0885);
#67=CYLINDRICAL_SURFACE('',#308,0.155);
#68=CYLINDRICAL_SURFACE('',#310,0.0885);
#69=CYLINDRICAL_SURFACE('',#320,0.275095886524823);
#70=FACE_BOUND('',#93,.T.);
#71=FACE_BOUND('',#97,.T.);
#72=FACE_BOUND('',#105,.T.);
#73=FACE_BOUND('',#106,.T.);
#74=FACE_BOUND('',#112,.T.);
#75=FACE_BOUND('',#113,.T.);
#76=FACE_OUTER_BOUND('',#92,.T.);
#77=FACE_OUTER_BOUND('',#94,.T.);
#78=FACE_OUTER_BOUND('',#95,.T.);
#79=FACE_OUTER_BOUND('',#96,.T.);
#80=FACE_OUTER_BOUND('',#98,.T.);
#81=FACE_OUTER_BOUND('',#99,.T.);
#82=FACE_OUTER_BOUND('',#100,.T.);
#83=FACE_OUTER_BOUND('',#101,.T.);
#84=FACE_OUTER_BOUND('',#102,.T.);
#85=FACE_OUTER_BOUND('',#103,.T.);
#86=FACE_OUTER_BOUND('',#104,.T.);
#87=FACE_OUTER_BOUND('',#107,.T.);
#88=FACE_OUTER_BOUND('',#108,.T.);
#89=FACE_OUTER_BOUND('',#109,.T.);
#90=FACE_OUTER_BOUND('',#110,.T.);
#91=FACE_OUTER_BOUND('',#111,.T.);
#92=EDGE_LOOP('',(#185));
#93=EDGE_LOOP('',(#186));
#94=EDGE_LOOP('',(#187,#188,#189,#190));
#95=EDGE_LOOP('',(#191,#192,#193,#194));
#96=EDGE_LOOP('',(#195));
#97=EDGE_LOOP('',(#196));
#98=EDGE_LOOP('',(#197,#198,#199,#200));
#99=EDGE_LOOP('',(#201,#202,#203,#204));
#100=EDGE_LOOP('',(#205,#206,#207,#208,#209));
#101=EDGE_LOOP('',(#210,#211,#212,#213));
#102=EDGE_LOOP('',(#214,#215,#216,#217,#218));
#103=EDGE_LOOP('',(#219,#220,#221,#222,#223,#224));
#104=EDGE_LOOP('',(#225,#226,#227,#228));
#105=EDGE_LOOP('',(#229));
#106=EDGE_LOOP('',(#230));
#107=EDGE_LOOP('',(#231,#232,#233,#234));
#108=EDGE_LOOP('',(#235,#236,#237,#238,#239,#240));
#109=EDGE_LOOP('',(#241,#242,#243,#244));
#110=EDGE_LOOP('',(#245,#246,#247,#248,#249,#250));
#111=EDGE_LOOP('',(#251,#252,#253,#254));
#112=EDGE_LOOP('',(#255));
#113=EDGE_LOOP('',(#256));
#114=CIRCLE('',#299,0.155);
#115=CIRCLE('',#300,0.0885);
#116=CIRCLE('',#302,0.155);
#117=CIRCLE('',#304,0.0885);
#118=CIRCLE('',#306,0.155);
#119=CIRCLE('',#307,0.0885);
#120=CIRCLE('',#309,0.155);
#121=CIRCLE('',#311,0.0885);
#122=CIRCLE('',#313,0.275095886524823);
#123=CIRCLE('',#316,0.275095886524823);
#124=CIRCLE('',#321,0.275095886524823);
#125=VERTEX_POINT('',#408);
#126=VERTEX_POINT('',#410);
#127=VERTEX_POINT('',#413);
#128=VERTEX_POINT('',#417);
#129=VERTEX_POINT('',#421);
#130=VERTEX_POINT('',#423);
#131=VERTEX_POINT('',#426);
#132=VERTEX_POINT('',#430);
#133=VERTEX_POINT('',#434);
#134=VERTEX_POINT('',#435);
#135=VERTEX_POINT('',#437);
#136=VERTEX_POINT('',#439);
#137=VERTEX_POINT('',#441);
#138=VERTEX_POINT('',#445);
#139=VERTEX_POINT('',#447);
#140=VERTEX_POINT('',#451);
#141=VERTEX_POINT('',#452);
#142=VERTEX_POINT('',#455);
#143=VERTEX_POINT('',#459);
#144=VERTEX_POINT('',#461);
#145=VERTEX_POINT('',#465);
#146=VERTEX_POINT('',#469);
#147=VERTEX_POINT('',#473);
#148=VERTEX_POINT('',#477);
#149=EDGE_CURVE('',#125,#125,#114,.T.);
#150=EDGE_CURVE('',#126,#126,#115,.T.);
#151=EDGE_CURVE('',#127,#127,#116,.T.);
#152=EDGE_CURVE('',#127,#125,#15,.T.);
#153=EDGE_CURVE('',#126,#128,#16,.T.);
#154=EDGE_CURVE('',#128,#128,#117,.T.);
#155=EDGE_CURVE('',#129,#129,#118,.T.);
#156=EDGE_CURVE('',#130,#130,#119,.T.);
#157=EDGE_CURVE('',#131,#131,#120,.T.);
#158=EDGE_CURVE('',#131,#129,#17,.T.);
#159=EDGE_CURVE('',#130,#132,#18,.T.);
#160=EDGE_CURVE('',#132,#132,#121,.T.);
#161=EDGE_CURVE('',#133,#134,#19,.T.);
#162=EDGE_CURVE('',#135,#133,#20,.T.);
#163=EDGE_CURVE('',#136,#135,#21,.T.);
#164=EDGE_CURVE('',#136,#137,#22,.T.);
#165=EDGE_CURVE('',#134,#137,#122,.T.);
#166=EDGE_CURVE('',#137,#138,#23,.T.);
#167=EDGE_CURVE('',#139,#136,#24,.T.);
#168=EDGE_CURVE('',#139,#138,#25,.T.);
#169=EDGE_CURVE('',#140,#141,#26,.T.);
#170=EDGE_CURVE('',#138,#140,#123,.T.);
#171=EDGE_CURVE('',#142,#139,#27,.T.);
#172=EDGE_CURVE('',#141,#142,#28,.T.);
#173=EDGE_CURVE('',#143,#135,#29,.T.);
#174=EDGE_CURVE('',#144,#143,#30,.T.);
#175=EDGE_CURVE('',#144,#142,#31,.T.);
#176=EDGE_CURVE('',#133,#145,#32,.T.);
#177=EDGE_CURVE('',#145,#143,#33,.T.);
#178=EDGE_CURVE('',#134,#146,#34,.T.);
#179=EDGE_CURVE('',#145,#146,#35,.T.);
#180=EDGE_CURVE('',#140,#147,#36,.T.);
#181=EDGE_CURVE('',#146,#147,#124,.T.);
#182=EDGE_CURVE('',#148,#141,#37,.T.);
#183=EDGE_CURVE('',#147,#148,#38,.T.);
#184=EDGE_CURVE('',#148,#144,#39,.T.);
#185=ORIENTED_EDGE('',*,*,#149,.F.);
#186=ORIENTED_EDGE('',*,*,#150,.T.);
#187=ORIENTED_EDGE('',*,*,#151,.F.);
#188=ORIENTED_EDGE('',*,*,#152,.T.);
#189=ORIENTED_EDGE('',*,*,#149,.T.);
#190=ORIENTED_EDGE('',*,*,#152,.F.);
#191=ORIENTED_EDGE('',*,*,#150,.F.);
#192=ORIENTED_EDGE('',*,*,#153,.T.);
#193=ORIENTED_EDGE('',*,*,#154,.F.);
#194=ORIENTED_EDGE('',*,*,#153,.F.);
#195=ORIENTED_EDGE('',*,*,#155,.F.);
#196=ORIENTED_EDGE('',*,*,#156,.T.);
#197=ORIENTED_EDGE('',*,*,#157,.F.);
#198=ORIENTED_EDGE('',*,*,#158,.T.);
#199=ORIENTED_EDGE('',*,*,#155,.T.);
#200=ORIENTED_EDGE('',*,*,#158,.F.);
#201=ORIENTED_EDGE('',*,*,#156,.F.);
#202=ORIENTED_EDGE('',*,*,#159,.T.);
#203=ORIENTED_EDGE('',*,*,#160,.F.);
#204=ORIENTED_EDGE('',*,*,#159,.F.);
#205=ORIENTED_EDGE('',*,*,#161,.F.);
#206=ORIENTED_EDGE('',*,*,#162,.F.);
#207=ORIENTED_EDGE('',*,*,#163,.F.);
#208=ORIENTED_EDGE('',*,*,#164,.T.);
#209=ORIENTED_EDGE('',*,*,#165,.F.);
#210=ORIENTED_EDGE('',*,*,#166,.F.);
#211=ORIENTED_EDGE('',*,*,#164,.F.);
#212=ORIENTED_EDGE('',*,*,#167,.F.);
#213=ORIENTED_EDGE('',*,*,#168,.T.);
#214=ORIENTED_EDGE('',*,*,#169,.F.);
#215=ORIENTED_EDGE('',*,*,#170,.F.);
#216=ORIENTED_EDGE('',*,*,#168,.F.);
#217=ORIENTED_EDGE('',*,*,#171,.F.);
#218=ORIENTED_EDGE('',*,*,#172,.F.);
#219=ORIENTED_EDGE('',*,*,#171,.T.);
#220=ORIENTED_EDGE('',*,*,#167,.T.);
#221=ORIENTED_EDGE('',*,*,#163,.T.);
#222=ORIENTED_EDGE('',*,*,#173,.F.);
#223=ORIENTED_EDGE('',*,*,#174,.F.);
#224=ORIENTED_EDGE('',*,*,#175,.T.);
#225=ORIENTED_EDGE('',*,*,#162,.T.);
#226=ORIENTED_EDGE('',*,*,#176,.T.);
#227=ORIENTED_EDGE('',*,*,#177,.T.);
#228=ORIENTED_EDGE('',*,*,#173,.T.);
#229=ORIENTED_EDGE('',*,*,#151,.T.);
#230=ORIENTED_EDGE('',*,*,#157,.T.);
#231=ORIENTED_EDGE('',*,*,#161,.T.);
#232=ORIENTED_EDGE('',*,*,#178,.T.);
#233=ORIENTED_EDGE('',*,*,#179,.F.);
#234=ORIENTED_EDGE('',*,*,#176,.F.);
#235=ORIENTED_EDGE('',*,*,#170,.T.);
#236=ORIENTED_EDGE('',*,*,#180,.T.);
#237=ORIENTED_EDGE('',*,*,#181,.F.);
#238=ORIENTED_EDGE('',*,*,#178,.F.);
#239=ORIENTED_EDGE('',*,*,#165,.T.);
#240=ORIENTED_EDGE('',*,*,#166,.T.);
#241=ORIENTED_EDGE('',*,*,#169,.T.);
#242=ORIENTED_EDGE('',*,*,#182,.F.);
#243=ORIENTED_EDGE('',*,*,#183,.F.);
#244=ORIENTED_EDGE('',*,*,#180,.F.);
#245=ORIENTED_EDGE('',*,*,#179,.T.);
#246=ORIENTED_EDGE('',*,*,#181,.T.);
#247=ORIENTED_EDGE('',*,*,#183,.T.);
#248=ORIENTED_EDGE('',*,*,#184,.T.);
#249=ORIENTED_EDGE('',*,*,#174,.T.);
#250=ORIENTED_EDGE('',*,*,#177,.F.);
#251=ORIENTED_EDGE('',*,*,#172,.T.);
#252=ORIENTED_EDGE('',*,*,#175,.F.);
#253=ORIENTED_EDGE('',*,*,#184,.F.);
#254=ORIENTED_EDGE('',*,*,#182,.T.);
#255=ORIENTED_EDGE('',*,*,#154,.T.);
#256=ORIENTED_EDGE('',*,*,#160,.T.);
#257=PLANE('',#298);
#258=PLANE('',#305);
#259=PLANE('',#312);
#260=PLANE('',#314);
#261=PLANE('',#315);
#262=PLANE('',#317);
#263=PLANE('',#318);
#264=PLANE('',#319);
#265=PLANE('',#322);
#266=PLANE('',#323);
#267=PLANE('',#324);
#268=ADVANCED_FACE('',(#76,#70),#257,.F.);
#269=ADVANCED_FACE('',(#77),#65,.F.);
#270=ADVANCED_FACE('',(#78),#66,.F.);
#271=ADVANCED_FACE('',(#79,#71),#258,.F.);
#272=ADVANCED_FACE('',(#80),#67,.F.);
#273=ADVANCED_FACE('',(#81),#68,.F.);
#274=ADVANCED_FACE('',(#82),#259,.F.);
#275=ADVANCED_FACE('',(#83),#260,.F.);
#276=ADVANCED_FACE('',(#84),#261,.F.);
#277=ADVANCED_FACE('',(#85),#262,.T.);
#278=ADVANCED_FACE('',(#86,#72,#73),#263,.T.);
#279=ADVANCED_FACE('',(#87),#264,.F.);
#280=ADVANCED_FACE('',(#88),#69,.F.);
#281=ADVANCED_FACE('',(#89),#265,.F.);
#282=ADVANCED_FACE('',(#90),#266,.T.);
#283=ADVANCED_FACE('',(#91,#74,#75),#267,.F.);
#284=CLOSED_SHELL('',(#268,#269,#270,#271,#272,#273,#274,#275,#276,#277,
#278,#279,#280,#281,#282,#283));
#285=DERIVED_UNIT_ELEMENT(#287,1.);
#286=DERIVED_UNIT_ELEMENT(#490,-3.);
#287=(
MASS_UNIT()
NAMED_UNIT(*)
SI_UNIT(.KILO.,.GRAM.)
);
#288=DERIVED_UNIT((#285,#286));
#289=MEASURE_REPRESENTATION_ITEM('density measure',
POSITIVE_RATIO_MEASURE(7850.),#288);
#290=PROPERTY_DEFINITION_REPRESENTATION(#295,#292);
#291=PROPERTY_DEFINITION_REPRESENTATION(#296,#293);
#292=REPRESENTATION('material name',(#294),#485);
#293=REPRESENTATION('density',(#289),#485);
#294=DESCRIPTIVE_REPRESENTATION_ITEM('Steel','Steel');
#295=PROPERTY_DEFINITION('material property','material name',#498);
#296=PROPERTY_DEFINITION('material property','density of part',#498);
#297=AXIS2_PLACEMENT_3D('',#406,#325,#326);
#298=AXIS2_PLACEMENT_3D('',#407,#327,#328);
#299=AXIS2_PLACEMENT_3D('',#409,#329,#330);
#300=AXIS2_PLACEMENT_3D('',#411,#331,#332);
#301=AXIS2_PLACEMENT_3D('',#412,#333,#334);
#302=AXIS2_PLACEMENT_3D('',#414,#335,#336);
#303=AXIS2_PLACEMENT_3D('',#416,#338,#339);
#304=AXIS2_PLACEMENT_3D('',#419,#341,#342);
#305=AXIS2_PLACEMENT_3D('',#420,#343,#344);
#306=AXIS2_PLACEMENT_3D('',#422,#345,#346);
#307=AXIS2_PLACEMENT_3D('',#424,#347,#348);
#308=AXIS2_PLACEMENT_3D('',#425,#349,#350);
#309=AXIS2_PLACEMENT_3D('',#427,#351,#352);
#310=AXIS2_PLACEMENT_3D('',#429,#354,#355);
#311=AXIS2_PLACEMENT_3D('',#432,#357,#358);
#312=AXIS2_PLACEMENT_3D('',#433,#359,#360);
#313=AXIS2_PLACEMENT_3D('',#443,#365,#366);
#314=AXIS2_PLACEMENT_3D('',#444,#367,#368);
#315=AXIS2_PLACEMENT_3D('',#450,#372,#373);
#316=AXIS2_PLACEMENT_3D('',#454,#375,#376);
#317=AXIS2_PLACEMENT_3D('',#458,#379,#380);
#318=AXIS2_PLACEMENT_3D('',#464,#384,#385);
#319=AXIS2_PLACEMENT_3D('',#468,#388,#389);
#320=AXIS2_PLACEMENT_3D('',#472,#392,#393);
#321=AXIS2_PLACEMENT_3D('',#475,#395,#396);
#322=AXIS2_PLACEMENT_3D('',#476,#397,#398);
#323=AXIS2_PLACEMENT_3D('',#480,#401,#402);
#324=AXIS2_PLACEMENT_3D('',#482,#404,#405);
#325=DIRECTION('axis',(0.,0.,1.));
#326=DIRECTION('refdir',(1.,0.,0.));
#327=DIRECTION('center_axis',(0.,0.,-1.));
#328=DIRECTION('ref_axis',(1.,0.,0.));
#329=DIRECTION('center_axis',(0.,0.,-1.));
#330=DIRECTION('ref_axis',(1.,0.,0.));
#331=DIRECTION('center_axis',(0.,0.,-1.));
#332=DIRECTION('ref_axis',(1.,0.,0.));
#333=DIRECTION('center_axis',(0.,0.,-1.));
#334=DIRECTION('ref_axis',(1.,0.,0.));
#335=DIRECTION('center_axis',(0.,0.,-1.));
#336=DIRECTION('ref_axis',(1.,0.,0.));
#337=DIRECTION('',(0.,0.,-1.));
#338=DIRECTION('center_axis',(0.,0.,-1.));
#339=DIRECTION('ref_axis',(1.,0.,0.));
#340=DIRECTION('',(0.,0.,-1.));
#341=DIRECTION('center_axis',(0.,0.,1.));
#342=DIRECTION('ref_axis',(1.,0.,0.));
#343=DIRECTION('center_axis',(0.,0.,-1.));
#344=DIRECTION('ref_axis',(1.,0.,0.));
#345=DIRECTION('center_axis',(0.,0.,-1.));
#346=DIRECTION('ref_axis',(1.,0.,0.));
#347=DIRECTION('center_axis',(0.,0.,-1.));
#348=DIRECTION('ref_axis',(1.,0.,0.));
#349=DIRECTION('center_axis',(0.,0.,-1.));
#350=DIRECTION('ref_axis',(1.,0.,0.));
#351=DIRECTION('center_axis',(0.,0.,-1.));
#352=DIRECTION('ref_axis',(1.,0.,0.));
#353=DIRECTION('',(0.,0.,-1.));
#354=DIRECTION('center_axis',(0.,0.,-1.));
#355=DIRECTION('ref_axis',(1.,0.,0.));
#356=DIRECTION('',(0.,0.,-1.));
#357=DIRECTION('center_axis',(0.,0.,1.));
#358=DIRECTION('ref_axis',(1.,0.,0.));
#359=DIRECTION('center_axis',(0.,1.,0.));
#360=DIRECTION('ref_axis',(0.,0.,1.));
#361=DIRECTION('',(0.,0.,-1.));
#362=DIRECTION('',(1.,0.,0.));
#363=DIRECTION('',(0.,0.,1.));
#364=DIRECTION('',(1.,0.,0.));
#365=DIRECTION('center_axis',(0.,-1.,0.));
#366=DIRECTION('ref_axis',(-0.487451441818354,0.,0.873150096987458));
#367=DIRECTION('center_axis',(0.,0.,1.));
#368=DIRECTION('ref_axis',(0.,-1.,0.));
#369=DIRECTION('',(0.,1.,0.));
#370=DIRECTION('',(-2.28364087893994E-33,-1.,0.));
#371=DIRECTION('',(1.,0.,0.));
#372=DIRECTION('center_axis',(0.,1.,0.));
#373=DIRECTION('ref_axis',(0.,0.,1.));
#374=DIRECTION('',(0.,0.,-1.));
#375=DIRECTION('center_axis',(0.,-1.,0.));
#376=DIRECTION('ref_axis',(-0.487451441818354,0.,0.873150096987458));
#377=DIRECTION('',(0.,0.,1.));
#378=DIRECTION('',(-1.,0.,0.));
#379=DIRECTION('center_axis',(-1.,2.28364087893994E-33,0.));
#380=DIRECTION('ref_axis',(-2.28364087893994E-33,-1.,0.));
#381=DIRECTION('',(-2.28364087893994E-33,-1.,0.));
#382=DIRECTION('',(0.,0.,1.));
#383=DIRECTION('',(-2.28364087893994E-33,-1.,0.));
#384=DIRECTION('center_axis',(0.,0.,1.));
#385=DIRECTION('ref_axis',(1.,0.,0.));
#386=DIRECTION('',(0.,1.,0.));
#387=DIRECTION('',(-1.,0.,0.));
#388=DIRECTION('center_axis',(-1.,0.,0.));
#389=DIRECTION('ref_axis',(0.,0.,1.));
#390=DIRECTION('',(0.,1.,0.));
#391=DIRECTION('',(0.,0.,-1.));
#392=DIRECTION('center_axis',(0.,1.,0.));
#393=DIRECTION('ref_axis',(-0.487451441818354,0.,0.873150096987458));
#394=DIRECTION('',(0.,1.,0.));
#395=DIRECTION('center_axis',(0.,-1.,0.));
#396=DIRECTION('ref_axis',(-0.487451441818354,0.,0.873150096987458));
#397=DIRECTION('center_axis',(-1.,0.,0.));
#398=DIRECTION('ref_axis',(0.,0.,1.));
#399=DIRECTION('',(0.,-1.,0.));
#400=DIRECTION('',(0.,0.,-1.));
#401=DIRECTION('center_axis',(0.,1.,0.));
#402=DIRECTION('ref_axis',(-1.,0.,0.));
#403=DIRECTION('',(-1.,0.,0.));
#404=DIRECTION('center_axis',(0.,0.,1.));
#405=DIRECTION('ref_axis',(1.,0.,0.));
#406=CARTESIAN_POINT('',(0.,0.,0.));
#407=CARTESIAN_POINT('Origin',(0.375,0.625,0.288));
#408=CARTESIAN_POINT('',(0.22,0.625,0.288));
#409=CARTESIAN_POINT('Origin',(0.375,0.625,0.288));
#410=CARTESIAN_POINT('',(0.2865,0.625,0.288));
#411=CARTESIAN_POINT('Origin',(0.375,0.625,0.288));
#412=CARTESIAN_POINT('Origin',(0.375,0.625,0.394));
#413=CARTESIAN_POINT('',(0.22,0.625,0.5));
#414=CARTESIAN_POINT('Origin',(0.375,0.625,0.5));
#415=CARTESIAN_POINT('',(0.22,0.625,0.394));
#416=CARTESIAN_POINT('Origin',(0.375,0.625,0.25));
#417=CARTESIAN_POINT('',(0.2865,0.625,0.));
#418=CARTESIAN_POINT('',(0.2865,0.625,0.25));
#419=CARTESIAN_POINT('Origin',(0.375,0.625,0.));
#420=CARTESIAN_POINT('Origin',(1.5,1.75,0.288));
#421=CARTESIAN_POINT('',(1.345,1.75,0.288));
#422=CARTESIAN_POINT('Origin',(1.5,1.75,0.288));
#423=CARTESIAN_POINT('',(1.4115,1.75,0.288));
#424=CARTESIAN_POINT('Origin',(1.5,1.75,0.288));
#425=CARTESIAN_POINT('Origin',(1.5,1.75,0.394));
#426=CARTESIAN_POINT('',(1.345,1.75,0.5));
#427=CARTESIAN_POINT('Origin',(1.5,1.75,0.5));
#428=CARTESIAN_POINT('',(1.345,1.75,0.394));
#429=CARTESIAN_POINT('Origin',(1.5,1.75,0.25));
#430=CARTESIAN_POINT('',(1.4115,1.75,0.));
#431=CARTESIAN_POINT('',(1.4115,1.75,0.25));
#432=CARTESIAN_POINT('Origin',(1.5,1.75,0.));
#433=CARTESIAN_POINT('Origin',(0.,0.2335,0.355));
#434=CARTESIAN_POINT('',(1.8915,0.2335,0.5));
#435=CARTESIAN_POINT('',(1.8915,0.2335,0.3652));
#436=CARTESIAN_POINT('',(1.8915,0.2335,0.3601));
#437=CARTESIAN_POINT('',(0.,0.2335,0.5));
#438=CARTESIAN_POINT('',(0.53125,0.2335,0.5));
#439=CARTESIAN_POINT('',(0.,0.2335,0.355));
#440=CARTESIAN_POINT('',(5.33230145232476E-34,0.2335,0.1775));
#441=CARTESIAN_POINT('',(1.87467290357366,0.2335,0.355));
#442=CARTESIAN_POINT('',(0.,0.2335,0.355));
#443=CARTESIAN_POINT('Origin',(2.02559588652482,0.2335,0.125));
#444=CARTESIAN_POINT('Origin',(0.,0.3745,0.355));
#445=CARTESIAN_POINT('',(1.87467290357366,0.3745,0.355));
#446=CARTESIAN_POINT('',(1.87467290357366,0.,0.355));
#447=CARTESIAN_POINT('',(0.,0.3745,0.355));
#448=CARTESIAN_POINT('',(2.85398018845519E-33,1.24975,0.355));
#449=CARTESIAN_POINT('',(0.,0.3745,0.355));
#450=CARTESIAN_POINT('Origin',(0.,0.3745,0.));
#451=CARTESIAN_POINT('',(1.7505,0.3745,0.125));
#452=CARTESIAN_POINT('',(1.7505,0.3745,0.));
#453=CARTESIAN_POINT('',(1.7505,0.3745,0.));
#454=CARTESIAN_POINT('Origin',(2.02559588652482,0.3745,0.125));
#455=CARTESIAN_POINT('',(0.,0.3745,0.));
#456=CARTESIAN_POINT('',(8.55223509163006E-34,0.3745,0.));
#457=CARTESIAN_POINT('',(0.53125,0.3745,0.));
#458=CARTESIAN_POINT('Origin',(4.85273686774737E-33,2.125,0.));
#459=CARTESIAN_POINT('',(4.85273686774737E-33,2.125,0.5));
#460=CARTESIAN_POINT('',(4.85273686774737E-33,2.125,0.5));
#461=CARTESIAN_POINT('',(4.85273686774737E-33,2.125,0.));
#462=CARTESIAN_POINT('',(4.85273686774737E-33,2.125,0.));
#463=CARTESIAN_POINT('',(4.85273686774737E-33,2.125,0.));
#464=CARTESIAN_POINT('Origin',(1.0625,1.0625,0.5));
#465=CARTESIAN_POINT('',(1.8915,2.125,0.5));
#466=CARTESIAN_POINT('',(1.8915,0.53125,0.5));
#467=CARTESIAN_POINT('',(2.125,2.125,0.5));
#468=CARTESIAN_POINT('Origin',(1.8915,-8.63901344502978E-33,0.3652));
#469=CARTESIAN_POINT('',(1.8915,2.125,0.3652));
#470=CARTESIAN_POINT('',(1.8915,-8.63901344502978E-33,0.3652));
#471=CARTESIAN_POINT('',(1.8915,2.125,0.1826));
#472=CARTESIAN_POINT('Origin',(2.02559588652482,-9.25146714136133E-33,0.125));
#473=CARTESIAN_POINT('',(1.7505,2.125,0.125));
#474=CARTESIAN_POINT('',(1.7505,-7.99502671716872E-33,0.125));
#475=CARTESIAN_POINT('Origin',(2.02559588652482,2.125,0.125));
#476=CARTESIAN_POINT('Origin',(1.7505,-7.99502671716872E-33,0.));
#477=CARTESIAN_POINT('',(1.7505,2.125,0.));
#478=CARTESIAN_POINT('',(1.7505,0.53125,0.));
#479=CARTESIAN_POINT('',(1.7505,2.125,0.));
#480=CARTESIAN_POINT('Origin',(2.125,2.125,0.));
#481=CARTESIAN_POINT('',(2.125,2.125,0.));
#482=CARTESIAN_POINT('Origin',(1.0625,1.0625,0.));
#483=UNCERTAINTY_MEASURE_WITH_UNIT(LENGTH_MEASURE(0.000393700787401575),
#488,'DISTANCE_ACCURACY_VALUE',
'Maximum model space distance between geometric entities at asserted c
onnectivities');
#484=UNCERTAINTY_MEASURE_WITH_UNIT(LENGTH_MEASURE(0.000393700787401575),
#488,'DISTANCE_ACCURACY_VALUE',
'Maximum model space distance between geometric entities at asserted c
onnectivities');
#485=(
GEOMETRIC_REPRESENTATION_CONTEXT(3)
GLOBAL_UNCERTAINTY_ASSIGNED_CONTEXT((#483))
GLOBAL_UNIT_ASSIGNED_CONTEXT((#488,#492,#493))
REPRESENTATION_CONTEXT('','3D')
);
#486=(
GEOMETRIC_REPRESENTATION_CONTEXT(3)
GLOBAL_UNCERTAINTY_ASSIGNED_CONTEXT((#484))
GLOBAL_UNIT_ASSIGNED_CONTEXT((#488,#492,#493))
REPRESENTATION_CONTEXT('','3D')
);
#487=DIMENSIONAL_EXPONENTS(1.,0.,0.,0.,0.,0.,0.);
#488=(
CONVERSION_BASED_UNIT('inch',#491)
LENGTH_UNIT()
NAMED_UNIT(#487)
);
#489=(
LENGTH_UNIT()
NAMED_UNIT(*)
SI_UNIT(.MILLI.,.METRE.)
);
#490=(
LENGTH_UNIT()
NAMED_UNIT(*)
SI_UNIT($,.METRE.)
);
#491=LENGTH_MEASURE_WITH_UNIT(LENGTH_MEASURE(25.4),#489);
#492=(
NAMED_UNIT(*)
PLANE_ANGLE_UNIT()
SI_UNIT($,.RADIAN.)
);
#493=(
NAMED_UNIT(*)
SI_UNIT($,.STERADIAN.)
SOLID_ANGLE_UNIT()
);
#494=SHAPE_DEFINITION_REPRESENTATION(#495,#496);
#495=PRODUCT_DEFINITION_SHAPE('',$,#498);
#496=SHAPE_REPRESENTATION('',(#297),#485);
#497=PRODUCT_DEFINITION_CONTEXT('part definition',#502,'design');
#498=PRODUCT_DEFINITION('T24','T24',#499,#497);
#499=PRODUCT_DEFINITION_FORMATION('',$,#504);
#500=PRODUCT_RELATED_PRODUCT_CATEGORY('T24','T24',(#504));
#501=APPLICATION_PROTOCOL_DEFINITION('international standard',
'automotive_design',2009,#502);
#502=APPLICATION_CONTEXT(
'Core Data for Automotive Mechanical Design Process');
#503=PRODUCT_CONTEXT('part definition',#502,'mechanical');
#504=PRODUCT('T24','T24',$,(#503));
#505=PRESENTATION_STYLE_ASSIGNMENT((#506));
#506=SURFACE_STYLE_USAGE(.BOTH.,#507);
#507=SURFACE_SIDE_STYLE('',(#508));
#508=SURFACE_STYLE_FILL_AREA(#509);
#509=FILL_AREA_STYLE('Steel - Satin',(#510));
#510=FILL_AREA_STYLE_COLOUR('Steel - Satin',#511);
#511=COLOUR_RGB('Steel - Satin',0.627450980392157,0.627450980392157,0.627450980392157);
ENDSEC;
END-ISO-10303-21;
