ISO-10303-21;
HEADER;
/* Generated by software containing ST-Developer
 * from STEP Tools, Inc. (www.steptools.com) 
 */

FILE_DESCRIPTION(
/* description */ (''),
/* implementation_level */ '2;1');

FILE_NAME(
/* name */ 'Baseplate.step',
/* time_stamp */ '2026-09-20T23:36:54-04:00',
/* author */ (''),
/* organization */ (''),
/* preprocessor_version */ 'ST-DEVELOPER v20.2',
/* originating_system */ 'Autodesk Translation Framework v15.15.0.0',
/* authorisation */ '');

FILE_SCHEMA (('AUTOMOTIVE_DESIGN { 1 0 10303 214 3 1 1 }'));
ENDSEC;

DATA;
#10=MECHANICAL_DESIGN_GEOMETRIC_PRESENTATION_REPRESENTATION('',(#13),#1685);
#11=SHAPE_REPRESENTATION_RELATIONSHIP('SRR','None',#1695,#12);
#12=ADVANCED_BREP_SHAPE_REPRESENTATION('',(#14),#1684);
#13=STYLED_ITEM('',(#1704),#14);
#14=MANIFOLD_SOLID_BREP('Body1',#1041);
#15=LINE('',#1406,#133);
#16=LINE('',#1409,#134);
#17=LINE('',#1415,#135);
#18=LINE('',#1421,#136);
#19=LINE('',#1427,#137);
#20=LINE('',#1433,#138);
#21=LINE('',#1438,#139);
#22=LINE('',#1440,#140);
#23=LINE('',#1442,#141);
#24=LINE('',#1443,#142);
#25=LINE('',#1446,#143);
#26=LINE('',#1448,#144);
#27=LINE('',#1449,#145);
#28=LINE('',#1452,#146);
#29=LINE('',#1454,#147);
#30=LINE('',#1455,#148);
#31=LINE('',#1458,#149);
#32=LINE('',#1460,#150);
#33=LINE('',#1461,#151);
#34=LINE('',#1464,#152);
#35=LINE('',#1466,#153);
#36=LINE('',#1467,#154);
#37=LINE('',#1469,#155);
#38=LINE('',#1470,#156);
#39=LINE('',#1477,#157);
#40=LINE('',#1479,#158);
#41=LINE('',#1481,#159);
#42=LINE('',#1482,#160);
#43=LINE('',#1485,#161);
#44=LINE('',#1487,#162);
#45=LINE('',#1488,#163);
#46=LINE('',#1491,#164);
#47=LINE('',#1493,#165);
#48=LINE('',#1494,#166);
#49=LINE('',#1497,#167);
#50=LINE('',#1499,#168);
#51=LINE('',#1500,#169);
#52=LINE('',#1503,#170);
#53=LINE('',#1505,#171);
#54=LINE('',#1506,#172);
#55=LINE('',#1508,#173);
#56=LINE('',#1509,#174);
#57=LINE('',#1516,#175);
#58=LINE('',#1518,#176);
#59=LINE('',#1520,#177);
#60=LINE('',#1521,#178);
#61=LINE('',#1524,#179);
#62=LINE('',#1526,#180);
#63=LINE('',#1527,#181);
#64=LINE('',#1530,#182);
#65=LINE('',#1532,#183);
#66=LINE('',#1533,#184);
#67=LINE('',#1536,#185);
#68=LINE('',#1538,#186);
#69=LINE('',#1539,#187);
#70=LINE('',#1542,#188);
#71=LINE('',#1544,#189);
#72=LINE('',#1545,#190);
#73=LINE('',#1547,#191);
#74=LINE('',#1548,#192);
#75=LINE('',#1555,#193);
#76=LINE('',#1557,#194);
#77=LINE('',#1559,#195);
#78=LINE('',#1560,#196);
#79=LINE('',#1563,#197);
#80=LINE('',#1565,#198);
#81=LINE('',#1566,#199);
#82=LINE('',#1569,#200);
#83=LINE('',#1571,#201);
#84=LINE('',#1572,#202);
#85=LINE('',#1575,#203);
#86=LINE('',#1577,#204);
#87=LINE('',#1578,#205);
#88=LINE('',#1581,#206);
#89=LINE('',#1583,#207);
#90=LINE('',#1584,#208);
#91=LINE('',#1586,#209);
#92=LINE('',#1587,#210);
#93=LINE('',#1594,#211);
#94=LINE('',#1598,#212);
#95=LINE('',#1602,#213);
#96=LINE('',#1606,#214);
#97=LINE('',#1610,#215);
#98=LINE('',#1612,#216);
#99=LINE('',#1614,#217);
#100=LINE('',#1615,#218);
#101=LINE('',#1618,#219);
#102=LINE('',#1620,#220);
#103=LINE('',#1621,#221);
#104=LINE('',#1624,#222);
#105=LINE('',#1626,#223);
#106=LINE('',#1627,#224);
#107=LINE('',#1629,#225);
#108=LINE('',#1630,#226);
#109=LINE('',#1635,#227);
#110=LINE('',#1637,#228);
#111=LINE('',#1639,#229);
#112=LINE('',#1640,#230);
#113=LINE('',#1643,#231);
#114=LINE('',#1645,#232);
#115=LINE('',#1646,#233);
#116=LINE('',#1649,#234);
#117=LINE('',#1651,#235);
#118=LINE('',#1652,#236);
#119=LINE('',#1654,#237);
#120=LINE('',#1657,#238);
#121=LINE('',#1659,#239);
#122=LINE('',#1661,#240);
#123=LINE('',#1663,#241);
#124=LINE('',#1664,#242);
#125=LINE('',#1667,#243);
#126=LINE('',#1669,#244);
#127=LINE('',#1670,#245);
#128=LINE('',#1673,#246);
#129=LINE('',#1675,#247);
#130=LINE('',#1676,#248);
#131=LINE('',#1678,#249);
#132=LINE('',#1679,#250);
#133=VECTOR('',#1141,0.15);
#134=VECTOR('',#1144,0.082);
#135=VECTOR('',#1151,0.0984251968503937);
#136=VECTOR('',#1158,0.0984251968503937);
#137=VECTOR('',#1165,0.118110236220472);
#138=VECTOR('',#1172,0.118110236220472);
#139=VECTOR('',#1177,0.393700787401575);
#140=VECTOR('',#1178,0.393700787401575);
#141=VECTOR('',#1179,0.393700787401575);
#142=VECTOR('',#1180,0.393700787401575);
#143=VECTOR('',#1183,0.393700787401575);
#144=VECTOR('',#1184,0.393700787401575);
#145=VECTOR('',#1185,0.393700787401575);
#146=VECTOR('',#1188,0.393700787401575);
#147=VECTOR('',#1189,0.393700787401575);
#148=VECTOR('',#1190,0.393700787401575);
#149=VECTOR('',#1193,0.393700787401575);
#150=VECTOR('',#1194,0.393700787401575);
#151=VECTOR('',#1195,0.393700787401575);
#152=VECTOR('',#1198,0.393700787401575);
#153=VECTOR('',#1199,0.393700787401575);
#154=VECTOR('',#1200,0.393700787401575);
#155=VECTOR('',#1203,0.393700787401575);
#156=VECTOR('',#1204,0.393700787401575);
#157=VECTOR('',#1211,0.393700787401575);
#158=VECTOR('',#1212,0.393700787401575);
#159=VECTOR('',#1213,0.393700787401575);
#160=VECTOR('',#1214,0.393700787401575);
#161=VECTOR('',#1217,0.393700787401575);
#162=VECTOR('',#1218,0.393700787401575);
#163=VECTOR('',#1219,0.393700787401575);
#164=VECTOR('',#1222,0.393700787401575);
#165=VECTOR('',#1223,0.393700787401575);
#166=VECTOR('',#1224,0.393700787401575);
#167=VECTOR('',#1227,0.393700787401575);
#168=VECTOR('',#1228,0.393700787401575);
#169=VECTOR('',#1229,0.393700787401575);
#170=VECTOR('',#1232,0.393700787401575);
#171=VECTOR('',#1233,0.393700787401575);
#172=VECTOR('',#1234,0.393700787401575);
#173=VECTOR('',#1237,0.393700787401575);
#174=VECTOR('',#1238,0.393700787401575);
#175=VECTOR('',#1245,0.393700787401575);
#176=VECTOR('',#1246,0.393700787401575);
#177=VECTOR('',#1247,0.393700787401575);
#178=VECTOR('',#1248,0.393700787401575);
#179=VECTOR('',#1251,0.393700787401575);
#180=VECTOR('',#1252,0.393700787401575);
#181=VECTOR('',#1253,0.393700787401575);
#182=VECTOR('',#1256,0.393700787401575);
#183=VECTOR('',#1257,0.393700787401575);
#184=VECTOR('',#1258,0.393700787401575);
#185=VECTOR('',#1261,0.393700787401575);
#186=VECTOR('',#1262,0.393700787401575);
#187=VECTOR('',#1263,0.393700787401575);
#188=VECTOR('',#1266,0.393700787401575);
#189=VECTOR('',#1267,0.393700787401575);
#190=VECTOR('',#1268,0.393700787401575);
#191=VECTOR('',#1271,0.393700787401575);
#192=VECTOR('',#1272,0.393700787401575);
#193=VECTOR('',#1279,0.393700787401575);
#194=VECTOR('',#1280,0.393700787401575);
#195=VECTOR('',#1281,0.393700787401575);
#196=VECTOR('',#1282,0.393700787401575);
#197=VECTOR('',#1285,0.393700787401575);
#198=VECTOR('',#1286,0.393700787401575);
#199=VECTOR('',#1287,0.393700787401575);
#200=VECTOR('',#1290,0.393700787401575);
#201=VECTOR('',#1291,0.393700787401575);
#202=VECTOR('',#1292,0.393700787401575);
#203=VECTOR('',#1295,0.393700787401575);
#204=VECTOR('',#1296,0.393700787401575);
#205=VECTOR('',#1297,0.393700787401575);
#206=VECTOR('',#1300,0.393700787401575);
#207=VECTOR('',#1301,0.393700787401575);
#208=VECTOR('',#1302,0.393700787401575);
#209=VECTOR('',#1305,0.393700787401575);
#210=VECTOR('',#1306,0.393700787401575);
#211=VECTOR('',#1315,0.082);
#212=VECTOR('',#1320,0.082);
#213=VECTOR('',#1325,0.082);
#214=VECTOR('',#1330,0.082);
#215=VECTOR('',#1333,0.393700787401575);
#216=VECTOR('',#1334,0.393700787401575);
#217=VECTOR('',#1335,0.393700787401575);
#218=VECTOR('',#1336,0.393700787401575);
#219=VECTOR('',#1339,0.393700787401575);
#220=VECTOR('',#1340,0.393700787401575);
#221=VECTOR('',#1341,0.393700787401575);
#222=VECTOR('',#1344,0.393700787401575);
#223=VECTOR('',#1345,0.393700787401575);
#224=VECTOR('',#1346,0.393700787401575);
#225=VECTOR('',#1349,0.393700787401575);
#226=VECTOR('',#1350,0.393700787401575);
#227=VECTOR('',#1355,0.393700787401575);
#228=VECTOR('',#1356,0.393700787401575);
#229=VECTOR('',#1357,0.393700787401575);
#230=VECTOR('',#1358,0.393700787401575);
#231=VECTOR('',#1361,0.393700787401575);
#232=VECTOR('',#1362,0.393700787401575);
#233=VECTOR('',#1363,0.393700787401575);
#234=VECTOR('',#1366,0.393700787401575);
#235=VECTOR('',#1367,0.393700787401575);
#236=VECTOR('',#1368,0.393700787401575);
#237=VECTOR('',#1371,0.393700787401575);
#238=VECTOR('',#1374,0.393700787401575);
#239=VECTOR('',#1375,0.393700787401575);
#240=VECTOR('',#1376,0.393700787401575);
#241=VECTOR('',#1377,0.393700787401575);
#242=VECTOR('',#1378,0.393700787401575);
#243=VECTOR('',#1381,0.393700787401575);
#244=VECTOR('',#1382,0.393700787401575);
#245=VECTOR('',#1383,0.393700787401575);
#246=VECTOR('',#1386,0.393700787401575);
#247=VECTOR('',#1387,0.393700787401575);
#248=VECTOR('',#1388,0.393700787401575);
#249=VECTOR('',#1391,0.393700787401575);
#250=VECTOR('',#1392,0.393700787401575);
#251=CYLINDRICAL_SURFACE('',#1058,0.15);
#252=CYLINDRICAL_SURFACE('',#1060,0.082);
#253=CYLINDRICAL_SURFACE('',#1062,0.0984251968503937);
#254=CYLINDRICAL_SURFACE('',#1065,0.0984251968503937);
#255=CYLINDRICAL_SURFACE('',#1068,0.118110236220472);
#256=CYLINDRICAL_SURFACE('',#1071,0.118110236220472);
#257=CYLINDRICAL_SURFACE('',#1106,0.082);
#258=CYLINDRICAL_SURFACE('',#1108,0.082);
#259=CYLINDRICAL_SURFACE('',#1110,0.082);
#260=CYLINDRICAL_SURFACE('',#1112,0.082);
#261=FACE_BOUND('',#340,.T.);
#262=FACE_BOUND('',#354,.T.);
#263=FACE_BOUND('',#362,.T.);
#264=FACE_BOUND('',#370,.T.);
#265=FACE_BOUND('',#378,.T.);
#266=FACE_BOUND('',#397,.T.);
#267=FACE_BOUND('',#398,.T.);
#268=FACE_BOUND('',#399,.T.);
#269=FACE_BOUND('',#400,.T.);
#270=FACE_BOUND('',#401,.T.);
#271=FACE_BOUND('',#402,.T.);
#272=FACE_BOUND('',#403,.T.);
#273=FACE_BOUND('',#404,.T.);
#274=FACE_BOUND('',#405,.T.);
#275=FACE_BOUND('',#406,.T.);
#276=FACE_BOUND('',#408,.T.);
#277=FACE_BOUND('',#409,.T.);
#278=FACE_BOUND('',#410,.T.);
#279=FACE_BOUND('',#411,.T.);
#280=FACE_BOUND('',#412,.T.);
#281=FACE_BOUND('',#413,.T.);
#282=FACE_BOUND('',#414,.T.);
#283=FACE_BOUND('',#415,.T.);
#284=FACE_BOUND('',#416,.T.);
#285=FACE_OUTER_BOUND('',#339,.T.);
#286=FACE_OUTER_BOUND('',#341,.T.);
#287=FACE_OUTER_BOUND('',#342,.T.);
#288=FACE_OUTER_BOUND('',#343,.T.);
#289=FACE_OUTER_BOUND('',#344,.T.);
#290=FACE_OUTER_BOUND('',#345,.T.);
#291=FACE_OUTER_BOUND('',#346,.T.);
#292=FACE_OUTER_BOUND('',#347,.T.);
#293=FACE_OUTER_BOUND('',#348,.T.);
#294=FACE_OUTER_BOUND('',#349,.T.);
#295=FACE_OUTER_BOUND('',#350,.T.);
#296=FACE_OUTER_BOUND('',#351,.T.);
#297=FACE_OUTER_BOUND('',#352,.T.);
#298=FACE_OUTER_BOUND('',#353,.T.);
#299=FACE_OUTER_BOUND('',#355,.T.);
#300=FACE_OUTER_BOUND('',#356,.T.);
#301=FACE_OUTER_BOUND('',#357,.T.);
#302=FACE_OUTER_BOUND('',#358,.T.);
#303=FACE_OUTER_BOUND('',#359,.T.);
#304=FACE_OUTER_BOUND('',#360,.T.);
#305=FACE_OUTER_BOUND('',#361,.T.);
#306=FACE_OUTER_BOUND('',#363,.T.);
#307=FACE_OUTER_BOUND('',#364,.T.);
#308=FACE_OUTER_BOUND('',#365,.T.);
#309=FACE_OUTER_BOUND('',#366,.T.);
#310=FACE_OUTER_BOUND('',#367,.T.);
#311=FACE_OUTER_BOUND('',#368,.T.);
#312=FACE_OUTER_BOUND('',#369,.T.);
#313=FACE_OUTER_BOUND('',#371,.T.);
#314=FACE_OUTER_BOUND('',#372,.T.);
#315=FACE_OUTER_BOUND('',#373,.T.);
#316=FACE_OUTER_BOUND('',#374,.T.);
#317=FACE_OUTER_BOUND('',#375,.T.);
#318=FACE_OUTER_BOUND('',#376,.T.);
#319=FACE_OUTER_BOUND('',#377,.T.);
#320=FACE_OUTER_BOUND('',#379,.T.);
#321=FACE_OUTER_BOUND('',#380,.T.);
#322=FACE_OUTER_BOUND('',#381,.T.);
#323=FACE_OUTER_BOUND('',#382,.T.);
#324=FACE_OUTER_BOUND('',#383,.T.);
#325=FACE_OUTER_BOUND('',#384,.T.);
#326=FACE_OUTER_BOUND('',#385,.T.);
#327=FACE_OUTER_BOUND('',#386,.T.);
#328=FACE_OUTER_BOUND('',#387,.T.);
#329=FACE_OUTER_BOUND('',#388,.T.);
#330=FACE_OUTER_BOUND('',#389,.T.);
#331=FACE_OUTER_BOUND('',#390,.T.);
#332=FACE_OUTER_BOUND('',#391,.T.);
#333=FACE_OUTER_BOUND('',#392,.T.);
#334=FACE_OUTER_BOUND('',#393,.T.);
#335=FACE_OUTER_BOUND('',#394,.T.);
#336=FACE_OUTER_BOUND('',#395,.T.);
#337=FACE_OUTER_BOUND('',#396,.T.);
#338=FACE_OUTER_BOUND('',#407,.T.);
#339=EDGE_LOOP('',(#667));
#340=EDGE_LOOP('',(#668));
#341=EDGE_LOOP('',(#669,#670,#671,#672));
#342=EDGE_LOOP('',(#673,#674,#675,#676));
#343=EDGE_LOOP('',(#677,#678,#679,#680));
#344=EDGE_LOOP('',(#681,#682,#683,#684));
#345=EDGE_LOOP('',(#685,#686,#687,#688));
#346=EDGE_LOOP('',(#689,#690,#691,#692));
#347=EDGE_LOOP('',(#693,#694,#695,#696));
#348=EDGE_LOOP('',(#697,#698,#699,#700));
#349=EDGE_LOOP('',(#701,#702,#703,#704));
#350=EDGE_LOOP('',(#705,#706,#707,#708));
#351=EDGE_LOOP('',(#709,#710,#711,#712));
#352=EDGE_LOOP('',(#713,#714,#715,#716));
#353=EDGE_LOOP('',(#717,#718,#719,#720,#721,#722));
#354=EDGE_LOOP('',(#723));
#355=EDGE_LOOP('',(#724,#725,#726,#727));
#356=EDGE_LOOP('',(#728,#729,#730,#731));
#357=EDGE_LOOP('',(#732,#733,#734,#735));
#358=EDGE_LOOP('',(#736,#737,#738,#739));
#359=EDGE_LOOP('',(#740,#741,#742,#743));
#360=EDGE_LOOP('',(#744,#745,#746,#747));
#361=EDGE_LOOP('',(#748,#749,#750,#751,#752,#753));
#362=EDGE_LOOP('',(#754));
#363=EDGE_LOOP('',(#755,#756,#757,#758));
#364=EDGE_LOOP('',(#759,#760,#761,#762));
#365=EDGE_LOOP('',(#763,#764,#765,#766));
#366=EDGE_LOOP('',(#767,#768,#769,#770));
#367=EDGE_LOOP('',(#771,#772,#773,#774));
#368=EDGE_LOOP('',(#775,#776,#777,#778));
#369=EDGE_LOOP('',(#779,#780,#781,#782,#783,#784));
#370=EDGE_LOOP('',(#785));
#371=EDGE_LOOP('',(#786,#787,#788,#789));
#372=EDGE_LOOP('',(#790,#791,#792,#793));
#373=EDGE_LOOP('',(#794,#795,#796,#797));
#374=EDGE_LOOP('',(#798,#799,#800,#801));
#375=EDGE_LOOP('',(#802,#803,#804,#805));
#376=EDGE_LOOP('',(#806,#807,#808,#809));
#377=EDGE_LOOP('',(#810,#811,#812,#813,#814,#815));
#378=EDGE_LOOP('',(#816));
#379=EDGE_LOOP('',(#817,#818,#819,#820));
#380=EDGE_LOOP('',(#821,#822,#823,#824));
#381=EDGE_LOOP('',(#825,#826,#827,#828));
#382=EDGE_LOOP('',(#829,#830,#831,#832));
#383=EDGE_LOOP('',(#833,#834,#835,#836));
#384=EDGE_LOOP('',(#837,#838,#839,#840));
#385=EDGE_LOOP('',(#841,#842,#843,#844));
#386=EDGE_LOOP('',(#845,#846,#847,#848));
#387=EDGE_LOOP('',(#849,#850,#851,#852));
#388=EDGE_LOOP('',(#853,#854,#855,#856));
#389=EDGE_LOOP('',(#857,#858,#859,#860));
#390=EDGE_LOOP('',(#861,#862,#863,#864));
#391=EDGE_LOOP('',(#865,#866,#867,#868));
#392=EDGE_LOOP('',(#869,#870,#871,#872,#873,#874,#875,#876));
#393=EDGE_LOOP('',(#877,#878,#879,#880));
#394=EDGE_LOOP('',(#881,#882,#883,#884));
#395=EDGE_LOOP('',(#885,#886,#887,#888));
#396=EDGE_LOOP('',(#889,#890,#891,#892,#893,#894,#895,#896));
#397=EDGE_LOOP('',(#897));
#398=EDGE_LOOP('',(#898));
#399=EDGE_LOOP('',(#899));
#400=EDGE_LOOP('',(#900));
#401=EDGE_LOOP('',(#901));
#402=EDGE_LOOP('',(#902));
#403=EDGE_LOOP('',(#903));
#404=EDGE_LOOP('',(#904));
#405=EDGE_LOOP('',(#905));
#406=EDGE_LOOP('',(#906,#907,#908,#909));
#407=EDGE_LOOP('',(#910,#911,#912,#913));
#408=EDGE_LOOP('',(#914));
#409=EDGE_LOOP('',(#915));
#410=EDGE_LOOP('',(#916));
#411=EDGE_LOOP('',(#917));
#412=EDGE_LOOP('',(#918));
#413=EDGE_LOOP('',(#919,#920,#921,#922,#923,#924));
#414=EDGE_LOOP('',(#925,#926,#927,#928,#929,#930));
#415=EDGE_LOOP('',(#931,#932,#933,#934,#935,#936));
#416=EDGE_LOOP('',(#937,#938,#939,#940,#941,#942));
#417=CIRCLE('',#1056,0.15);
#418=CIRCLE('',#1057,0.082);
#419=CIRCLE('',#1059,0.15);
#420=CIRCLE('',#1061,0.082);
#421=CIRCLE('',#1063,0.0984251968503937);
#422=CIRCLE('',#1064,0.0984251968503937);
#423=CIRCLE('',#1066,0.0984251968503937);
#424=CIRCLE('',#1067,0.0984251968503937);
#425=CIRCLE('',#1069,0.118110236220472);
#426=CIRCLE('',#1070,0.118110236220472);
#427=CIRCLE('',#1072,0.118110236220472);
#428=CIRCLE('',#1073,0.118110236220472);
#429=CIRCLE('',#1081,0.082);
#430=CIRCLE('',#1089,0.082);
#431=CIRCLE('',#1097,0.082);
#432=CIRCLE('',#1105,0.082);
#433=CIRCLE('',#1107,0.082);
#434=CIRCLE('',#1109,0.082);
#435=CIRCLE('',#1111,0.082);
#436=CIRCLE('',#1113,0.082);
#437=VERTEX_POINT('',#1399);
#438=VERTEX_POINT('',#1401);
#439=VERTEX_POINT('',#1404);
#440=VERTEX_POINT('',#1408);
#441=VERTEX_POINT('',#1412);
#442=VERTEX_POINT('',#1414);
#443=VERTEX_POINT('',#1418);
#444=VERTEX_POINT('',#1420);
#445=VERTEX_POINT('',#1424);
#446=VERTEX_POINT('',#1426);
#447=VERTEX_POINT('',#1430);
#448=VERTEX_POINT('',#1432);
#449=VERTEX_POINT('',#1436);
#450=VERTEX_POINT('',#1437);
#451=VERTEX_POINT('',#1439);
#452=VERTEX_POINT('',#1441);
#453=VERTEX_POINT('',#1445);
#454=VERTEX_POINT('',#1447);
#455=VERTEX_POINT('',#1451);
#456=VERTEX_POINT('',#1453);
#457=VERTEX_POINT('',#1457);
#458=VERTEX_POINT('',#1459);
#459=VERTEX_POINT('',#1463);
#460=VERTEX_POINT('',#1465);
#461=VERTEX_POINT('',#1472);
#462=VERTEX_POINT('',#1475);
#463=VERTEX_POINT('',#1476);
#464=VERTEX_POINT('',#1478);
#465=VERTEX_POINT('',#1480);
#466=VERTEX_POINT('',#1484);
#467=VERTEX_POINT('',#1486);
#468=VERTEX_POINT('',#1490);
#469=VERTEX_POINT('',#1492);
#470=VERTEX_POINT('',#1496);
#471=VERTEX_POINT('',#1498);
#472=VERTEX_POINT('',#1502);
#473=VERTEX_POINT('',#1504);
#474=VERTEX_POINT('',#1511);
#475=VERTEX_POINT('',#1514);
#476=VERTEX_POINT('',#1515);
#477=VERTEX_POINT('',#1517);
#478=VERTEX_POINT('',#1519);
#479=VERTEX_POINT('',#1523);
#480=VERTEX_POINT('',#1525);
#481=VERTEX_POINT('',#1529);
#482=VERTEX_POINT('',#1531);
#483=VERTEX_POINT('',#1535);
#484=VERTEX_POINT('',#1537);
#485=VERTEX_POINT('',#1541);
#486=VERTEX_POINT('',#1543);
#487=VERTEX_POINT('',#1550);
#488=VERTEX_POINT('',#1553);
#489=VERTEX_POINT('',#1554);
#490=VERTEX_POINT('',#1556);
#491=VERTEX_POINT('',#1558);
#492=VERTEX_POINT('',#1562);
#493=VERTEX_POINT('',#1564);
#494=VERTEX_POINT('',#1568);
#495=VERTEX_POINT('',#1570);
#496=VERTEX_POINT('',#1574);
#497=VERTEX_POINT('',#1576);
#498=VERTEX_POINT('',#1580);
#499=VERTEX_POINT('',#1582);
#500=VERTEX_POINT('',#1589);
#501=VERTEX_POINT('',#1592);
#502=VERTEX_POINT('',#1596);
#503=VERTEX_POINT('',#1600);
#504=VERTEX_POINT('',#1604);
#505=VERTEX_POINT('',#1608);
#506=VERTEX_POINT('',#1609);
#507=VERTEX_POINT('',#1611);
#508=VERTEX_POINT('',#1613);
#509=VERTEX_POINT('',#1617);
#510=VERTEX_POINT('',#1619);
#511=VERTEX_POINT('',#1623);
#512=VERTEX_POINT('',#1625);
#513=VERTEX_POINT('',#1633);
#514=VERTEX_POINT('',#1634);
#515=VERTEX_POINT('',#1636);
#516=VERTEX_POINT('',#1638);
#517=VERTEX_POINT('',#1642);
#518=VERTEX_POINT('',#1644);
#519=VERTEX_POINT('',#1648);
#520=VERTEX_POINT('',#1650);
#521=VERTEX_POINT('',#1656);
#522=VERTEX_POINT('',#1658);
#523=VERTEX_POINT('',#1660);
#524=VERTEX_POINT('',#1662);
#525=VERTEX_POINT('',#1666);
#526=VERTEX_POINT('',#1668);
#527=VERTEX_POINT('',#1672);
#528=VERTEX_POINT('',#1674);
#529=EDGE_CURVE('',#437,#437,#417,.T.);
#530=EDGE_CURVE('',#438,#438,#418,.T.);
#531=EDGE_CURVE('',#439,#439,#419,.T.);
#532=EDGE_CURVE('',#439,#437,#15,.T.);
#533=EDGE_CURVE('',#438,#440,#16,.T.);
#534=EDGE_CURVE('',#440,#440,#420,.T.);
#535=EDGE_CURVE('',#441,#441,#421,.T.);
#536=EDGE_CURVE('',#441,#442,#17,.T.);
#537=EDGE_CURVE('',#442,#442,#422,.T.);
#538=EDGE_CURVE('',#443,#443,#423,.T.);
#539=EDGE_CURVE('',#443,#444,#18,.T.);
#540=EDGE_CURVE('',#444,#444,#424,.T.);
#541=EDGE_CURVE('',#445,#445,#425,.T.);
#542=EDGE_CURVE('',#445,#446,#19,.T.);
#543=EDGE_CURVE('',#446,#446,#426,.T.);
#544=EDGE_CURVE('',#447,#447,#427,.T.);
#545=EDGE_CURVE('',#447,#448,#20,.T.);
#546=EDGE_CURVE('',#448,#448,#428,.T.);
#547=EDGE_CURVE('',#449,#450,#21,.T.);
#548=EDGE_CURVE('',#449,#451,#22,.T.);
#549=EDGE_CURVE('',#451,#452,#23,.T.);
#550=EDGE_CURVE('',#450,#452,#24,.T.);
#551=EDGE_CURVE('',#453,#449,#25,.T.);
#552=EDGE_CURVE('',#453,#454,#26,.T.);
#553=EDGE_CURVE('',#454,#451,#27,.T.);
#554=EDGE_CURVE('',#455,#453,#28,.T.);
#555=EDGE_CURVE('',#455,#456,#29,.T.);
#556=EDGE_CURVE('',#456,#454,#30,.T.);
#557=EDGE_CURVE('',#457,#455,#31,.T.);
#558=EDGE_CURVE('',#457,#458,#32,.T.);
#559=EDGE_CURVE('',#458,#456,#33,.T.);
#560=EDGE_CURVE('',#459,#457,#34,.T.);
#561=EDGE_CURVE('',#459,#460,#35,.T.);
#562=EDGE_CURVE('',#460,#458,#36,.T.);
#563=EDGE_CURVE('',#450,#459,#37,.T.);
#564=EDGE_CURVE('',#452,#460,#38,.T.);
#565=EDGE_CURVE('',#461,#461,#429,.T.);
#566=EDGE_CURVE('',#462,#463,#39,.T.);
#567=EDGE_CURVE('',#462,#464,#40,.T.);
#568=EDGE_CURVE('',#464,#465,#41,.T.);
#569=EDGE_CURVE('',#463,#465,#42,.T.);
#570=EDGE_CURVE('',#466,#462,#43,.T.);
#571=EDGE_CURVE('',#466,#467,#44,.T.);
#572=EDGE_CURVE('',#467,#464,#45,.T.);
#573=EDGE_CURVE('',#468,#466,#46,.T.);
#574=EDGE_CURVE('',#468,#469,#47,.T.);
#575=EDGE_CURVE('',#469,#467,#48,.T.);
#576=EDGE_CURVE('',#470,#468,#49,.T.);
#577=EDGE_CURVE('',#470,#471,#50,.T.);
#578=EDGE_CURVE('',#471,#469,#51,.T.);
#579=EDGE_CURVE('',#472,#470,#52,.T.);
#580=EDGE_CURVE('',#472,#473,#53,.T.);
#581=EDGE_CURVE('',#473,#471,#54,.T.);
#582=EDGE_CURVE('',#463,#472,#55,.T.);
#583=EDGE_CURVE('',#465,#473,#56,.T.);
#584=EDGE_CURVE('',#474,#474,#430,.T.);
#585=EDGE_CURVE('',#475,#476,#57,.T.);
#586=EDGE_CURVE('',#475,#477,#58,.T.);
#587=EDGE_CURVE('',#477,#478,#59,.T.);
#588=EDGE_CURVE('',#476,#478,#60,.T.);
#589=EDGE_CURVE('',#479,#475,#61,.T.);
#590=EDGE_CURVE('',#479,#480,#62,.T.);
#591=EDGE_CURVE('',#480,#477,#63,.T.);
#592=EDGE_CURVE('',#481,#479,#64,.T.);
#593=EDGE_CURVE('',#481,#482,#65,.T.);
#594=EDGE_CURVE('',#482,#480,#66,.T.);
#595=EDGE_CURVE('',#483,#481,#67,.T.);
#596=EDGE_CURVE('',#483,#484,#68,.T.);
#597=EDGE_CURVE('',#484,#482,#69,.T.);
#598=EDGE_CURVE('',#485,#483,#70,.T.);
#599=EDGE_CURVE('',#485,#486,#71,.T.);
#600=EDGE_CURVE('',#486,#484,#72,.T.);
#601=EDGE_CURVE('',#476,#485,#73,.T.);
#602=EDGE_CURVE('',#478,#486,#74,.T.);
#603=EDGE_CURVE('',#487,#487,#431,.T.);
#604=EDGE_CURVE('',#488,#489,#75,.T.);
#605=EDGE_CURVE('',#488,#490,#76,.T.);
#606=EDGE_CURVE('',#490,#491,#77,.T.);
#607=EDGE_CURVE('',#489,#491,#78,.T.);
#608=EDGE_CURVE('',#492,#488,#79,.T.);
#609=EDGE_CURVE('',#492,#493,#80,.T.);
#610=EDGE_CURVE('',#493,#490,#81,.T.);
#611=EDGE_CURVE('',#494,#492,#82,.T.);
#612=EDGE_CURVE('',#494,#495,#83,.T.);
#613=EDGE_CURVE('',#495,#493,#84,.T.);
#614=EDGE_CURVE('',#496,#494,#85,.T.);
#615=EDGE_CURVE('',#496,#497,#86,.T.);
#616=EDGE_CURVE('',#497,#495,#87,.T.);
#617=EDGE_CURVE('',#498,#496,#88,.T.);
#618=EDGE_CURVE('',#498,#499,#89,.T.);
#619=EDGE_CURVE('',#499,#497,#90,.T.);
#620=EDGE_CURVE('',#489,#498,#91,.T.);
#621=EDGE_CURVE('',#491,#499,#92,.T.);
#622=EDGE_CURVE('',#500,#500,#432,.T.);
#623=EDGE_CURVE('',#501,#501,#433,.T.);
#624=EDGE_CURVE('',#501,#461,#93,.T.);
#625=EDGE_CURVE('',#502,#502,#434,.T.);
#626=EDGE_CURVE('',#502,#487,#94,.T.);
#627=EDGE_CURVE('',#503,#503,#435,.T.);
#628=EDGE_CURVE('',#503,#500,#95,.T.);
#629=EDGE_CURVE('',#504,#504,#436,.T.);
#630=EDGE_CURVE('',#504,#474,#96,.T.);
#631=EDGE_CURVE('',#505,#506,#97,.T.);
#632=EDGE_CURVE('',#505,#507,#98,.T.);
#633=EDGE_CURVE('',#507,#508,#99,.T.);
#634=EDGE_CURVE('',#506,#508,#100,.T.);
#635=EDGE_CURVE('',#509,#505,#101,.T.);
#636=EDGE_CURVE('',#509,#510,#102,.T.);
#637=EDGE_CURVE('',#510,#507,#103,.T.);
#638=EDGE_CURVE('',#511,#509,#104,.T.);
#639=EDGE_CURVE('',#511,#512,#105,.T.);
#640=EDGE_CURVE('',#512,#510,#106,.T.);
#641=EDGE_CURVE('',#506,#511,#107,.T.);
#642=EDGE_CURVE('',#508,#512,#108,.T.);
#643=EDGE_CURVE('',#513,#514,#109,.T.);
#644=EDGE_CURVE('',#513,#515,#110,.T.);
#645=EDGE_CURVE('',#515,#516,#111,.T.);
#646=EDGE_CURVE('',#514,#516,#112,.T.);
#647=EDGE_CURVE('',#517,#513,#113,.T.);
#648=EDGE_CURVE('',#517,#518,#114,.T.);
#649=EDGE_CURVE('',#518,#515,#115,.T.);
#650=EDGE_CURVE('',#519,#517,#116,.T.);
#651=EDGE_CURVE('',#520,#519,#117,.T.);
#652=EDGE_CURVE('',#520,#518,#118,.T.);
#653=EDGE_CURVE('',#516,#520,#119,.T.);
#654=EDGE_CURVE('',#521,#519,#120,.T.);
#655=EDGE_CURVE('',#522,#521,#121,.T.);
#656=EDGE_CURVE('',#522,#523,#122,.T.);
#657=EDGE_CURVE('',#523,#524,#123,.T.);
#658=EDGE_CURVE('',#514,#524,#124,.T.);
#659=EDGE_CURVE('',#525,#522,#125,.T.);
#660=EDGE_CURVE('',#526,#521,#126,.T.);
#661=EDGE_CURVE('',#525,#526,#127,.T.);
#662=EDGE_CURVE('',#527,#525,#128,.T.);
#663=EDGE_CURVE('',#528,#526,#129,.T.);
#664=EDGE_CURVE('',#527,#528,#130,.T.);
#665=EDGE_CURVE('',#523,#527,#131,.T.);
#666=EDGE_CURVE('',#524,#528,#132,.T.);
#667=ORIENTED_EDGE('',*,*,#529,.F.);
#668=ORIENTED_EDGE('',*,*,#530,.T.);
#669=ORIENTED_EDGE('',*,*,#531,.F.);
#670=ORIENTED_EDGE('',*,*,#532,.T.);
#671=ORIENTED_EDGE('',*,*,#529,.T.);
#672=ORIENTED_EDGE('',*,*,#532,.F.);
#673=ORIENTED_EDGE('',*,*,#530,.F.);
#674=ORIENTED_EDGE('',*,*,#533,.T.);
#675=ORIENTED_EDGE('',*,*,#534,.F.);
#676=ORIENTED_EDGE('',*,*,#533,.F.);
#677=ORIENTED_EDGE('',*,*,#535,.F.);
#678=ORIENTED_EDGE('',*,*,#536,.T.);
#679=ORIENTED_EDGE('',*,*,#537,.F.);
#680=ORIENTED_EDGE('',*,*,#536,.F.);
#681=ORIENTED_EDGE('',*,*,#538,.F.);
#682=ORIENTED_EDGE('',*,*,#539,.T.);
#683=ORIENTED_EDGE('',*,*,#540,.F.);
#684=ORIENTED_EDGE('',*,*,#539,.F.);
#685=ORIENTED_EDGE('',*,*,#541,.F.);
#686=ORIENTED_EDGE('',*,*,#542,.T.);
#687=ORIENTED_EDGE('',*,*,#543,.F.);
#688=ORIENTED_EDGE('',*,*,#542,.F.);
#689=ORIENTED_EDGE('',*,*,#544,.F.);
#690=ORIENTED_EDGE('',*,*,#545,.T.);
#691=ORIENTED_EDGE('',*,*,#546,.F.);
#692=ORIENTED_EDGE('',*,*,#545,.F.);
#693=ORIENTED_EDGE('',*,*,#547,.F.);
#694=ORIENTED_EDGE('',*,*,#548,.T.);
#695=ORIENTED_EDGE('',*,*,#549,.T.);
#696=ORIENTED_EDGE('',*,*,#550,.F.);
#697=ORIENTED_EDGE('',*,*,#551,.F.);
#698=ORIENTED_EDGE('',*,*,#552,.T.);
#699=ORIENTED_EDGE('',*,*,#553,.T.);
#700=ORIENTED_EDGE('',*,*,#548,.F.);
#701=ORIENTED_EDGE('',*,*,#554,.F.);
#702=ORIENTED_EDGE('',*,*,#555,.T.);
#703=ORIENTED_EDGE('',*,*,#556,.T.);
#704=ORIENTED_EDGE('',*,*,#552,.F.);
#705=ORIENTED_EDGE('',*,*,#557,.F.);
#706=ORIENTED_EDGE('',*,*,#558,.T.);
#707=ORIENTED_EDGE('',*,*,#559,.T.);
#708=ORIENTED_EDGE('',*,*,#555,.F.);
#709=ORIENTED_EDGE('',*,*,#560,.F.);
#710=ORIENTED_EDGE('',*,*,#561,.T.);
#711=ORIENTED_EDGE('',*,*,#562,.T.);
#712=ORIENTED_EDGE('',*,*,#558,.F.);
#713=ORIENTED_EDGE('',*,*,#563,.F.);
#714=ORIENTED_EDGE('',*,*,#550,.T.);
#715=ORIENTED_EDGE('',*,*,#564,.T.);
#716=ORIENTED_EDGE('',*,*,#561,.F.);
#717=ORIENTED_EDGE('',*,*,#564,.F.);
#718=ORIENTED_EDGE('',*,*,#549,.F.);
#719=ORIENTED_EDGE('',*,*,#553,.F.);
#720=ORIENTED_EDGE('',*,*,#556,.F.);
#721=ORIENTED_EDGE('',*,*,#559,.F.);
#722=ORIENTED_EDGE('',*,*,#562,.F.);
#723=ORIENTED_EDGE('',*,*,#565,.F.);
#724=ORIENTED_EDGE('',*,*,#566,.F.);
#725=ORIENTED_EDGE('',*,*,#567,.T.);
#726=ORIENTED_EDGE('',*,*,#568,.T.);
#727=ORIENTED_EDGE('',*,*,#569,.F.);
#728=ORIENTED_EDGE('',*,*,#570,.F.);
#729=ORIENTED_EDGE('',*,*,#571,.T.);
#730=ORIENTED_EDGE('',*,*,#572,.T.);
#731=ORIENTED_EDGE('',*,*,#567,.F.);
#732=ORIENTED_EDGE('',*,*,#573,.F.);
#733=ORIENTED_EDGE('',*,*,#574,.T.);
#734=ORIENTED_EDGE('',*,*,#575,.T.);
#735=ORIENTED_EDGE('',*,*,#571,.F.);
#736=ORIENTED_EDGE('',*,*,#576,.F.);
#737=ORIENTED_EDGE('',*,*,#577,.T.);
#738=ORIENTED_EDGE('',*,*,#578,.T.);
#739=ORIENTED_EDGE('',*,*,#574,.F.);
#740=ORIENTED_EDGE('',*,*,#579,.F.);
#741=ORIENTED_EDGE('',*,*,#580,.T.);
#742=ORIENTED_EDGE('',*,*,#581,.T.);
#743=ORIENTED_EDGE('',*,*,#577,.F.);
#744=ORIENTED_EDGE('',*,*,#582,.F.);
#745=ORIENTED_EDGE('',*,*,#569,.T.);
#746=ORIENTED_EDGE('',*,*,#583,.T.);
#747=ORIENTED_EDGE('',*,*,#580,.F.);
#748=ORIENTED_EDGE('',*,*,#583,.F.);
#749=ORIENTED_EDGE('',*,*,#568,.F.);
#750=ORIENTED_EDGE('',*,*,#572,.F.);
#751=ORIENTED_EDGE('',*,*,#575,.F.);
#752=ORIENTED_EDGE('',*,*,#578,.F.);
#753=ORIENTED_EDGE('',*,*,#581,.F.);
#754=ORIENTED_EDGE('',*,*,#584,.F.);
#755=ORIENTED_EDGE('',*,*,#585,.F.);
#756=ORIENTED_EDGE('',*,*,#586,.T.);
#757=ORIENTED_EDGE('',*,*,#587,.T.);
#758=ORIENTED_EDGE('',*,*,#588,.F.);
#759=ORIENTED_EDGE('',*,*,#589,.F.);
#760=ORIENTED_EDGE('',*,*,#590,.T.);
#761=ORIENTED_EDGE('',*,*,#591,.T.);
#762=ORIENTED_EDGE('',*,*,#586,.F.);
#763=ORIENTED_EDGE('',*,*,#592,.F.);
#764=ORIENTED_EDGE('',*,*,#593,.T.);
#765=ORIENTED_EDGE('',*,*,#594,.T.);
#766=ORIENTED_EDGE('',*,*,#590,.F.);
#767=ORIENTED_EDGE('',*,*,#595,.F.);
#768=ORIENTED_EDGE('',*,*,#596,.T.);
#769=ORIENTED_EDGE('',*,*,#597,.T.);
#770=ORIENTED_EDGE('',*,*,#593,.F.);
#771=ORIENTED_EDGE('',*,*,#598,.F.);
#772=ORIENTED_EDGE('',*,*,#599,.T.);
#773=ORIENTED_EDGE('',*,*,#600,.T.);
#774=ORIENTED_EDGE('',*,*,#596,.F.);
#775=ORIENTED_EDGE('',*,*,#601,.F.);
#776=ORIENTED_EDGE('',*,*,#588,.T.);
#777=ORIENTED_EDGE('',*,*,#602,.T.);
#778=ORIENTED_EDGE('',*,*,#599,.F.);
#779=ORIENTED_EDGE('',*,*,#602,.F.);
#780=ORIENTED_EDGE('',*,*,#587,.F.);
#781=ORIENTED_EDGE('',*,*,#591,.F.);
#782=ORIENTED_EDGE('',*,*,#594,.F.);
#783=ORIENTED_EDGE('',*,*,#597,.F.);
#784=ORIENTED_EDGE('',*,*,#600,.F.);
#785=ORIENTED_EDGE('',*,*,#603,.F.);
#786=ORIENTED_EDGE('',*,*,#604,.F.);
#787=ORIENTED_EDGE('',*,*,#605,.T.);
#788=ORIENTED_EDGE('',*,*,#606,.T.);
#789=ORIENTED_EDGE('',*,*,#607,.F.);
#790=ORIENTED_EDGE('',*,*,#608,.F.);
#791=ORIENTED_EDGE('',*,*,#609,.T.);
#792=ORIENTED_EDGE('',*,*,#610,.T.);
#793=ORIENTED_EDGE('',*,*,#605,.F.);
#794=ORIENTED_EDGE('',*,*,#611,.F.);
#795=ORIENTED_EDGE('',*,*,#612,.T.);
#796=ORIENTED_EDGE('',*,*,#613,.T.);
#797=ORIENTED_EDGE('',*,*,#609,.F.);
#798=ORIENTED_EDGE('',*,*,#614,.F.);
#799=ORIENTED_EDGE('',*,*,#615,.T.);
#800=ORIENTED_EDGE('',*,*,#616,.T.);
#801=ORIENTED_EDGE('',*,*,#612,.F.);
#802=ORIENTED_EDGE('',*,*,#617,.F.);
#803=ORIENTED_EDGE('',*,*,#618,.T.);
#804=ORIENTED_EDGE('',*,*,#619,.T.);
#805=ORIENTED_EDGE('',*,*,#615,.F.);
#806=ORIENTED_EDGE('',*,*,#620,.F.);
#807=ORIENTED_EDGE('',*,*,#607,.T.);
#808=ORIENTED_EDGE('',*,*,#621,.T.);
#809=ORIENTED_EDGE('',*,*,#618,.F.);
#810=ORIENTED_EDGE('',*,*,#621,.F.);
#811=ORIENTED_EDGE('',*,*,#606,.F.);
#812=ORIENTED_EDGE('',*,*,#610,.F.);
#813=ORIENTED_EDGE('',*,*,#613,.F.);
#814=ORIENTED_EDGE('',*,*,#616,.F.);
#815=ORIENTED_EDGE('',*,*,#619,.F.);
#816=ORIENTED_EDGE('',*,*,#622,.F.);
#817=ORIENTED_EDGE('',*,*,#623,.F.);
#818=ORIENTED_EDGE('',*,*,#624,.T.);
#819=ORIENTED_EDGE('',*,*,#565,.T.);
#820=ORIENTED_EDGE('',*,*,#624,.F.);
#821=ORIENTED_EDGE('',*,*,#625,.F.);
#822=ORIENTED_EDGE('',*,*,#626,.T.);
#823=ORIENTED_EDGE('',*,*,#603,.T.);
#824=ORIENTED_EDGE('',*,*,#626,.F.);
#825=ORIENTED_EDGE('',*,*,#627,.F.);
#826=ORIENTED_EDGE('',*,*,#628,.T.);
#827=ORIENTED_EDGE('',*,*,#622,.T.);
#828=ORIENTED_EDGE('',*,*,#628,.F.);
#829=ORIENTED_EDGE('',*,*,#629,.F.);
#830=ORIENTED_EDGE('',*,*,#630,.T.);
#831=ORIENTED_EDGE('',*,*,#584,.T.);
#832=ORIENTED_EDGE('',*,*,#630,.F.);
#833=ORIENTED_EDGE('',*,*,#631,.F.);
#834=ORIENTED_EDGE('',*,*,#632,.T.);
#835=ORIENTED_EDGE('',*,*,#633,.T.);
#836=ORIENTED_EDGE('',*,*,#634,.F.);
#837=ORIENTED_EDGE('',*,*,#635,.F.);
#838=ORIENTED_EDGE('',*,*,#636,.T.);
#839=ORIENTED_EDGE('',*,*,#637,.T.);
#840=ORIENTED_EDGE('',*,*,#632,.F.);
#841=ORIENTED_EDGE('',*,*,#638,.F.);
#842=ORIENTED_EDGE('',*,*,#639,.T.);
#843=ORIENTED_EDGE('',*,*,#640,.T.);
#844=ORIENTED_EDGE('',*,*,#636,.F.);
#845=ORIENTED_EDGE('',*,*,#641,.F.);
#846=ORIENTED_EDGE('',*,*,#634,.T.);
#847=ORIENTED_EDGE('',*,*,#642,.T.);
#848=ORIENTED_EDGE('',*,*,#639,.F.);
#849=ORIENTED_EDGE('',*,*,#642,.F.);
#850=ORIENTED_EDGE('',*,*,#633,.F.);
#851=ORIENTED_EDGE('',*,*,#637,.F.);
#852=ORIENTED_EDGE('',*,*,#640,.F.);
#853=ORIENTED_EDGE('',*,*,#643,.F.);
#854=ORIENTED_EDGE('',*,*,#644,.T.);
#855=ORIENTED_EDGE('',*,*,#645,.T.);
#856=ORIENTED_EDGE('',*,*,#646,.F.);
#857=ORIENTED_EDGE('',*,*,#647,.F.);
#858=ORIENTED_EDGE('',*,*,#648,.T.);
#859=ORIENTED_EDGE('',*,*,#649,.T.);
#860=ORIENTED_EDGE('',*,*,#644,.F.);
#861=ORIENTED_EDGE('',*,*,#650,.F.);
#862=ORIENTED_EDGE('',*,*,#651,.F.);
#863=ORIENTED_EDGE('',*,*,#652,.T.);
#864=ORIENTED_EDGE('',*,*,#648,.F.);
#865=ORIENTED_EDGE('',*,*,#653,.F.);
#866=ORIENTED_EDGE('',*,*,#645,.F.);
#867=ORIENTED_EDGE('',*,*,#649,.F.);
#868=ORIENTED_EDGE('',*,*,#652,.F.);
#869=ORIENTED_EDGE('',*,*,#646,.T.);
#870=ORIENTED_EDGE('',*,*,#653,.T.);
#871=ORIENTED_EDGE('',*,*,#651,.T.);
#872=ORIENTED_EDGE('',*,*,#654,.F.);
#873=ORIENTED_EDGE('',*,*,#655,.F.);
#874=ORIENTED_EDGE('',*,*,#656,.T.);
#875=ORIENTED_EDGE('',*,*,#657,.T.);
#876=ORIENTED_EDGE('',*,*,#658,.F.);
#877=ORIENTED_EDGE('',*,*,#659,.T.);
#878=ORIENTED_EDGE('',*,*,#655,.T.);
#879=ORIENTED_EDGE('',*,*,#660,.F.);
#880=ORIENTED_EDGE('',*,*,#661,.F.);
#881=ORIENTED_EDGE('',*,*,#662,.T.);
#882=ORIENTED_EDGE('',*,*,#661,.T.);
#883=ORIENTED_EDGE('',*,*,#663,.F.);
#884=ORIENTED_EDGE('',*,*,#664,.F.);
#885=ORIENTED_EDGE('',*,*,#665,.T.);
#886=ORIENTED_EDGE('',*,*,#664,.T.);
#887=ORIENTED_EDGE('',*,*,#666,.F.);
#888=ORIENTED_EDGE('',*,*,#657,.F.);
#889=ORIENTED_EDGE('',*,*,#643,.T.);
#890=ORIENTED_EDGE('',*,*,#658,.T.);
#891=ORIENTED_EDGE('',*,*,#666,.T.);
#892=ORIENTED_EDGE('',*,*,#663,.T.);
#893=ORIENTED_EDGE('',*,*,#660,.T.);
#894=ORIENTED_EDGE('',*,*,#654,.T.);
#895=ORIENTED_EDGE('',*,*,#650,.T.);
#896=ORIENTED_EDGE('',*,*,#647,.T.);
#897=ORIENTED_EDGE('',*,*,#534,.T.);
#898=ORIENTED_EDGE('',*,*,#535,.T.);
#899=ORIENTED_EDGE('',*,*,#538,.T.);
#900=ORIENTED_EDGE('',*,*,#541,.T.);
#901=ORIENTED_EDGE('',*,*,#544,.T.);
#902=ORIENTED_EDGE('',*,*,#623,.T.);
#903=ORIENTED_EDGE('',*,*,#625,.T.);
#904=ORIENTED_EDGE('',*,*,#627,.T.);
#905=ORIENTED_EDGE('',*,*,#629,.T.);
#906=ORIENTED_EDGE('',*,*,#631,.T.);
#907=ORIENTED_EDGE('',*,*,#641,.T.);
#908=ORIENTED_EDGE('',*,*,#638,.T.);
#909=ORIENTED_EDGE('',*,*,#635,.T.);
#910=ORIENTED_EDGE('',*,*,#656,.F.);
#911=ORIENTED_EDGE('',*,*,#659,.F.);
#912=ORIENTED_EDGE('',*,*,#662,.F.);
#913=ORIENTED_EDGE('',*,*,#665,.F.);
#914=ORIENTED_EDGE('',*,*,#531,.T.);
#915=ORIENTED_EDGE('',*,*,#537,.T.);
#916=ORIENTED_EDGE('',*,*,#540,.T.);
#917=ORIENTED_EDGE('',*,*,#543,.T.);
#918=ORIENTED_EDGE('',*,*,#546,.T.);
#919=ORIENTED_EDGE('',*,*,#547,.T.);
#920=ORIENTED_EDGE('',*,*,#563,.T.);
#921=ORIENTED_EDGE('',*,*,#560,.T.);
#922=ORIENTED_EDGE('',*,*,#557,.T.);
#923=ORIENTED_EDGE('',*,*,#554,.T.);
#924=ORIENTED_EDGE('',*,*,#551,.T.);
#925=ORIENTED_EDGE('',*,*,#566,.T.);
#926=ORIENTED_EDGE('',*,*,#582,.T.);
#927=ORIENTED_EDGE('',*,*,#579,.T.);
#928=ORIENTED_EDGE('',*,*,#576,.T.);
#929=ORIENTED_EDGE('',*,*,#573,.T.);
#930=ORIENTED_EDGE('',*,*,#570,.T.);
#931=ORIENTED_EDGE('',*,*,#585,.T.);
#932=ORIENTED_EDGE('',*,*,#601,.T.);
#933=ORIENTED_EDGE('',*,*,#598,.T.);
#934=ORIENTED_EDGE('',*,*,#595,.T.);
#935=ORIENTED_EDGE('',*,*,#592,.T.);
#936=ORIENTED_EDGE('',*,*,#589,.T.);
#937=ORIENTED_EDGE('',*,*,#604,.T.);
#938=ORIENTED_EDGE('',*,*,#620,.T.);
#939=ORIENTED_EDGE('',*,*,#617,.T.);
#940=ORIENTED_EDGE('',*,*,#614,.T.);
#941=ORIENTED_EDGE('',*,*,#611,.T.);
#942=ORIENTED_EDGE('',*,*,#608,.T.);
#943=PLANE('',#1055);
#944=PLANE('',#1074);
#945=PLANE('',#1075);
#946=PLANE('',#1076);
#947=PLANE('',#1077);
#948=PLANE('',#1078);
#949=PLANE('',#1079);
#950=PLANE('',#1080);
#951=PLANE('',#1082);
#952=PLANE('',#1083);
#953=PLANE('',#1084);
#954=PLANE('',#1085);
#955=PLANE('',#1086);
#956=PLANE('',#1087);
#957=PLANE('',#1088);
#958=PLANE('',#1090);
#959=PLANE('',#1091);
#960=PLANE('',#1092);
#961=PLANE('',#1093);
#962=PLANE('',#1094);
#963=PLANE('',#1095);
#964=PLANE('',#1096);
#965=PLANE('',#1098);
#966=PLANE('',#1099);
#967=PLANE('',#1100);
#968=PLANE('',#1101);
#969=PLANE('',#1102);
#970=PLANE('',#1103);
#971=PLANE('',#1104);
#972=PLANE('',#1114);
#973=PLANE('',#1115);
#974=PLANE('',#1116);
#975=PLANE('',#1117);
#976=PLANE('',#1118);
#977=PLANE('',#1119);
#978=PLANE('',#1120);
#979=PLANE('',#1121);
#980=PLANE('',#1122);
#981=PLANE('',#1123);
#982=PLANE('',#1124);
#983=PLANE('',#1125);
#984=PLANE('',#1126);
#985=PLANE('',#1127);
#986=PLANE('',#1128);
#987=ADVANCED_FACE('',(#285,#261),#943,.F.);
#988=ADVANCED_FACE('',(#286),#251,.F.);
#989=ADVANCED_FACE('',(#287),#252,.F.);
#990=ADVANCED_FACE('',(#288),#253,.F.);
#991=ADVANCED_FACE('',(#289),#254,.F.);
#992=ADVANCED_FACE('',(#290),#255,.F.);
#993=ADVANCED_FACE('',(#291),#256,.F.);
#994=ADVANCED_FACE('',(#292),#944,.F.);
#995=ADVANCED_FACE('',(#293),#945,.F.);
#996=ADVANCED_FACE('',(#294),#946,.F.);
#997=ADVANCED_FACE('',(#295),#947,.F.);
#998=ADVANCED_FACE('',(#296),#948,.F.);
#999=ADVANCED_FACE('',(#297),#949,.F.);
#1000=ADVANCED_FACE('',(#298,#262),#950,.F.);
#1001=ADVANCED_FACE('',(#299),#951,.F.);
#1002=ADVANCED_FACE('',(#300),#952,.F.);
#1003=ADVANCED_FACE('',(#301),#953,.F.);
#1004=ADVANCED_FACE('',(#302),#954,.F.);
#1005=ADVANCED_FACE('',(#303),#955,.F.);
#1006=ADVANCED_FACE('',(#304),#956,.F.);
#1007=ADVANCED_FACE('',(#305,#263),#957,.F.);
#1008=ADVANCED_FACE('',(#306),#958,.F.);
#1009=ADVANCED_FACE('',(#307),#959,.F.);
#1010=ADVANCED_FACE('',(#308),#960,.F.);
#1011=ADVANCED_FACE('',(#309),#961,.F.);
#1012=ADVANCED_FACE('',(#310),#962,.F.);
#1013=ADVANCED_FACE('',(#311),#963,.F.);
#1014=ADVANCED_FACE('',(#312,#264),#964,.F.);
#1015=ADVANCED_FACE('',(#313),#965,.F.);
#1016=ADVANCED_FACE('',(#314),#966,.F.);
#1017=ADVANCED_FACE('',(#315),#967,.F.);
#1018=ADVANCED_FACE('',(#316),#968,.F.);
#1019=ADVANCED_FACE('',(#317),#969,.F.);
#1020=ADVANCED_FACE('',(#318),#970,.F.);
#1021=ADVANCED_FACE('',(#319,#265),#971,.F.);
#1022=ADVANCED_FACE('',(#320),#257,.F.);
#1023=ADVANCED_FACE('',(#321),#258,.F.);
#1024=ADVANCED_FACE('',(#322),#259,.F.);
#1025=ADVANCED_FACE('',(#323),#260,.F.);
#1026=ADVANCED_FACE('',(#324),#972,.F.);
#1027=ADVANCED_FACE('',(#325),#973,.F.);
#1028=ADVANCED_FACE('',(#326),#974,.F.);
#1029=ADVANCED_FACE('',(#327),#975,.F.);
#1030=ADVANCED_FACE('',(#328),#976,.F.);
#1031=ADVANCED_FACE('',(#329),#977,.F.);
#1032=ADVANCED_FACE('',(#330),#978,.F.);
#1033=ADVANCED_FACE('',(#331),#979,.F.);
#1034=ADVANCED_FACE('',(#332),#980,.F.);
#1035=ADVANCED_FACE('',(#333),#981,.T.);
#1036=ADVANCED_FACE('',(#334),#982,.T.);
#1037=ADVANCED_FACE('',(#335),#983,.T.);
#1038=ADVANCED_FACE('',(#336),#984,.T.);
#1039=ADVANCED_FACE('',(#337,#266,#267,#268,#269,#270,#271,#272,#273,#274,
#275),#985,.T.);
#1040=ADVANCED_FACE('',(#338,#276,#277,#278,#279,#280,#281,#282,#283,#284),
#986,.F.);
#1041=CLOSED_SHELL('',(#987,#988,#989,#990,#991,#992,#993,#994,#995,#996,
#997,#998,#999,#1000,#1001,#1002,#1003,#1004,#1005,#1006,#1007,#1008,#1009,
#1010,#1011,#1012,#1013,#1014,#1015,#1016,#1017,#1018,#1019,#1020,#1021,
#1022,#1023,#1024,#1025,#1026,#1027,#1028,#1029,#1030,#1031,#1032,#1033,
#1034,#1035,#1036,#1037,#1038,#1039,#1040));
#1042=DERIVED_UNIT_ELEMENT(#1044,1.);
#1043=DERIVED_UNIT_ELEMENT(#1689,-3.);
#1044=(
MASS_UNIT()
NAMED_UNIT(*)
SI_UNIT(.KILO.,.GRAM.)
);
#1045=DERIVED_UNIT((#1042,#1043));
#1046=MEASURE_REPRESENTATION_ITEM('density measure',
POSITIVE_RATIO_MEASURE(7850.),#1045);
#1047=PROPERTY_DEFINITION_REPRESENTATION(#1052,#1049);
#1048=PROPERTY_DEFINITION_REPRESENTATION(#1053,#1050);
#1049=REPRESENTATION('material name',(#1051),#1684);
#1050=REPRESENTATION('density',(#1046),#1684);
#1051=DESCRIPTIVE_REPRESENTATION_ITEM('Steel','Steel');
#1052=PROPERTY_DEFINITION('material property','material name',#1697);
#1053=PROPERTY_DEFINITION('material property','density of part',#1697);
#1054=AXIS2_PLACEMENT_3D('',#1397,#1129,#1130);
#1055=AXIS2_PLACEMENT_3D('',#1398,#1131,#1132);
#1056=AXIS2_PLACEMENT_3D('',#1400,#1133,#1134);
#1057=AXIS2_PLACEMENT_3D('',#1402,#1135,#1136);
#1058=AXIS2_PLACEMENT_3D('',#1403,#1137,#1138);
#1059=AXIS2_PLACEMENT_3D('',#1405,#1139,#1140);
#1060=AXIS2_PLACEMENT_3D('',#1407,#1142,#1143);
#1061=AXIS2_PLACEMENT_3D('',#1410,#1145,#1146);
#1062=AXIS2_PLACEMENT_3D('',#1411,#1147,#1148);
#1063=AXIS2_PLACEMENT_3D('',#1413,#1149,#1150);
#1064=AXIS2_PLACEMENT_3D('',#1416,#1152,#1153);
#1065=AXIS2_PLACEMENT_3D('',#1417,#1154,#1155);
#1066=AXIS2_PLACEMENT_3D('',#1419,#1156,#1157);
#1067=AXIS2_PLACEMENT_3D('',#1422,#1159,#1160);
#1068=AXIS2_PLACEMENT_3D('',#1423,#1161,#1162);
#1069=AXIS2_PLACEMENT_3D('',#1425,#1163,#1164);
#1070=AXIS2_PLACEMENT_3D('',#1428,#1166,#1167);
#1071=AXIS2_PLACEMENT_3D('',#1429,#1168,#1169);
#1072=AXIS2_PLACEMENT_3D('',#1431,#1170,#1171);
#1073=AXIS2_PLACEMENT_3D('',#1434,#1173,#1174);
#1074=AXIS2_PLACEMENT_3D('',#1435,#1175,#1176);
#1075=AXIS2_PLACEMENT_3D('',#1444,#1181,#1182);
#1076=AXIS2_PLACEMENT_3D('',#1450,#1186,#1187);
#1077=AXIS2_PLACEMENT_3D('',#1456,#1191,#1192);
#1078=AXIS2_PLACEMENT_3D('',#1462,#1196,#1197);
#1079=AXIS2_PLACEMENT_3D('',#1468,#1201,#1202);
#1080=AXIS2_PLACEMENT_3D('',#1471,#1205,#1206);
#1081=AXIS2_PLACEMENT_3D('',#1473,#1207,#1208);
#1082=AXIS2_PLACEMENT_3D('',#1474,#1209,#1210);
#1083=AXIS2_PLACEMENT_3D('',#1483,#1215,#1216);
#1084=AXIS2_PLACEMENT_3D('',#1489,#1220,#1221);
#1085=AXIS2_PLACEMENT_3D('',#1495,#1225,#1226);
#1086=AXIS2_PLACEMENT_3D('',#1501,#1230,#1231);
#1087=AXIS2_PLACEMENT_3D('',#1507,#1235,#1236);
#1088=AXIS2_PLACEMENT_3D('',#1510,#1239,#1240);
#1089=AXIS2_PLACEMENT_3D('',#1512,#1241,#1242);
#1090=AXIS2_PLACEMENT_3D('',#1513,#1243,#1244);
#1091=AXIS2_PLACEMENT_3D('',#1522,#1249,#1250);
#1092=AXIS2_PLACEMENT_3D('',#1528,#1254,#1255);
#1093=AXIS2_PLACEMENT_3D('',#1534,#1259,#1260);
#1094=AXIS2_PLACEMENT_3D('',#1540,#1264,#1265);
#1095=AXIS2_PLACEMENT_3D('',#1546,#1269,#1270);
#1096=AXIS2_PLACEMENT_3D('',#1549,#1273,#1274);
#1097=AXIS2_PLACEMENT_3D('',#1551,#1275,#1276);
#1098=AXIS2_PLACEMENT_3D('',#1552,#1277,#1278);
#1099=AXIS2_PLACEMENT_3D('',#1561,#1283,#1284);
#1100=AXIS2_PLACEMENT_3D('',#1567,#1288,#1289);
#1101=AXIS2_PLACEMENT_3D('',#1573,#1293,#1294);
#1102=AXIS2_PLACEMENT_3D('',#1579,#1298,#1299);
#1103=AXIS2_PLACEMENT_3D('',#1585,#1303,#1304);
#1104=AXIS2_PLACEMENT_3D('',#1588,#1307,#1308);
#1105=AXIS2_PLACEMENT_3D('',#1590,#1309,#1310);
#1106=AXIS2_PLACEMENT_3D('',#1591,#1311,#1312);
#1107=AXIS2_PLACEMENT_3D('',#1593,#1313,#1314);
#1108=AXIS2_PLACEMENT_3D('',#1595,#1316,#1317);
#1109=AXIS2_PLACEMENT_3D('',#1597,#1318,#1319);
#1110=AXIS2_PLACEMENT_3D('',#1599,#1321,#1322);
#1111=AXIS2_PLACEMENT_3D('',#1601,#1323,#1324);
#1112=AXIS2_PLACEMENT_3D('',#1603,#1326,#1327);
#1113=AXIS2_PLACEMENT_3D('',#1605,#1328,#1329);
#1114=AXIS2_PLACEMENT_3D('',#1607,#1331,#1332);
#1115=AXIS2_PLACEMENT_3D('',#1616,#1337,#1338);
#1116=AXIS2_PLACEMENT_3D('',#1622,#1342,#1343);
#1117=AXIS2_PLACEMENT_3D('',#1628,#1347,#1348);
#1118=AXIS2_PLACEMENT_3D('',#1631,#1351,#1352);
#1119=AXIS2_PLACEMENT_3D('',#1632,#1353,#1354);
#1120=AXIS2_PLACEMENT_3D('',#1641,#1359,#1360);
#1121=AXIS2_PLACEMENT_3D('',#1647,#1364,#1365);
#1122=AXIS2_PLACEMENT_3D('',#1653,#1369,#1370);
#1123=AXIS2_PLACEMENT_3D('',#1655,#1372,#1373);
#1124=AXIS2_PLACEMENT_3D('',#1665,#1379,#1380);
#1125=AXIS2_PLACEMENT_3D('',#1671,#1384,#1385);
#1126=AXIS2_PLACEMENT_3D('',#1677,#1389,#1390);
#1127=AXIS2_PLACEMENT_3D('',#1680,#1393,#1394);
#1128=AXIS2_PLACEMENT_3D('',#1681,#1395,#1396);
#1129=DIRECTION('axis',(0.,0.,1.));
#1130=DIRECTION('refdir',(1.,0.,0.));
#1131=DIRECTION('center_axis',(0.,0.,1.));
#1132=DIRECTION('ref_axis',(-1.,0.,0.));
#1133=DIRECTION('center_axis',(0.,0.,1.));
#1134=DIRECTION('ref_axis',(-1.,0.,0.));
#1135=DIRECTION('center_axis',(0.,0.,1.));
#1136=DIRECTION('ref_axis',(-1.,0.,0.));
#1137=DIRECTION('center_axis',(0.,0.,1.));
#1138=DIRECTION('ref_axis',(-1.,0.,0.));
#1139=DIRECTION('center_axis',(0.,0.,1.));
#1140=DIRECTION('ref_axis',(-1.,0.,0.));
#1141=DIRECTION('',(0.,0.,1.));
#1142=DIRECTION('center_axis',(0.,0.,1.));
#1143=DIRECTION('ref_axis',(-1.,0.,0.));
#1144=DIRECTION('',(0.,0.,1.));
#1145=DIRECTION('center_axis',(0.,0.,-1.));
#1146=DIRECTION('ref_axis',(-1.,0.,0.));
#1147=DIRECTION('center_axis',(0.,0.,-1.));
#1148=DIRECTION('ref_axis',(1.,0.,0.));
#1149=DIRECTION('center_axis',(0.,0.,-1.));
#1150=DIRECTION('ref_axis',(1.,0.,0.));
#1151=DIRECTION('',(0.,0.,-1.));
#1152=DIRECTION('center_axis',(0.,0.,1.));
#1153=DIRECTION('ref_axis',(1.,0.,0.));
#1154=DIRECTION('center_axis',(0.,0.,-1.));
#1155=DIRECTION('ref_axis',(1.,0.,0.));
#1156=DIRECTION('center_axis',(0.,0.,-1.));
#1157=DIRECTION('ref_axis',(1.,0.,0.));
#1158=DIRECTION('',(0.,0.,-1.));
#1159=DIRECTION('center_axis',(0.,0.,1.));
#1160=DIRECTION('ref_axis',(1.,0.,0.));
#1161=DIRECTION('center_axis',(0.,0.,-1.));
#1162=DIRECTION('ref_axis',(1.,0.,0.));
#1163=DIRECTION('center_axis',(0.,0.,-1.));
#1164=DIRECTION('ref_axis',(1.,0.,0.));
#1165=DIRECTION('',(0.,0.,-1.));
#1166=DIRECTION('center_axis',(0.,0.,1.));
#1167=DIRECTION('ref_axis',(1.,0.,0.));
#1168=DIRECTION('center_axis',(0.,0.,-1.));
#1169=DIRECTION('ref_axis',(1.,0.,0.));
#1170=DIRECTION('center_axis',(0.,0.,-1.));
#1171=DIRECTION('ref_axis',(1.,0.,0.));
#1172=DIRECTION('',(0.,0.,-1.));
#1173=DIRECTION('center_axis',(0.,0.,1.));
#1174=DIRECTION('ref_axis',(1.,0.,0.));
#1175=DIRECTION('center_axis',(0.866025403784439,0.5,0.));
#1176=DIRECTION('ref_axis',(-0.5,0.866025403784439,0.));
#1177=DIRECTION('',(-0.5,0.866025403784439,0.));
#1178=DIRECTION('',(0.,0.,1.));
#1179=DIRECTION('',(-0.5,0.866025403784439,0.));
#1180=DIRECTION('',(0.,0.,1.));
#1181=DIRECTION('center_axis',(0.866025403784439,-0.5,0.));
#1182=DIRECTION('ref_axis',(0.5,0.866025403784439,0.));
#1183=DIRECTION('',(0.5,0.866025403784439,0.));
#1184=DIRECTION('',(0.,0.,1.));
#1185=DIRECTION('',(0.5,0.866025403784439,0.));
#1186=DIRECTION('center_axis',(0.,-1.,0.));
#1187=DIRECTION('ref_axis',(1.,0.,0.));
#1188=DIRECTION('',(1.,0.,0.));
#1189=DIRECTION('',(0.,0.,1.));
#1190=DIRECTION('',(1.,0.,0.));
#1191=DIRECTION('center_axis',(-0.866025403784438,-0.500000000000002,0.));
#1192=DIRECTION('ref_axis',(0.500000000000001,-0.866025403784438,0.));
#1193=DIRECTION('',(0.500000000000001,-0.866025403784438,0.));
#1194=DIRECTION('',(0.,0.,1.));
#1195=DIRECTION('',(0.500000000000001,-0.866025403784438,0.));
#1196=DIRECTION('center_axis',(-0.866025403784437,0.500000000000003,0.));
#1197=DIRECTION('ref_axis',(-0.500000000000003,-0.866025403784437,0.));
#1198=DIRECTION('',(-0.500000000000003,-0.866025403784437,0.));
#1199=DIRECTION('',(0.,0.,1.));
#1200=DIRECTION('',(-0.500000000000003,-0.866025403784437,0.));
#1201=DIRECTION('center_axis',(0.,1.,0.));
#1202=DIRECTION('ref_axis',(-1.,0.,0.));
#1203=DIRECTION('',(-1.,0.,0.));
#1204=DIRECTION('',(-1.,0.,0.));
#1205=DIRECTION('center_axis',(0.,0.,1.));
#1206=DIRECTION('ref_axis',(1.,0.,0.));
#1207=DIRECTION('center_axis',(0.,0.,-1.));
#1208=DIRECTION('ref_axis',(1.,0.,0.));
#1209=DIRECTION('center_axis',(0.866025403784436,-0.500000000000004,0.));
#1210=DIRECTION('ref_axis',(0.500000000000004,0.866025403784436,0.));
#1211=DIRECTION('',(0.500000000000004,0.866025403784436,0.));
#1212=DIRECTION('',(0.,0.,1.));
#1213=DIRECTION('',(0.500000000000004,0.866025403784436,0.));
#1214=DIRECTION('',(0.,0.,1.));
#1215=DIRECTION('center_axis',(-1.63691226761742E-15,-1.,0.));
#1216=DIRECTION('ref_axis',(1.,-1.63691226761742E-15,0.));
#1217=DIRECTION('',(1.,-1.63691226761742E-15,0.));
#1218=DIRECTION('',(0.,0.,1.));
#1219=DIRECTION('',(1.,-1.63691226761742E-15,0.));
#1220=DIRECTION('center_axis',(-0.86602540378444,-0.499999999999998,0.));
#1221=DIRECTION('ref_axis',(0.499999999999998,-0.86602540378444,0.));
#1222=DIRECTION('',(0.499999999999998,-0.86602540378444,0.));
#1223=DIRECTION('',(0.,0.,1.));
#1224=DIRECTION('',(0.499999999999998,-0.86602540378444,0.));
#1225=DIRECTION('center_axis',(-0.866025403784438,0.500000000000001,0.));
#1226=DIRECTION('ref_axis',(-0.500000000000001,-0.866025403784438,0.));
#1227=DIRECTION('',(-0.500000000000001,-0.866025403784438,0.));
#1228=DIRECTION('',(0.,0.,1.));
#1229=DIRECTION('',(-0.500000000000001,-0.866025403784438,0.));
#1230=DIRECTION('center_axis',(0.,1.,0.));
#1231=DIRECTION('ref_axis',(-1.,0.,0.));
#1232=DIRECTION('',(-1.,0.,0.));
#1233=DIRECTION('',(0.,0.,1.));
#1234=DIRECTION('',(-1.,0.,0.));
#1235=DIRECTION('center_axis',(0.866025403784437,0.500000000000002,0.));
#1236=DIRECTION('ref_axis',(-0.500000000000002,0.866025403784437,0.));
#1237=DIRECTION('',(-0.500000000000002,0.866025403784437,0.));
#1238=DIRECTION('',(-0.500000000000002,0.866025403784437,0.));
#1239=DIRECTION('center_axis',(0.,0.,1.));
#1240=DIRECTION('ref_axis',(1.,0.,0.));
#1241=DIRECTION('center_axis',(0.,0.,-1.));
#1242=DIRECTION('ref_axis',(1.,0.,0.));
#1243=DIRECTION('center_axis',(8.18456133808705E-15,1.,0.));
#1244=DIRECTION('ref_axis',(-1.,8.18456133808705E-15,0.));
#1245=DIRECTION('',(-1.,8.18456133808705E-15,0.));
#1246=DIRECTION('',(0.,0.,1.));
#1247=DIRECTION('',(-1.,8.18456133808705E-15,0.));
#1248=DIRECTION('',(0.,0.,1.));
#1249=DIRECTION('center_axis',(0.866025403784436,0.500000000000004,0.));
#1250=DIRECTION('ref_axis',(-0.500000000000004,0.866025403784436,0.));
#1251=DIRECTION('',(-0.500000000000004,0.866025403784436,0.));
#1252=DIRECTION('',(0.,0.,1.));
#1253=DIRECTION('',(-0.500000000000004,0.866025403784436,0.));
#1254=DIRECTION('center_axis',(0.866025403784437,-0.500000000000003,0.));
#1255=DIRECTION('ref_axis',(0.500000000000003,0.866025403784437,0.));
#1256=DIRECTION('',(0.500000000000003,0.866025403784437,0.));
#1257=DIRECTION('',(0.,0.,1.));
#1258=DIRECTION('',(0.500000000000003,0.866025403784437,0.));
#1259=DIRECTION('center_axis',(-8.18456133808705E-15,-1.,0.));
#1260=DIRECTION('ref_axis',(1.,-8.18456133808705E-15,0.));
#1261=DIRECTION('',(1.,-8.18456133808705E-15,0.));
#1262=DIRECTION('',(0.,0.,1.));
#1263=DIRECTION('',(1.,-8.18456133808705E-15,0.));
#1264=DIRECTION('center_axis',(-0.866025403784442,-0.499999999999994,0.));
#1265=DIRECTION('ref_axis',(0.499999999999994,-0.866025403784442,0.));
#1266=DIRECTION('',(0.499999999999994,-0.866025403784442,0.));
#1267=DIRECTION('',(0.,0.,1.));
#1268=DIRECTION('',(0.499999999999994,-0.866025403784442,0.));
#1269=DIRECTION('center_axis',(-0.866025403784437,0.500000000000003,0.));
#1270=DIRECTION('ref_axis',(-0.500000000000003,-0.866025403784437,0.));
#1271=DIRECTION('',(-0.500000000000003,-0.866025403784437,0.));
#1272=DIRECTION('',(-0.500000000000003,-0.866025403784437,0.));
#1273=DIRECTION('center_axis',(0.,0.,1.));
#1274=DIRECTION('ref_axis',(1.,0.,0.));
#1275=DIRECTION('center_axis',(0.,0.,-1.));
#1276=DIRECTION('ref_axis',(1.,0.,0.));
#1277=DIRECTION('center_axis',(-0.866025403784439,0.499999999999999,0.));
#1278=DIRECTION('ref_axis',(-0.499999999999999,-0.866025403784439,0.));
#1279=DIRECTION('',(-0.499999999999999,-0.866025403784439,0.));
#1280=DIRECTION('',(0.,0.,1.));
#1281=DIRECTION('',(-0.499999999999999,-0.866025403784439,0.));
#1282=DIRECTION('',(0.,0.,1.));
#1283=DIRECTION('center_axis',(2.25075436797395E-15,1.,0.));
#1284=DIRECTION('ref_axis',(-1.,2.25075436797395E-15,0.));
#1285=DIRECTION('',(-1.,2.25075436797395E-15,0.));
#1286=DIRECTION('',(0.,0.,1.));
#1287=DIRECTION('',(-1.,2.25075436797395E-15,0.));
#1288=DIRECTION('center_axis',(0.86602540378444,0.499999999999998,0.));
#1289=DIRECTION('ref_axis',(-0.499999999999998,0.86602540378444,0.));
#1290=DIRECTION('',(-0.499999999999998,0.86602540378444,0.));
#1291=DIRECTION('',(0.,0.,1.));
#1292=DIRECTION('',(-0.499999999999998,0.86602540378444,0.));
#1293=DIRECTION('center_axis',(0.866025403784438,-0.500000000000001,0.));
#1294=DIRECTION('ref_axis',(0.500000000000001,0.866025403784438,0.));
#1295=DIRECTION('',(0.500000000000001,0.866025403784438,0.));
#1296=DIRECTION('',(0.,0.,1.));
#1297=DIRECTION('',(0.500000000000001,0.866025403784438,0.));
#1298=DIRECTION('center_axis',(-2.86459646833048E-15,-1.,0.));
#1299=DIRECTION('ref_axis',(1.,-2.86459646833048E-15,0.));
#1300=DIRECTION('',(1.,-2.86459646833048E-15,0.));
#1301=DIRECTION('',(0.,0.,1.));
#1302=DIRECTION('',(1.,-2.86459646833048E-15,0.));
#1303=DIRECTION('center_axis',(-0.86602540378444,-0.499999999999997,0.));
#1304=DIRECTION('ref_axis',(0.499999999999997,-0.86602540378444,0.));
#1305=DIRECTION('',(0.499999999999997,-0.86602540378444,0.));
#1306=DIRECTION('',(0.499999999999997,-0.86602540378444,0.));
#1307=DIRECTION('center_axis',(0.,0.,1.));
#1308=DIRECTION('ref_axis',(1.,0.,0.));
#1309=DIRECTION('center_axis',(0.,0.,-1.));
#1310=DIRECTION('ref_axis',(1.,0.,0.));
#1311=DIRECTION('center_axis',(0.,0.,-1.));
#1312=DIRECTION('ref_axis',(1.,0.,0.));
#1313=DIRECTION('center_axis',(0.,0.,-1.));
#1314=DIRECTION('ref_axis',(1.,0.,0.));
#1315=DIRECTION('',(0.,0.,-1.));
#1316=DIRECTION('center_axis',(0.,0.,-1.));
#1317=DIRECTION('ref_axis',(1.,0.,0.));
#1318=DIRECTION('center_axis',(0.,0.,-1.));
#1319=DIRECTION('ref_axis',(1.,0.,0.));
#1320=DIRECTION('',(0.,0.,-1.));
#1321=DIRECTION('center_axis',(0.,0.,-1.));
#1322=DIRECTION('ref_axis',(1.,0.,0.));
#1323=DIRECTION('center_axis',(0.,0.,-1.));
#1324=DIRECTION('ref_axis',(1.,0.,0.));
#1325=DIRECTION('',(0.,0.,-1.));
#1326=DIRECTION('center_axis',(0.,0.,-1.));
#1327=DIRECTION('ref_axis',(1.,0.,0.));
#1328=DIRECTION('center_axis',(0.,0.,-1.));
#1329=DIRECTION('ref_axis',(1.,0.,0.));
#1330=DIRECTION('',(0.,0.,-1.));
#1331=DIRECTION('center_axis',(0.,-1.,0.));
#1332=DIRECTION('ref_axis',(-1.,0.,0.));
#1333=DIRECTION('',(-1.,0.,0.));
#1334=DIRECTION('',(0.,0.,-1.));
#1335=DIRECTION('',(-1.,0.,0.));
#1336=DIRECTION('',(0.,0.,-1.));
#1337=DIRECTION('center_axis',(1.,0.,0.));
#1338=DIRECTION('ref_axis',(0.,-1.,0.));
#1339=DIRECTION('',(0.,-1.,0.));
#1340=DIRECTION('',(0.,0.,-1.));
#1341=DIRECTION('',(0.,-1.,0.));
#1342=DIRECTION('center_axis',(0.,1.,0.));
#1343=DIRECTION('ref_axis',(1.,0.,0.));
#1344=DIRECTION('',(1.,0.,0.));
#1345=DIRECTION('',(0.,0.,-1.));
#1346=DIRECTION('',(1.,0.,0.));
#1347=DIRECTION('center_axis',(-1.,0.,0.));
#1348=DIRECTION('ref_axis',(0.,1.,0.));
#1349=DIRECTION('',(0.,1.,0.));
#1350=DIRECTION('',(0.,1.,0.));
#1351=DIRECTION('center_axis',(0.,0.,-1.));
#1352=DIRECTION('ref_axis',(-1.,0.,0.));
#1353=DIRECTION('center_axis',(0.,1.,0.));
#1354=DIRECTION('ref_axis',(1.,0.,0.));
#1355=DIRECTION('',(1.,0.,0.));
#1356=DIRECTION('',(0.,0.,-1.));
#1357=DIRECTION('',(1.,0.,0.));
#1358=DIRECTION('',(0.,0.,-1.));
#1359=DIRECTION('center_axis',(-1.,0.,0.));
#1360=DIRECTION('ref_axis',(0.,1.,0.));
#1361=DIRECTION('',(0.,1.,0.));
#1362=DIRECTION('',(0.,0.,-1.));
#1363=DIRECTION('',(0.,1.,0.));
#1364=DIRECTION('center_axis',(0.,-1.,0.));
#1365=DIRECTION('ref_axis',(-1.,0.,0.));
#1366=DIRECTION('',(-1.,0.,0.));
#1367=DIRECTION('',(0.,0.,1.));
#1368=DIRECTION('',(-1.,0.,0.));
#1369=DIRECTION('center_axis',(0.,0.,-1.));
#1370=DIRECTION('ref_axis',(-1.,0.,0.));
#1371=DIRECTION('',(0.,-1.,0.));
#1372=DIRECTION('center_axis',(1.,0.,0.));
#1373=DIRECTION('ref_axis',(0.,1.,0.));
#1374=DIRECTION('',(0.,1.,0.));
#1375=DIRECTION('',(0.,0.,1.));
#1376=DIRECTION('',(0.,1.,0.));
#1377=DIRECTION('',(0.,0.,1.));
#1378=DIRECTION('',(0.,1.,0.));
#1379=DIRECTION('center_axis',(0.,-1.,0.));
#1380=DIRECTION('ref_axis',(1.,0.,0.));
#1381=DIRECTION('',(1.,0.,0.));
#1382=DIRECTION('',(1.,0.,0.));
#1383=DIRECTION('',(0.,0.,1.));
#1384=DIRECTION('center_axis',(-1.,0.,0.));
#1385=DIRECTION('ref_axis',(0.,-1.,0.));
#1386=DIRECTION('',(0.,-1.,0.));
#1387=DIRECTION('',(0.,-1.,0.));
#1388=DIRECTION('',(0.,0.,1.));
#1389=DIRECTION('center_axis',(0.,1.,0.));
#1390=DIRECTION('ref_axis',(-1.,0.,0.));
#1391=DIRECTION('',(-1.,0.,0.));
#1392=DIRECTION('',(-1.,0.,0.));
#1393=DIRECTION('center_axis',(0.,0.,1.));
#1394=DIRECTION('ref_axis',(1.,0.,0.));
#1395=DIRECTION('center_axis',(0.,0.,1.));
#1396=DIRECTION('ref_axis',(1.,0.,0.));
#1397=CARTESIAN_POINT('',(0.,0.,0.));
#1398=CARTESIAN_POINT('Origin',(-0.875,-1.375,0.212));
#1399=CARTESIAN_POINT('',(-0.725,-1.375,0.212));
#1400=CARTESIAN_POINT('Origin',(-0.875,-1.375,0.212));
#1401=CARTESIAN_POINT('',(-0.793,-1.375,0.212));
#1402=CARTESIAN_POINT('Origin',(-0.875,-1.375,0.212));
#1403=CARTESIAN_POINT('Origin',(-0.875,-1.375,0.106));
#1404=CARTESIAN_POINT('',(-0.725,-1.375,0.));
#1405=CARTESIAN_POINT('Origin',(-0.875,-1.375,0.));
#1406=CARTESIAN_POINT('',(-0.725,-1.375,0.106));
#1407=CARTESIAN_POINT('Origin',(-0.875,-1.375,0.25));
#1408=CARTESIAN_POINT('',(-0.793,-1.375,0.5));
#1409=CARTESIAN_POINT('',(-0.793,-1.375,0.25));
#1410=CARTESIAN_POINT('Origin',(-0.875,-1.375,0.5));
#1411=CARTESIAN_POINT('Origin',(-1.5,-2.75,0.25));
#1412=CARTESIAN_POINT('',(-1.59842519685039,-2.75,0.5));
#1413=CARTESIAN_POINT('Origin',(-1.5,-2.75,0.5));
#1414=CARTESIAN_POINT('',(-1.59842519685039,-2.75,0.));
#1415=CARTESIAN_POINT('',(-1.59842519685039,-2.75,0.25));
#1416=CARTESIAN_POINT('Origin',(-1.5,-2.75,0.));
#1417=CARTESIAN_POINT('Origin',(-2.75,-1.5,0.25));
#1418=CARTESIAN_POINT('',(-2.84842519685039,-1.5,0.5));
#1419=CARTESIAN_POINT('Origin',(-2.75,-1.5,0.5));
#1420=CARTESIAN_POINT('',(-2.84842519685039,-1.5,0.));
#1421=CARTESIAN_POINT('',(-2.84842519685039,-1.5,0.25));
#1422=CARTESIAN_POINT('Origin',(-2.75,-1.5,0.));
#1423=CARTESIAN_POINT('Origin',(-0.375,-3.875,0.25));
#1424=CARTESIAN_POINT('',(-0.493110236220472,-3.875,0.5));
#1425=CARTESIAN_POINT('Origin',(-0.375,-3.875,0.5));
#1426=CARTESIAN_POINT('',(-0.493110236220472,-3.875,0.));
#1427=CARTESIAN_POINT('',(-0.493110236220472,-3.875,0.25));
#1428=CARTESIAN_POINT('Origin',(-0.375,-3.875,0.));
#1429=CARTESIAN_POINT('Origin',(-3.875,-0.375,0.25));
#1430=CARTESIAN_POINT('',(-3.99311023622047,-0.375,0.5));
#1431=CARTESIAN_POINT('Origin',(-3.875,-0.375,0.5));
#1432=CARTESIAN_POINT('',(-3.99311023622047,-0.375,0.));
#1433=CARTESIAN_POINT('',(-3.99311023622047,-0.375,0.25));
#1434=CARTESIAN_POINT('Origin',(-3.875,-0.375,0.));
#1435=CARTESIAN_POINT('Origin',(-1.28638040039984,-3.875,0.));
#1436=CARTESIAN_POINT('',(-1.28638040039984,-3.875,0.));
#1437=CARTESIAN_POINT('',(-1.39319020019992,-3.69,0.));
#1438=CARTESIAN_POINT('',(-1.77009396450555,-3.03718353065868,0.));
#1439=CARTESIAN_POINT('',(-1.28638040039984,-3.875,0.125));
#1440=CARTESIAN_POINT('',(-1.28638040039984,-3.875,0.));
#1441=CARTESIAN_POINT('',(-1.39319020019992,-3.69,0.125));
#1442=CARTESIAN_POINT('',(-1.28638040039984,-3.875,0.125));
#1443=CARTESIAN_POINT('',(-1.39319020019992,-3.69,0.));
#1444=CARTESIAN_POINT('Origin',(-1.39319020019992,-4.06,0.));
#1445=CARTESIAN_POINT('',(-1.39319020019992,-4.06,0.));
#1446=CARTESIAN_POINT('',(-1.06572663609421,-3.49281646934132,0.));
#1447=CARTESIAN_POINT('',(-1.39319020019992,-4.06,0.125));
#1448=CARTESIAN_POINT('',(-1.39319020019992,-4.06,0.));
#1449=CARTESIAN_POINT('',(-1.39319020019992,-4.06,0.125));
#1450=CARTESIAN_POINT('Origin',(-1.60680979980008,-4.06,0.));
#1451=CARTESIAN_POINT('',(-1.60680979980008,-4.06,0.));
#1452=CARTESIAN_POINT('',(-1.86590489990004,-4.06,0.));
#1453=CARTESIAN_POINT('',(-1.60680979980008,-4.06,0.125));
#1454=CARTESIAN_POINT('',(-1.60680979980008,-4.06,0.));
#1455=CARTESIAN_POINT('',(-1.60680979980008,-4.06,0.125));
#1456=CARTESIAN_POINT('Origin',(-1.71361959960016,-3.875,0.));
#1457=CARTESIAN_POINT('',(-1.71361959960016,-3.875,0.));
#1458=CARTESIAN_POINT('',(-2.14392826380583,-3.12968353065868,0.));
#1459=CARTESIAN_POINT('',(-1.71361959960016,-3.875,0.125));
#1460=CARTESIAN_POINT('',(-1.71361959960016,-3.875,0.));
#1461=CARTESIAN_POINT('',(-1.71361959960016,-3.875,0.125));
#1462=CARTESIAN_POINT('Origin',(-1.60680979980008,-3.69,0.));
#1463=CARTESIAN_POINT('',(-1.60680979980008,-3.69,0.));
#1464=CARTESIAN_POINT('',(-1.33275113559441,-3.21531646934132,0.));
#1465=CARTESIAN_POINT('',(-1.60680979980008,-3.69,0.125));
#1466=CARTESIAN_POINT('',(-1.60680979980008,-3.69,0.));
#1467=CARTESIAN_POINT('',(-1.60680979980008,-3.69,0.125));
#1468=CARTESIAN_POINT('Origin',(-1.39319020019992,-3.69,0.));
#1469=CARTESIAN_POINT('',(-1.75909510009996,-3.69,0.));
#1470=CARTESIAN_POINT('',(-1.39319020019992,-3.69,0.125));
#1471=CARTESIAN_POINT('Origin',(-1.5,-3.875,0.125));
#1472=CARTESIAN_POINT('',(-1.582,-3.875,0.125));
#1473=CARTESIAN_POINT('Origin',(-1.5,-3.875,0.125));
#1474=CARTESIAN_POINT('Origin',(-0.268190200199919,-2.935,0.));
#1475=CARTESIAN_POINT('',(-0.268190200199919,-2.935,0.));
#1476=CARTESIAN_POINT('',(-0.161380400399838,-2.75,0.));
#1477=CARTESIAN_POINT('',(-0.324921280908583,-3.0332611141557,0.));
#1478=CARTESIAN_POINT('',(-0.268190200199919,-2.935,0.125));
#1479=CARTESIAN_POINT('',(-0.268190200199919,-2.935,0.));
#1480=CARTESIAN_POINT('',(-0.161380400399838,-2.75,0.125));
#1481=CARTESIAN_POINT('',(-0.268190200199919,-2.935,0.125));
#1482=CARTESIAN_POINT('',(-0.161380400399838,-2.75,0.));
#1483=CARTESIAN_POINT('Origin',(-0.481809799800081,-2.935,0.));
#1484=CARTESIAN_POINT('',(-0.481809799800081,-2.935,0.));
#1485=CARTESIAN_POINT('',(-1.30340489990004,-2.935,0.));
#1486=CARTESIAN_POINT('',(-0.481809799800081,-2.935,0.125));
#1487=CARTESIAN_POINT('',(-0.481809799800081,-2.935,0.));
#1488=CARTESIAN_POINT('',(-0.481809799800081,-2.935,0.125));
#1489=CARTESIAN_POINT('Origin',(-0.588619599600161,-2.75,0.));
#1490=CARTESIAN_POINT('',(-0.588619599600161,-2.75,0.));
#1491=CARTESIAN_POINT('',(-0.915983618991458,-2.18298888584431,0.));
#1492=CARTESIAN_POINT('',(-0.588619599600161,-2.75,0.125));
#1493=CARTESIAN_POINT('',(-0.588619599600161,-2.75,0.));
#1494=CARTESIAN_POINT('',(-0.588619599600161,-2.75,0.125));
#1495=CARTESIAN_POINT('Origin',(-0.481809799800081,-2.565,0.));
#1496=CARTESIAN_POINT('',(-0.481809799800081,-2.565,0.));
#1497=CARTESIAN_POINT('',(-0.591945780408783,-2.75576111415569,0.));
#1498=CARTESIAN_POINT('',(-0.481809799800081,-2.565,0.125));
#1499=CARTESIAN_POINT('',(-0.481809799800081,-2.565,0.));
#1500=CARTESIAN_POINT('',(-0.481809799800081,-2.565,0.125));
#1501=CARTESIAN_POINT('Origin',(-0.268190200199919,-2.565,0.));
#1502=CARTESIAN_POINT('',(-0.268190200199919,-2.565,0.));
#1503=CARTESIAN_POINT('',(-1.19659510009996,-2.565,0.));
#1504=CARTESIAN_POINT('',(-0.268190200199919,-2.565,0.125));
#1505=CARTESIAN_POINT('',(-0.268190200199919,-2.565,0.));
#1506=CARTESIAN_POINT('',(-0.268190200199919,-2.565,0.125));
#1507=CARTESIAN_POINT('Origin',(-0.161380400399838,-2.75,0.));
#1508=CARTESIAN_POINT('',(-0.542149319691179,-2.09048888584431,0.));
#1509=CARTESIAN_POINT('',(-0.161380400399838,-2.75,0.125));
#1510=CARTESIAN_POINT('Origin',(-0.374999999999999,-2.75,0.125));
#1511=CARTESIAN_POINT('',(-0.457,-2.75,0.125));
#1512=CARTESIAN_POINT('Origin',(-0.375,-2.75,0.125));
#1513=CARTESIAN_POINT('Origin',(-3.76819020019992,-1.315,0.));
#1514=CARTESIAN_POINT('',(-3.76819020019992,-1.315,0.));
#1515=CARTESIAN_POINT('',(-3.98180979980008,-1.315,0.));
#1516=CARTESIAN_POINT('',(-2.94659510009996,-1.31500000000001,0.));
#1517=CARTESIAN_POINT('',(-3.76819020019992,-1.315,0.125));
#1518=CARTESIAN_POINT('',(-3.76819020019992,-1.315,0.));
#1519=CARTESIAN_POINT('',(-3.98180979980008,-1.315,0.125));
#1520=CARTESIAN_POINT('',(-3.76819020019992,-1.315,0.125));
#1521=CARTESIAN_POINT('',(-3.98180979980008,-1.315,0.));
#1522=CARTESIAN_POINT('Origin',(-3.66138040039984,-1.5,0.));
#1523=CARTESIAN_POINT('',(-3.66138040039984,-1.5,0.));
#1524=CARTESIAN_POINT('',(-3.33401638100853,-2.06701111415569,0.));
#1525=CARTESIAN_POINT('',(-3.66138040039984,-1.5,0.125));
#1526=CARTESIAN_POINT('',(-3.66138040039984,-1.5,0.));
#1527=CARTESIAN_POINT('',(-3.66138040039984,-1.5,0.125));
#1528=CARTESIAN_POINT('Origin',(-3.76819020019992,-1.685,0.));
#1529=CARTESIAN_POINT('',(-3.76819020019992,-1.685,0.));
#1530=CARTESIAN_POINT('',(-3.65805421959122,-1.49423888584431,0.));
#1531=CARTESIAN_POINT('',(-3.76819020019992,-1.685,0.125));
#1532=CARTESIAN_POINT('',(-3.76819020019992,-1.685,0.));
#1533=CARTESIAN_POINT('',(-3.76819020019992,-1.685,0.125));
#1534=CARTESIAN_POINT('Origin',(-3.98180979980008,-1.685,0.));
#1535=CARTESIAN_POINT('',(-3.98180979980008,-1.685,0.));
#1536=CARTESIAN_POINT('',(-3.05340489990004,-1.68500000000001,0.));
#1537=CARTESIAN_POINT('',(-3.98180979980008,-1.685,0.125));
#1538=CARTESIAN_POINT('',(-3.98180979980008,-1.685,0.));
#1539=CARTESIAN_POINT('',(-3.98180979980008,-1.685,0.125));
#1540=CARTESIAN_POINT('Origin',(-4.08861959960016,-1.5,0.));
#1541=CARTESIAN_POINT('',(-4.08861959960016,-1.5,0.));
#1542=CARTESIAN_POINT('',(-3.70785068030883,-2.15951111415569,0.));
#1543=CARTESIAN_POINT('',(-4.08861959960016,-1.5,0.125));
#1544=CARTESIAN_POINT('',(-4.08861959960016,-1.5,0.));
#1545=CARTESIAN_POINT('',(-4.08861959960016,-1.5,0.125));
#1546=CARTESIAN_POINT('Origin',(-3.98180979980008,-1.315,0.));
#1547=CARTESIAN_POINT('',(-3.92507871909142,-1.2167388858443,0.));
#1548=CARTESIAN_POINT('',(-3.98180979980008,-1.315,0.125));
#1549=CARTESIAN_POINT('Origin',(-3.875,-1.5,0.125));
#1550=CARTESIAN_POINT('',(-3.957,-1.5,0.125));
#1551=CARTESIAN_POINT('Origin',(-3.875,-1.5,0.125));
#1552=CARTESIAN_POINT('Origin',(-2.85680979980008,-0.19,0.));
#1553=CARTESIAN_POINT('',(-2.85680979980008,-0.19,0.));
#1554=CARTESIAN_POINT('',(-2.96361959960016,-0.375,0.));
#1555=CARTESIAN_POINT('',(-3.18427336390579,-0.757183530658683,0.));
#1556=CARTESIAN_POINT('',(-2.85680979980008,-0.19,0.125));
#1557=CARTESIAN_POINT('',(-2.85680979980008,-0.19,0.));
#1558=CARTESIAN_POINT('',(-2.96361959960016,-0.375,0.125));
#1559=CARTESIAN_POINT('',(-2.85680979980008,-0.19,0.125));
#1560=CARTESIAN_POINT('',(-2.96361959960016,-0.375,0.));
#1561=CARTESIAN_POINT('Origin',(-2.64319020019992,-0.19,0.));
#1562=CARTESIAN_POINT('',(-2.64319020019992,-0.19,0.));
#1563=CARTESIAN_POINT('',(-2.38409510009996,-0.19,0.));
#1564=CARTESIAN_POINT('',(-2.64319020019992,-0.19,0.125));
#1565=CARTESIAN_POINT('',(-2.64319020019992,-0.19,0.));
#1566=CARTESIAN_POINT('',(-2.64319020019992,-0.19,0.125));
#1567=CARTESIAN_POINT('Origin',(-2.53638040039984,-0.375,0.));
#1568=CARTESIAN_POINT('',(-2.53638040039984,-0.375,0.));
#1569=CARTESIAN_POINT('',(-2.10607173619417,-1.12031646934132,0.));
#1570=CARTESIAN_POINT('',(-2.53638040039984,-0.375,0.125));
#1571=CARTESIAN_POINT('',(-2.53638040039984,-0.375,0.));
#1572=CARTESIAN_POINT('',(-2.53638040039984,-0.375,0.125));
#1573=CARTESIAN_POINT('Origin',(-2.64319020019992,-0.56,0.));
#1574=CARTESIAN_POINT('',(-2.64319020019992,-0.56,0.));
#1575=CARTESIAN_POINT('',(-2.91724886440559,-1.03468353065868,0.));
#1576=CARTESIAN_POINT('',(-2.64319020019992,-0.56,0.125));
#1577=CARTESIAN_POINT('',(-2.64319020019992,-0.56,0.));
#1578=CARTESIAN_POINT('',(-2.64319020019992,-0.56,0.125));
#1579=CARTESIAN_POINT('Origin',(-2.85680979980008,-0.56,0.));
#1580=CARTESIAN_POINT('',(-2.85680979980008,-0.56,0.));
#1581=CARTESIAN_POINT('',(-2.49090489990004,-0.560000000000001,0.));
#1582=CARTESIAN_POINT('',(-2.85680979980008,-0.56,0.125));
#1583=CARTESIAN_POINT('',(-2.85680979980008,-0.56,0.));
#1584=CARTESIAN_POINT('',(-2.85680979980008,-0.56,0.125));
#1585=CARTESIAN_POINT('Origin',(-2.96361959960016,-0.375,0.));
#1586=CARTESIAN_POINT('',(-2.47990603549445,-1.21281646934132,0.));
#1587=CARTESIAN_POINT('',(-2.96361959960016,-0.375,0.125));
#1588=CARTESIAN_POINT('Origin',(-2.75,-0.375,0.125));
#1589=CARTESIAN_POINT('',(-2.832,-0.375,0.125));
#1590=CARTESIAN_POINT('Origin',(-2.75,-0.375,0.125));
#1591=CARTESIAN_POINT('Origin',(-1.5,-3.875,0.25));
#1592=CARTESIAN_POINT('',(-1.582,-3.875,0.5));
#1593=CARTESIAN_POINT('Origin',(-1.5,-3.875,0.5));
#1594=CARTESIAN_POINT('',(-1.582,-3.875,0.25));
#1595=CARTESIAN_POINT('Origin',(-3.875,-1.5,0.25));
#1596=CARTESIAN_POINT('',(-3.957,-1.5,0.5));
#1597=CARTESIAN_POINT('Origin',(-3.875,-1.5,0.5));
#1598=CARTESIAN_POINT('',(-3.957,-1.5,0.25));
#1599=CARTESIAN_POINT('Origin',(-2.75,-0.375,0.25));
#1600=CARTESIAN_POINT('',(-2.832,-0.375,0.5));
#1601=CARTESIAN_POINT('Origin',(-2.75,-0.375,0.5));
#1602=CARTESIAN_POINT('',(-2.832,-0.375,0.25));
#1603=CARTESIAN_POINT('Origin',(-0.375,-2.75,0.25));
#1604=CARTESIAN_POINT('',(-0.457,-2.75,0.5));
#1605=CARTESIAN_POINT('Origin',(-0.375,-2.75,0.5));
#1606=CARTESIAN_POINT('',(-0.457,-2.75,0.25));
#1607=CARTESIAN_POINT('Origin',(-2.594,-3.844,0.5));
#1608=CARTESIAN_POINT('',(-2.594,-3.844,0.5));
#1609=CARTESIAN_POINT('',(-3.844,-3.844,0.5));
#1610=CARTESIAN_POINT('',(-2.3595,-3.844,0.5));
#1611=CARTESIAN_POINT('',(-2.594,-3.844,0.25));
#1612=CARTESIAN_POINT('',(-2.594,-3.844,0.5));
#1613=CARTESIAN_POINT('',(-3.844,-3.844,0.25));
#1614=CARTESIAN_POINT('',(-3.844,-3.844,0.25));
#1615=CARTESIAN_POINT('',(-3.844,-3.844,0.5));
#1616=CARTESIAN_POINT('Origin',(-2.594,-2.594,0.5));
#1617=CARTESIAN_POINT('',(-2.594,-2.594,0.5));
#1618=CARTESIAN_POINT('',(-2.594,-2.3595,0.5));
#1619=CARTESIAN_POINT('',(-2.594,-2.594,0.25));
#1620=CARTESIAN_POINT('',(-2.594,-2.594,0.5));
#1621=CARTESIAN_POINT('',(-2.594,-3.844,0.25));
#1622=CARTESIAN_POINT('Origin',(-3.844,-2.594,0.5));
#1623=CARTESIAN_POINT('',(-3.844,-2.594,0.5));
#1624=CARTESIAN_POINT('',(-2.9845,-2.594,0.5));
#1625=CARTESIAN_POINT('',(-3.844,-2.594,0.25));
#1626=CARTESIAN_POINT('',(-3.844,-2.594,0.5));
#1627=CARTESIAN_POINT('',(-2.594,-2.594,0.25));
#1628=CARTESIAN_POINT('Origin',(-3.844,-3.844,0.5));
#1629=CARTESIAN_POINT('',(-3.844,-2.9845,0.5));
#1630=CARTESIAN_POINT('',(-3.844,-2.594,0.25));
#1631=CARTESIAN_POINT('Origin',(-3.219,-3.219,0.25));
#1632=CARTESIAN_POINT('Origin',(-1.75,-0.500000015957149,0.5));
#1633=CARTESIAN_POINT('',(-1.75,-0.500000015957149,0.5));
#1634=CARTESIAN_POINT('',(0.,-0.500000015957149,0.5));
#1635=CARTESIAN_POINT('',(-1.9375,-0.500000015957149,0.5));
#1636=CARTESIAN_POINT('',(-1.75,-0.500000015957149,0.25));
#1637=CARTESIAN_POINT('',(-1.75,-0.500000015957149,0.5));
#1638=CARTESIAN_POINT('',(0.,-0.500000015957149,0.25));
#1639=CARTESIAN_POINT('',(0.,-0.500000015957149,0.25));
#1640=CARTESIAN_POINT('',(0.,-0.500000015957149,0.25));
#1641=CARTESIAN_POINT('Origin',(-1.75,-1.00000001595715,0.5));
#1642=CARTESIAN_POINT('',(-1.75,-1.00000001595715,0.5));
#1643=CARTESIAN_POINT('',(-1.75,-1.56250000797857,0.5));
#1644=CARTESIAN_POINT('',(-1.75,-1.00000001595715,0.25));
#1645=CARTESIAN_POINT('',(-1.75,-1.00000001595715,0.5));
#1646=CARTESIAN_POINT('',(-1.75,-0.500000015957149,0.25));
#1647=CARTESIAN_POINT('Origin',(0.,-1.00000001595715,0.5));
#1648=CARTESIAN_POINT('',(0.,-1.00000001595715,0.5));
#1649=CARTESIAN_POINT('',(-1.0625,-1.00000001595715,0.5));
#1650=CARTESIAN_POINT('',(0.,-1.00000001595715,0.25));
#1651=CARTESIAN_POINT('',(0.,-1.00000001595715,0.25));
#1652=CARTESIAN_POINT('',(-1.75,-1.00000001595715,0.25));
#1653=CARTESIAN_POINT('Origin',(-0.875,-0.750000015957149,0.25));
#1654=CARTESIAN_POINT('',(0.,-2.50000000797857,0.25));
#1655=CARTESIAN_POINT('Origin',(0.,-4.25,0.));
#1656=CARTESIAN_POINT('',(0.,-4.25,0.5));
#1657=CARTESIAN_POINT('',(0.,-4.25,0.5));
#1658=CARTESIAN_POINT('',(0.,-4.25,0.));
#1659=CARTESIAN_POINT('',(0.,-4.25,0.));
#1660=CARTESIAN_POINT('',(0.,0.,0.));
#1661=CARTESIAN_POINT('',(0.,-4.25,0.));
#1662=CARTESIAN_POINT('',(0.,0.,0.5));
#1663=CARTESIAN_POINT('',(0.,0.,0.));
#1664=CARTESIAN_POINT('',(0.,-4.25,0.5));
#1665=CARTESIAN_POINT('Origin',(-4.25,-4.25,0.));
#1666=CARTESIAN_POINT('',(-4.25,-4.25,0.));
#1667=CARTESIAN_POINT('',(-4.25,-4.25,0.));
#1668=CARTESIAN_POINT('',(-4.25,-4.25,0.5));
#1669=CARTESIAN_POINT('',(-4.25,-4.25,0.5));
#1670=CARTESIAN_POINT('',(-4.25,-4.25,0.));
#1671=CARTESIAN_POINT('Origin',(-4.25,0.,0.));
#1672=CARTESIAN_POINT('',(-4.25,0.,0.));
#1673=CARTESIAN_POINT('',(-4.25,0.,0.));
#1674=CARTESIAN_POINT('',(-4.25,0.,0.5));
#1675=CARTESIAN_POINT('',(-4.25,0.,0.5));
#1676=CARTESIAN_POINT('',(-4.25,0.,0.));
#1677=CARTESIAN_POINT('Origin',(0.,0.,0.));
#1678=CARTESIAN_POINT('',(0.,0.,0.));
#1679=CARTESIAN_POINT('',(0.,0.,0.5));
#1680=CARTESIAN_POINT('Origin',(-2.125,-2.125,0.5));
#1681=CARTESIAN_POINT('Origin',(-2.125,-2.125,0.));
#1682=UNCERTAINTY_MEASURE_WITH_UNIT(LENGTH_MEASURE(0.000393700787401575),
#1687,'DISTANCE_ACCURACY_VALUE',
'Maximum model space distance between geometric entities at asserted c
onnectivities');
#1683=UNCERTAINTY_MEASURE_WITH_UNIT(LENGTH_MEASURE(0.000393700787401575),
#1687,'DISTANCE_ACCURACY_VALUE',
'Maximum model space distance between geometric entities at asserted c
onnectivities');
#1684=(
GEOMETRIC_REPRESENTATION_CONTEXT(3)
GLOBAL_UNCERTAINTY_ASSIGNED_CONTEXT((#1682))
GLOBAL_UNIT_ASSIGNED_CONTEXT((#1687,#1691,#1692))
REPRESENTATION_CONTEXT('','3D')
);
#1685=(
GEOMETRIC_REPRESENTATION_CONTEXT(3)
GLOBAL_UNCERTAINTY_ASSIGNED_CONTEXT((#1683))
GLOBAL_UNIT_ASSIGNED_CONTEXT((#1687,#1691,#1692))
REPRESENTATION_CONTEXT('','3D')
);
#1686=DIMENSIONAL_EXPONENTS(1.,0.,0.,0.,0.,0.,0.);
#1687=(
CONVERSION_BASED_UNIT('inch',#1690)
LENGTH_UNIT()
NAMED_UNIT(#1686)
);
#1688=(
LENGTH_UNIT()
NAMED_UNIT(*)
SI_UNIT(.MILLI.,.METRE.)
);
#1689=(
LENGTH_UNIT()
NAMED_UNIT(*)
SI_UNIT($,.METRE.)
);
#1690=LENGTH_MEASURE_WITH_UNIT(LENGTH_MEASURE(25.4),#1688);
#1691=(
NAMED_UNIT(*)
PLANE_ANGLE_UNIT()
SI_UNIT($,.RADIAN.)
);
#1692=(
NAMED_UNIT(*)
SI_UNIT($,.STERADIAN.)
SOLID_ANGLE_UNIT()
);
#1693=SHAPE_DEFINITION_REPRESENTATION(#1694,#1695);
#1694=PRODUCT_DEFINITION_SHAPE('',$,#1697);
#1695=SHAPE_REPRESENTATION('',(#1054),#1684);
#1696=PRODUCT_DEFINITION_CONTEXT('part definition',#1701,'design');
#1697=PRODUCT_DEFINITION('Baseplate','Baseplate',#1698,#1696);
#1698=PRODUCT_DEFINITION_FORMATION('',$,#1703);
#1699=PRODUCT_RELATED_PRODUCT_CATEGORY('Baseplate','Baseplate',(#1703));
#1700=APPLICATION_PROTOCOL_DEFINITION('international standard',
'automotive_design',2009,#1701);
#1701=APPLICATION_CONTEXT(
'Core Data for Automotive Mechanical Design Process');
#1702=PRODUCT_CONTEXT('part definition',#1701,'mechanical');
#1703=PRODUCT('Baseplate','Baseplate',$,(#1702));
#1704=PRESENTATION_STYLE_ASSIGNMENT((#1705));
#1705=SURFACE_STYLE_USAGE(.BOTH.,#1706);
#1706=SURFACE_SIDE_STYLE('',(#1707));
#1707=SURFACE_STYLE_FILL_AREA(#1708);
#1708=FILL_AREA_STYLE('Steel - Satin',(#1709));
#1709=FILL_AREA_STYLE_COLOUR('Steel - Satin',#1710);
#1710=COLOUR_RGB('Steel - Satin',0.627450980392157,0.627450980392157,0.627450980392157);
ENDSEC;
END-ISO-10303-21;
