ISO-10303-21;
HEADER;
/* Generated by software containing ST-Developer
 * from STEP Tools, Inc. (www.steptools.com) 
 */

FILE_DESCRIPTION(
/* description */ (''),
/* implementation_level */ '2;1');

FILE_NAME(
/* name */ 'Trammel T1 Component.step',
/* time_stamp */ '2026-09-20T23:45:30-04:00',
/* author */ (''),
/* organization */ (''),
/* preprocessor_version */ 'ST-DEVELOPER v20.2',
/* originating_system */ 'Autodesk Translation Framework v15.15.0.0',
/* authorisation */ '');

FILE_SCHEMA (('AUTOMOTIVE_DESIGN { 1 0 10303 214 3 1 1 }'));
ENDSEC;

DATA;
#10=MECHANICAL_DESIGN_GEOMETRIC_PRESENTATION_REPRESENTATION('',(#13),#697);
#11=SHAPE_REPRESENTATION_RELATIONSHIP('SRR','None',#707,#12);
#12=ADVANCED_BREP_SHAPE_REPRESENTATION('',(#14),#696);
#13=STYLED_ITEM('',(#716),#14);
#14=MANIFOLD_SOLID_BREP('Body1',#427);
#15=FACE_BOUND('',#59,.T.);
#16=FACE_BOUND('',#66,.T.);
#17=FACE_BOUND('',#71,.T.);
#18=CIRCLE('',#446,0.0885);
#19=CIRCLE('',#447,0.0885);
#20=CIRCLE('',#456,0.275095886524823);
#21=CIRCLE('',#458,0.275095886524823);
#22=CIRCLE('',#465,0.275095886524823);
#23=CYLINDRICAL_SURFACE('',#445,0.0885);
#24=CYLINDRICAL_SURFACE('',#464,0.275095886524823);
#25=FACE_OUTER_BOUND('',#47,.T.);
#26=FACE_OUTER_BOUND('',#48,.T.);
#27=FACE_OUTER_BOUND('',#49,.T.);
#28=FACE_OUTER_BOUND('',#50,.T.);
#29=FACE_OUTER_BOUND('',#51,.T.);
#30=FACE_OUTER_BOUND('',#52,.T.);
#31=FACE_OUTER_BOUND('',#53,.T.);
#32=FACE_OUTER_BOUND('',#54,.T.);
#33=FACE_OUTER_BOUND('',#55,.T.);
#34=FACE_OUTER_BOUND('',#56,.T.);
#35=FACE_OUTER_BOUND('',#57,.T.);
#36=FACE_OUTER_BOUND('',#58,.T.);
#37=FACE_OUTER_BOUND('',#60,.T.);
#38=FACE_OUTER_BOUND('',#61,.T.);
#39=FACE_OUTER_BOUND('',#62,.T.);
#40=FACE_OUTER_BOUND('',#63,.T.);
#41=FACE_OUTER_BOUND('',#64,.T.);
#42=FACE_OUTER_BOUND('',#65,.T.);
#43=FACE_OUTER_BOUND('',#67,.T.);
#44=FACE_OUTER_BOUND('',#68,.T.);
#45=FACE_OUTER_BOUND('',#69,.T.);
#46=FACE_OUTER_BOUND('',#70,.T.);
#47=EDGE_LOOP('',(#271,#272,#273,#274));
#48=EDGE_LOOP('',(#275,#276,#277,#278));
#49=EDGE_LOOP('',(#279,#280,#281,#282));
#50=EDGE_LOOP('',(#283,#284,#285,#286));
#51=EDGE_LOOP('',(#287,#288,#289,#290));
#52=EDGE_LOOP('',(#291,#292,#293,#294));
#53=EDGE_LOOP('',(#295,#296,#297,#298));
#54=EDGE_LOOP('',(#299,#300,#301,#302));
#55=EDGE_LOOP('',(#303,#304,#305,#306));
#56=EDGE_LOOP('',(#307,#308,#309,#310));
#57=EDGE_LOOP('',(#311,#312,#313,#314));
#58=EDGE_LOOP('',(#315,#316,#317,#318,#319,#320));
#59=EDGE_LOOP('',(#321));
#60=EDGE_LOOP('',(#322,#323,#324,#325,#326));
#61=EDGE_LOOP('',(#327,#328,#329,#330,#331));
#62=EDGE_LOOP('',(#332,#333,#334,#335));
#63=EDGE_LOOP('',(#336,#337,#338,#339));
#64=EDGE_LOOP('',(#340,#341,#342,#343,#344,#345,#346,#347,#348,#349));
#65=EDGE_LOOP('',(#350,#351,#352,#353,#354,#355,#356,#357));
#66=EDGE_LOOP('',(#358));
#67=EDGE_LOOP('',(#359,#360,#361,#362));
#68=EDGE_LOOP('',(#363,#364,#365,#366,#367,#368));
#69=EDGE_LOOP('',(#369,#370,#371,#372,#373,#374));
#70=EDGE_LOOP('',(#375,#376,#377,#378));
#71=EDGE_LOOP('',(#379,#380,#381,#382,#383,#384));
#72=LINE('',#580,#124);
#73=LINE('',#582,#125);
#74=LINE('',#584,#126);
#75=LINE('',#585,#127);
#76=LINE('',#588,#128);
#77=LINE('',#590,#129);
#78=LINE('',#591,#130);
#79=LINE('',#594,#131);
#80=LINE('',#596,#132);
#81=LINE('',#597,#133);
#82=LINE('',#599,#134);
#83=LINE('',#604,#135);
#84=LINE('',#609,#136);
#85=LINE('',#611,#137);
#86=LINE('',#613,#138);
#87=LINE('',#614,#139);
#88=LINE('',#617,#140);
#89=LINE('',#619,#141);
#90=LINE('',#620,#142);
#91=LINE('',#623,#143);
#92=LINE('',#625,#144);
#93=LINE('',#626,#145);
#94=LINE('',#629,#146);
#95=LINE('',#631,#147);
#96=LINE('',#632,#148);
#97=LINE('',#635,#149);
#98=LINE('',#637,#150);
#99=LINE('',#638,#151);
#100=LINE('',#640,#152);
#101=LINE('',#641,#153);
#102=LINE('',#648,#154);
#103=LINE('',#650,#155);
#104=LINE('',#652,#156);
#105=LINE('',#653,#157);
#106=LINE('',#659,#158);
#107=LINE('',#661,#159);
#108=LINE('',#663,#160);
#109=LINE('',#664,#161);
#110=LINE('',#666,#162);
#111=LINE('',#667,#163);
#112=LINE('',#670,#164);
#113=LINE('',#672,#165);
#114=LINE('',#673,#166);
#115=LINE('',#675,#167);
#116=LINE('',#677,#168);
#117=LINE('',#679,#169);
#118=LINE('',#680,#170);
#119=LINE('',#683,#171);
#120=LINE('',#684,#172);
#121=LINE('',#687,#173);
#122=LINE('',#688,#174);
#123=LINE('',#692,#175);
#124=VECTOR('',#472,0.393700787401575);
#125=VECTOR('',#473,0.393700787401575);
#126=VECTOR('',#474,0.393700787401575);
#127=VECTOR('',#475,0.393700787401575);
#128=VECTOR('',#478,0.393700787401575);
#129=VECTOR('',#479,0.393700787401575);
#130=VECTOR('',#480,0.393700787401575);
#131=VECTOR('',#483,0.393700787401575);
#132=VECTOR('',#484,0.393700787401575);
#133=VECTOR('',#485,0.393700787401575);
#134=VECTOR('',#488,0.393700787401575);
#135=VECTOR('',#493,0.0885);
#136=VECTOR('',#498,0.393700787401575);
#137=VECTOR('',#499,0.393700787401575);
#138=VECTOR('',#500,0.393700787401575);
#139=VECTOR('',#501,0.393700787401575);
#140=VECTOR('',#504,0.393700787401575);
#141=VECTOR('',#505,0.393700787401575);
#142=VECTOR('',#506,0.393700787401575);
#143=VECTOR('',#509,0.393700787401575);
#144=VECTOR('',#510,0.393700787401575);
#145=VECTOR('',#511,0.393700787401575);
#146=VECTOR('',#514,0.393700787401575);
#147=VECTOR('',#515,0.393700787401575);
#148=VECTOR('',#516,0.393700787401575);
#149=VECTOR('',#519,0.393700787401575);
#150=VECTOR('',#520,0.393700787401575);
#151=VECTOR('',#521,0.393700787401575);
#152=VECTOR('',#524,0.393700787401575);
#153=VECTOR('',#525,0.393700787401575);
#154=VECTOR('',#532,0.393700787401575);
#155=VECTOR('',#533,0.393700787401575);
#156=VECTOR('',#534,0.393700787401575);
#157=VECTOR('',#535,0.393700787401575);
#158=VECTOR('',#540,0.393700787401575);
#159=VECTOR('',#541,0.393700787401575);
#160=VECTOR('',#542,0.393700787401575);
#161=VECTOR('',#543,0.393700787401575);
#162=VECTOR('',#546,0.393700787401575);
#163=VECTOR('',#547,0.393700787401575);
#164=VECTOR('',#550,0.393700787401575);
#165=VECTOR('',#551,0.393700787401575);
#166=VECTOR('',#552,0.393700787401575);
#167=VECTOR('',#555,0.393700787401575);
#168=VECTOR('',#556,0.393700787401575);
#169=VECTOR('',#557,0.393700787401575);
#170=VECTOR('',#558,0.393700787401575);
#171=VECTOR('',#561,0.393700787401575);
#172=VECTOR('',#562,0.393700787401575);
#173=VECTOR('',#565,0.393700787401575);
#174=VECTOR('',#566,0.393700787401575);
#175=VECTOR('',#573,0.393700787401575);
#176=VERTEX_POINT('',#578);
#177=VERTEX_POINT('',#579);
#178=VERTEX_POINT('',#581);
#179=VERTEX_POINT('',#583);
#180=VERTEX_POINT('',#587);
#181=VERTEX_POINT('',#589);
#182=VERTEX_POINT('',#593);
#183=VERTEX_POINT('',#595);
#184=VERTEX_POINT('',#601);
#185=VERTEX_POINT('',#603);
#186=VERTEX_POINT('',#607);
#187=VERTEX_POINT('',#608);
#188=VERTEX_POINT('',#610);
#189=VERTEX_POINT('',#612);
#190=VERTEX_POINT('',#616);
#191=VERTEX_POINT('',#618);
#192=VERTEX_POINT('',#622);
#193=VERTEX_POINT('',#624);
#194=VERTEX_POINT('',#628);
#195=VERTEX_POINT('',#630);
#196=VERTEX_POINT('',#634);
#197=VERTEX_POINT('',#636);
#198=VERTEX_POINT('',#644);
#199=VERTEX_POINT('',#645);
#200=VERTEX_POINT('',#647);
#201=VERTEX_POINT('',#649);
#202=VERTEX_POINT('',#651);
#203=VERTEX_POINT('',#655);
#204=VERTEX_POINT('',#656);
#205=VERTEX_POINT('',#658);
#206=VERTEX_POINT('',#660);
#207=VERTEX_POINT('',#662);
#208=VERTEX_POINT('',#669);
#209=VERTEX_POINT('',#671);
#210=VERTEX_POINT('',#676);
#211=VERTEX_POINT('',#678);
#212=VERTEX_POINT('',#682);
#213=VERTEX_POINT('',#686);
#214=EDGE_CURVE('',#176,#177,#72,.T.);
#215=EDGE_CURVE('',#176,#178,#73,.T.);
#216=EDGE_CURVE('',#179,#178,#74,.T.);
#217=EDGE_CURVE('',#177,#179,#75,.T.);
#218=EDGE_CURVE('',#177,#180,#76,.T.);
#219=EDGE_CURVE('',#181,#179,#77,.T.);
#220=EDGE_CURVE('',#180,#181,#78,.T.);
#221=EDGE_CURVE('',#182,#176,#79,.T.);
#222=EDGE_CURVE('',#182,#183,#80,.T.);
#223=EDGE_CURVE('',#178,#183,#81,.T.);
#224=EDGE_CURVE('',#183,#181,#82,.T.);
#225=EDGE_CURVE('',#184,#184,#18,.T.);
#226=EDGE_CURVE('',#184,#185,#83,.T.);
#227=EDGE_CURVE('',#185,#185,#19,.T.);
#228=EDGE_CURVE('',#186,#187,#84,.T.);
#229=EDGE_CURVE('',#186,#188,#85,.T.);
#230=EDGE_CURVE('',#188,#189,#86,.T.);
#231=EDGE_CURVE('',#187,#189,#87,.T.);
#232=EDGE_CURVE('',#190,#186,#88,.T.);
#233=EDGE_CURVE('',#190,#191,#89,.T.);
#234=EDGE_CURVE('',#191,#188,#90,.T.);
#235=EDGE_CURVE('',#192,#190,#91,.T.);
#236=EDGE_CURVE('',#192,#193,#92,.T.);
#237=EDGE_CURVE('',#193,#191,#93,.T.);
#238=EDGE_CURVE('',#194,#192,#94,.T.);
#239=EDGE_CURVE('',#194,#195,#95,.T.);
#240=EDGE_CURVE('',#195,#193,#96,.T.);
#241=EDGE_CURVE('',#196,#194,#97,.T.);
#242=EDGE_CURVE('',#196,#197,#98,.T.);
#243=EDGE_CURVE('',#197,#195,#99,.T.);
#244=EDGE_CURVE('',#187,#196,#100,.T.);
#245=EDGE_CURVE('',#189,#197,#101,.T.);
#246=EDGE_CURVE('',#198,#199,#20,.T.);
#247=EDGE_CURVE('',#200,#198,#102,.T.);
#248=EDGE_CURVE('',#201,#200,#103,.T.);
#249=EDGE_CURVE('',#202,#201,#104,.T.);
#250=EDGE_CURVE('',#199,#202,#105,.T.);
#251=EDGE_CURVE('',#203,#204,#21,.T.);
#252=EDGE_CURVE('',#205,#203,#106,.T.);
#253=EDGE_CURVE('',#206,#205,#107,.T.);
#254=EDGE_CURVE('',#207,#206,#108,.T.);
#255=EDGE_CURVE('',#207,#204,#109,.T.);
#256=EDGE_CURVE('',#204,#198,#110,.T.);
#257=EDGE_CURVE('',#200,#207,#111,.T.);
#258=EDGE_CURVE('',#208,#202,#112,.T.);
#259=EDGE_CURVE('',#209,#208,#113,.T.);
#260=EDGE_CURVE('',#199,#209,#114,.T.);
#261=EDGE_CURVE('',#206,#180,#115,.T.);
#262=EDGE_CURVE('',#182,#210,#116,.T.);
#263=EDGE_CURVE('',#210,#211,#117,.T.);
#264=EDGE_CURVE('',#201,#211,#118,.T.);
#265=EDGE_CURVE('',#205,#212,#119,.T.);
#266=EDGE_CURVE('',#210,#212,#120,.T.);
#267=EDGE_CURVE('',#203,#213,#121,.T.);
#268=EDGE_CURVE('',#212,#213,#122,.T.);
#269=EDGE_CURVE('',#213,#209,#22,.T.);
#270=EDGE_CURVE('',#211,#208,#123,.T.);
#271=ORIENTED_EDGE('',*,*,#214,.F.);
#272=ORIENTED_EDGE('',*,*,#215,.T.);
#273=ORIENTED_EDGE('',*,*,#216,.F.);
#274=ORIENTED_EDGE('',*,*,#217,.F.);
#275=ORIENTED_EDGE('',*,*,#218,.F.);
#276=ORIENTED_EDGE('',*,*,#217,.T.);
#277=ORIENTED_EDGE('',*,*,#219,.F.);
#278=ORIENTED_EDGE('',*,*,#220,.F.);
#279=ORIENTED_EDGE('',*,*,#221,.F.);
#280=ORIENTED_EDGE('',*,*,#222,.T.);
#281=ORIENTED_EDGE('',*,*,#223,.F.);
#282=ORIENTED_EDGE('',*,*,#215,.F.);
#283=ORIENTED_EDGE('',*,*,#223,.T.);
#284=ORIENTED_EDGE('',*,*,#224,.T.);
#285=ORIENTED_EDGE('',*,*,#219,.T.);
#286=ORIENTED_EDGE('',*,*,#216,.T.);
#287=ORIENTED_EDGE('',*,*,#225,.F.);
#288=ORIENTED_EDGE('',*,*,#226,.T.);
#289=ORIENTED_EDGE('',*,*,#227,.F.);
#290=ORIENTED_EDGE('',*,*,#226,.F.);
#291=ORIENTED_EDGE('',*,*,#228,.F.);
#292=ORIENTED_EDGE('',*,*,#229,.T.);
#293=ORIENTED_EDGE('',*,*,#230,.T.);
#294=ORIENTED_EDGE('',*,*,#231,.F.);
#295=ORIENTED_EDGE('',*,*,#232,.F.);
#296=ORIENTED_EDGE('',*,*,#233,.T.);
#297=ORIENTED_EDGE('',*,*,#234,.T.);
#298=ORIENTED_EDGE('',*,*,#229,.F.);
#299=ORIENTED_EDGE('',*,*,#235,.F.);
#300=ORIENTED_EDGE('',*,*,#236,.T.);
#301=ORIENTED_EDGE('',*,*,#237,.T.);
#302=ORIENTED_EDGE('',*,*,#233,.F.);
#303=ORIENTED_EDGE('',*,*,#238,.F.);
#304=ORIENTED_EDGE('',*,*,#239,.T.);
#305=ORIENTED_EDGE('',*,*,#240,.T.);
#306=ORIENTED_EDGE('',*,*,#236,.F.);
#307=ORIENTED_EDGE('',*,*,#241,.F.);
#308=ORIENTED_EDGE('',*,*,#242,.T.);
#309=ORIENTED_EDGE('',*,*,#243,.T.);
#310=ORIENTED_EDGE('',*,*,#239,.F.);
#311=ORIENTED_EDGE('',*,*,#244,.F.);
#312=ORIENTED_EDGE('',*,*,#231,.T.);
#313=ORIENTED_EDGE('',*,*,#245,.T.);
#314=ORIENTED_EDGE('',*,*,#242,.F.);
#315=ORIENTED_EDGE('',*,*,#245,.F.);
#316=ORIENTED_EDGE('',*,*,#230,.F.);
#317=ORIENTED_EDGE('',*,*,#234,.F.);
#318=ORIENTED_EDGE('',*,*,#237,.F.);
#319=ORIENTED_EDGE('',*,*,#240,.F.);
#320=ORIENTED_EDGE('',*,*,#243,.F.);
#321=ORIENTED_EDGE('',*,*,#225,.T.);
#322=ORIENTED_EDGE('',*,*,#246,.F.);
#323=ORIENTED_EDGE('',*,*,#247,.F.);
#324=ORIENTED_EDGE('',*,*,#248,.F.);
#325=ORIENTED_EDGE('',*,*,#249,.F.);
#326=ORIENTED_EDGE('',*,*,#250,.F.);
#327=ORIENTED_EDGE('',*,*,#251,.F.);
#328=ORIENTED_EDGE('',*,*,#252,.F.);
#329=ORIENTED_EDGE('',*,*,#253,.F.);
#330=ORIENTED_EDGE('',*,*,#254,.F.);
#331=ORIENTED_EDGE('',*,*,#255,.T.);
#332=ORIENTED_EDGE('',*,*,#256,.F.);
#333=ORIENTED_EDGE('',*,*,#255,.F.);
#334=ORIENTED_EDGE('',*,*,#257,.F.);
#335=ORIENTED_EDGE('',*,*,#247,.T.);
#336=ORIENTED_EDGE('',*,*,#250,.T.);
#337=ORIENTED_EDGE('',*,*,#258,.F.);
#338=ORIENTED_EDGE('',*,*,#259,.F.);
#339=ORIENTED_EDGE('',*,*,#260,.F.);
#340=ORIENTED_EDGE('',*,*,#248,.T.);
#341=ORIENTED_EDGE('',*,*,#257,.T.);
#342=ORIENTED_EDGE('',*,*,#254,.T.);
#343=ORIENTED_EDGE('',*,*,#261,.T.);
#344=ORIENTED_EDGE('',*,*,#220,.T.);
#345=ORIENTED_EDGE('',*,*,#224,.F.);
#346=ORIENTED_EDGE('',*,*,#222,.F.);
#347=ORIENTED_EDGE('',*,*,#262,.T.);
#348=ORIENTED_EDGE('',*,*,#263,.T.);
#349=ORIENTED_EDGE('',*,*,#264,.F.);
#350=ORIENTED_EDGE('',*,*,#218,.T.);
#351=ORIENTED_EDGE('',*,*,#261,.F.);
#352=ORIENTED_EDGE('',*,*,#253,.T.);
#353=ORIENTED_EDGE('',*,*,#265,.T.);
#354=ORIENTED_EDGE('',*,*,#266,.F.);
#355=ORIENTED_EDGE('',*,*,#262,.F.);
#356=ORIENTED_EDGE('',*,*,#221,.T.);
#357=ORIENTED_EDGE('',*,*,#214,.T.);
#358=ORIENTED_EDGE('',*,*,#227,.T.);
#359=ORIENTED_EDGE('',*,*,#252,.T.);
#360=ORIENTED_EDGE('',*,*,#267,.T.);
#361=ORIENTED_EDGE('',*,*,#268,.F.);
#362=ORIENTED_EDGE('',*,*,#265,.F.);
#363=ORIENTED_EDGE('',*,*,#246,.T.);
#364=ORIENTED_EDGE('',*,*,#260,.T.);
#365=ORIENTED_EDGE('',*,*,#269,.F.);
#366=ORIENTED_EDGE('',*,*,#267,.F.);
#367=ORIENTED_EDGE('',*,*,#251,.T.);
#368=ORIENTED_EDGE('',*,*,#256,.T.);
#369=ORIENTED_EDGE('',*,*,#259,.T.);
#370=ORIENTED_EDGE('',*,*,#270,.F.);
#371=ORIENTED_EDGE('',*,*,#263,.F.);
#372=ORIENTED_EDGE('',*,*,#266,.T.);
#373=ORIENTED_EDGE('',*,*,#268,.T.);
#374=ORIENTED_EDGE('',*,*,#269,.T.);
#375=ORIENTED_EDGE('',*,*,#249,.T.);
#376=ORIENTED_EDGE('',*,*,#264,.T.);
#377=ORIENTED_EDGE('',*,*,#270,.T.);
#378=ORIENTED_EDGE('',*,*,#258,.T.);
#379=ORIENTED_EDGE('',*,*,#228,.T.);
#380=ORIENTED_EDGE('',*,*,#244,.T.);
#381=ORIENTED_EDGE('',*,*,#241,.T.);
#382=ORIENTED_EDGE('',*,*,#238,.T.);
#383=ORIENTED_EDGE('',*,*,#235,.T.);
#384=ORIENTED_EDGE('',*,*,#232,.T.);
#385=PLANE('',#441);
#386=PLANE('',#442);
#387=PLANE('',#443);
#388=PLANE('',#444);
#389=PLANE('',#448);
#390=PLANE('',#449);
#391=PLANE('',#450);
#392=PLANE('',#451);
#393=PLANE('',#452);
#394=PLANE('',#453);
#395=PLANE('',#454);
#396=PLANE('',#455);
#397=PLANE('',#457);
#398=PLANE('',#459);
#399=PLANE('',#460);
#400=PLANE('',#461);
#401=PLANE('',#462);
#402=PLANE('',#463);
#403=PLANE('',#466);
#404=PLANE('',#467);
#405=ADVANCED_FACE('',(#25),#385,.T.);
#406=ADVANCED_FACE('',(#26),#386,.T.);
#407=ADVANCED_FACE('',(#27),#387,.T.);
#408=ADVANCED_FACE('',(#28),#388,.T.);
#409=ADVANCED_FACE('',(#29),#23,.F.);
#410=ADVANCED_FACE('',(#30),#389,.F.);
#411=ADVANCED_FACE('',(#31),#390,.F.);
#412=ADVANCED_FACE('',(#32),#391,.F.);
#413=ADVANCED_FACE('',(#33),#392,.F.);
#414=ADVANCED_FACE('',(#34),#393,.F.);
#415=ADVANCED_FACE('',(#35),#394,.F.);
#416=ADVANCED_FACE('',(#36,#15),#395,.F.);
#417=ADVANCED_FACE('',(#37),#396,.F.);
#418=ADVANCED_FACE('',(#38),#397,.F.);
#419=ADVANCED_FACE('',(#39),#398,.F.);
#420=ADVANCED_FACE('',(#40),#399,.F.);
#421=ADVANCED_FACE('',(#41),#400,.T.);
#422=ADVANCED_FACE('',(#42,#16),#401,.F.);
#423=ADVANCED_FACE('',(#43),#402,.F.);
#424=ADVANCED_FACE('',(#44),#24,.F.);
#425=ADVANCED_FACE('',(#45),#403,.T.);
#426=ADVANCED_FACE('',(#46,#17),#404,.T.);
#427=CLOSED_SHELL('',(#405,#406,#407,#408,#409,#410,#411,#412,#413,#414,
#415,#416,#417,#418,#419,#420,#421,#422,#423,#424,#425,#426));
#428=DERIVED_UNIT_ELEMENT(#430,1.);
#429=DERIVED_UNIT_ELEMENT(#701,-3.);
#430=(
MASS_UNIT()
NAMED_UNIT(*)
SI_UNIT(.KILO.,.GRAM.)
);
#431=DERIVED_UNIT((#428,#429));
#432=MEASURE_REPRESENTATION_ITEM('density measure',
POSITIVE_RATIO_MEASURE(7850.),#431);
#433=PROPERTY_DEFINITION_REPRESENTATION(#438,#435);
#434=PROPERTY_DEFINITION_REPRESENTATION(#439,#436);
#435=REPRESENTATION('material name',(#437),#696);
#436=REPRESENTATION('density',(#432),#696);
#437=DESCRIPTIVE_REPRESENTATION_ITEM('Steel','Steel');
#438=PROPERTY_DEFINITION('material property','material name',#709);
#439=PROPERTY_DEFINITION('material property','density of part',#709);
#440=AXIS2_PLACEMENT_3D('',#576,#468,#469);
#441=AXIS2_PLACEMENT_3D('',#577,#470,#471);
#442=AXIS2_PLACEMENT_3D('',#586,#476,#477);
#443=AXIS2_PLACEMENT_3D('',#592,#481,#482);
#444=AXIS2_PLACEMENT_3D('',#598,#486,#487);
#445=AXIS2_PLACEMENT_3D('',#600,#489,#490);
#446=AXIS2_PLACEMENT_3D('',#602,#491,#492);
#447=AXIS2_PLACEMENT_3D('',#605,#494,#495);
#448=AXIS2_PLACEMENT_3D('',#606,#496,#497);
#449=AXIS2_PLACEMENT_3D('',#615,#502,#503);
#450=AXIS2_PLACEMENT_3D('',#621,#507,#508);
#451=AXIS2_PLACEMENT_3D('',#627,#512,#513);
#452=AXIS2_PLACEMENT_3D('',#633,#517,#518);
#453=AXIS2_PLACEMENT_3D('',#639,#522,#523);
#454=AXIS2_PLACEMENT_3D('',#642,#526,#527);
#455=AXIS2_PLACEMENT_3D('',#643,#528,#529);
#456=AXIS2_PLACEMENT_3D('',#646,#530,#531);
#457=AXIS2_PLACEMENT_3D('',#654,#536,#537);
#458=AXIS2_PLACEMENT_3D('',#657,#538,#539);
#459=AXIS2_PLACEMENT_3D('',#665,#544,#545);
#460=AXIS2_PLACEMENT_3D('',#668,#548,#549);
#461=AXIS2_PLACEMENT_3D('',#674,#553,#554);
#462=AXIS2_PLACEMENT_3D('',#681,#559,#560);
#463=AXIS2_PLACEMENT_3D('',#685,#563,#564);
#464=AXIS2_PLACEMENT_3D('',#689,#567,#568);
#465=AXIS2_PLACEMENT_3D('',#690,#569,#570);
#466=AXIS2_PLACEMENT_3D('',#691,#571,#572);
#467=AXIS2_PLACEMENT_3D('',#693,#574,#575);
#468=DIRECTION('axis',(0.,0.,1.));
#469=DIRECTION('refdir',(1.,0.,0.));
#470=DIRECTION('center_axis',(0.,-1.,0.));
#471=DIRECTION('ref_axis',(-1.,0.,0.));
#472=DIRECTION('',(1.,0.,0.));
#473=DIRECTION('',(0.,0.,-1.));
#474=DIRECTION('',(-1.,0.,0.));
#475=DIRECTION('',(0.,0.,-1.));
#476=DIRECTION('center_axis',(1.,0.,0.));
#477=DIRECTION('ref_axis',(0.,-1.,0.));
#478=DIRECTION('',(0.,1.,0.));
#479=DIRECTION('',(0.,-1.,0.));
#480=DIRECTION('',(0.,0.,-1.));
#481=DIRECTION('center_axis',(-1.,0.,0.));
#482=DIRECTION('ref_axis',(0.,1.,0.));
#483=DIRECTION('',(0.,-1.,0.));
#484=DIRECTION('',(0.,0.,-1.));
#485=DIRECTION('',(0.,1.,0.));
#486=DIRECTION('center_axis',(0.,0.,-1.));
#487=DIRECTION('ref_axis',(-1.,0.,0.));
#488=DIRECTION('',(1.,0.,0.));
#489=DIRECTION('center_axis',(0.,0.,-1.));
#490=DIRECTION('ref_axis',(1.,0.,0.));
#491=DIRECTION('center_axis',(0.,0.,-1.));
#492=DIRECTION('ref_axis',(1.,0.,0.));
#493=DIRECTION('',(0.,0.,-1.));
#494=DIRECTION('center_axis',(0.,0.,1.));
#495=DIRECTION('ref_axis',(1.,0.,0.));
#496=DIRECTION('center_axis',(0.499999999999999,0.866025403784439,0.));
#497=DIRECTION('ref_axis',(0.866025403784439,-0.499999999999999,0.));
#498=DIRECTION('',(0.866025403784439,-0.499999999999999,0.));
#499=DIRECTION('',(0.,0.,-1.));
#500=DIRECTION('',(0.866025403784439,-0.499999999999999,0.));
#501=DIRECTION('',(0.,0.,-1.));
#502=DIRECTION('center_axis',(-0.499999999999999,0.866025403784439,0.));
#503=DIRECTION('ref_axis',(0.866025403784439,0.499999999999999,0.));
#504=DIRECTION('',(0.866025403784439,0.499999999999999,0.));
#505=DIRECTION('',(0.,0.,-1.));
#506=DIRECTION('',(0.866025403784439,0.499999999999999,0.));
#507=DIRECTION('center_axis',(-1.,0.,0.));
#508=DIRECTION('ref_axis',(0.,1.,0.));
#509=DIRECTION('',(0.,1.,0.));
#510=DIRECTION('',(0.,0.,-1.));
#511=DIRECTION('',(0.,1.,0.));
#512=DIRECTION('center_axis',(-0.5,-0.866025403784439,0.));
#513=DIRECTION('ref_axis',(-0.866025403784439,0.5,0.));
#514=DIRECTION('',(-0.866025403784439,0.5,0.));
#515=DIRECTION('',(0.,0.,-1.));
#516=DIRECTION('',(-0.866025403784439,0.5,0.));
#517=DIRECTION('center_axis',(0.499999999999998,-0.86602540378444,0.));
#518=DIRECTION('ref_axis',(-0.86602540378444,-0.499999999999998,0.));
#519=DIRECTION('',(-0.86602540378444,-0.499999999999998,0.));
#520=DIRECTION('',(0.,0.,-1.));
#521=DIRECTION('',(-0.86602540378444,-0.499999999999998,0.));
#522=DIRECTION('center_axis',(1.,0.,0.));
#523=DIRECTION('ref_axis',(0.,-1.,0.));
#524=DIRECTION('',(0.,-1.,0.));
#525=DIRECTION('',(0.,-1.,0.));
#526=DIRECTION('center_axis',(0.,0.,-1.));
#527=DIRECTION('ref_axis',(-1.,0.,0.));
#528=DIRECTION('center_axis',(-1.,0.,0.));
#529=DIRECTION('ref_axis',(0.,0.,-1.));
#530=DIRECTION('center_axis',(1.,0.,0.));
#531=DIRECTION('ref_axis',(0.,1.,-1.58888482306275E-16));
#532=DIRECTION('',(0.,-1.,0.));
#533=DIRECTION('',(0.,0.,-1.));
#534=DIRECTION('',(0.,1.,0.));
#535=DIRECTION('',(0.,0.,1.));
#536=DIRECTION('center_axis',(-1.,0.,0.));
#537=DIRECTION('ref_axis',(0.,0.,-1.));
#538=DIRECTION('center_axis',(1.,0.,0.));
#539=DIRECTION('ref_axis',(0.,1.,-1.58888482306275E-16));
#540=DIRECTION('',(0.,0.,1.));
#541=DIRECTION('',(0.,-1.,0.));
#542=DIRECTION('',(0.,0.,-1.));
#543=DIRECTION('',(0.,-1.,0.));
#544=DIRECTION('center_axis',(0.,0.,1.));
#545=DIRECTION('ref_axis',(-1.,0.,0.));
#546=DIRECTION('',(1.,0.,0.));
#547=DIRECTION('',(-1.,0.,0.));
#548=DIRECTION('center_axis',(0.,1.,0.));
#549=DIRECTION('ref_axis',(0.,0.,-1.));
#550=DIRECTION('',(1.,0.,0.));
#551=DIRECTION('',(0.,0.,1.));
#552=DIRECTION('',(-1.,0.,0.));
#553=DIRECTION('center_axis',(0.,1.,0.));
#554=DIRECTION('ref_axis',(-1.,0.,0.));
#555=DIRECTION('',(-1.,0.,0.));
#556=DIRECTION('',(-1.,0.,0.));
#557=DIRECTION('',(0.,0.,1.));
#558=DIRECTION('',(-1.,0.,0.));
#559=DIRECTION('center_axis',(0.,0.,1.));
#560=DIRECTION('ref_axis',(1.,0.,0.));
#561=DIRECTION('',(-1.,0.,0.));
#562=DIRECTION('',(1.14182043946997E-33,-1.,0.));
#563=DIRECTION('center_axis',(0.,1.,0.));
#564=DIRECTION('ref_axis',(0.,0.,-1.));
#565=DIRECTION('',(-1.,0.,0.));
#566=DIRECTION('',(0.,0.,1.));
#567=DIRECTION('center_axis',(-1.,0.,0.));
#568=DIRECTION('ref_axis',(0.,1.,-1.58888482306275E-16));
#569=DIRECTION('center_axis',(1.,1.14182043946997E-33,0.));
#570=DIRECTION('ref_axis',(0.,1.,-1.58888482306275E-16));
#571=DIRECTION('center_axis',(-1.,-1.14182043946997E-33,0.));
#572=DIRECTION('ref_axis',(1.14182043946997E-33,-1.,0.));
#573=DIRECTION('',(1.14182043946997E-33,-1.,0.));
#574=DIRECTION('center_axis',(0.,0.,1.));
#575=DIRECTION('ref_axis',(1.,0.,0.));
#576=CARTESIAN_POINT('',(0.,0.,0.));
#577=CARTESIAN_POINT('Origin',(0.9,0.395,0.));
#578=CARTESIAN_POINT('',(0.5,0.395,0.));
#579=CARTESIAN_POINT('',(0.9,0.395,0.));
#580=CARTESIAN_POINT('',(0.98125,0.395,0.));
#581=CARTESIAN_POINT('',(0.5,0.395,-0.24));
#582=CARTESIAN_POINT('',(0.5,0.395,0.));
#583=CARTESIAN_POINT('',(0.9,0.395,-0.24));
#584=CARTESIAN_POINT('',(0.9,0.395,-0.24));
#585=CARTESIAN_POINT('',(0.9,0.395,0.));
#586=CARTESIAN_POINT('Origin',(0.9,2.125,0.));
#587=CARTESIAN_POINT('',(0.9,2.125,0.));
#588=CARTESIAN_POINT('',(0.9,1.59375,0.));
#589=CARTESIAN_POINT('',(0.9,2.125,-0.24));
#590=CARTESIAN_POINT('',(0.9,2.125,-0.24));
#591=CARTESIAN_POINT('',(0.9,2.125,0.));
#592=CARTESIAN_POINT('Origin',(0.5,0.395,0.));
#593=CARTESIAN_POINT('',(0.5,2.125,0.));
#594=CARTESIAN_POINT('',(0.5,0.72875,0.));
#595=CARTESIAN_POINT('',(0.5,2.125,-0.24));
#596=CARTESIAN_POINT('',(0.5,2.125,0.));
#597=CARTESIAN_POINT('',(0.5,0.395,-0.24));
#598=CARTESIAN_POINT('Origin',(0.7,1.26,-0.24));
#599=CARTESIAN_POINT('',(0.5,2.125,-0.24));
#600=CARTESIAN_POINT('Origin',(1.3915,1.245,0.25));
#601=CARTESIAN_POINT('',(1.303,1.245,0.375));
#602=CARTESIAN_POINT('Origin',(1.3915,1.245,0.375));
#603=CARTESIAN_POINT('',(1.303,1.245,0.));
#604=CARTESIAN_POINT('',(1.303,1.245,0.25));
#605=CARTESIAN_POINT('Origin',(1.3915,1.245,0.));
#606=CARTESIAN_POINT('Origin',(1.3915,1.45515549798502,0.5));
#607=CARTESIAN_POINT('',(1.3915,1.45515549798502,0.5));
#608=CARTESIAN_POINT('',(1.5735,1.35007774899251,0.5));
#609=CARTESIAN_POINT('',(1.35313740904766,1.47730415019817,0.5));
#610=CARTESIAN_POINT('',(1.3915,1.45515549798502,0.375));
#611=CARTESIAN_POINT('',(1.3915,1.45515549798502,0.5));
#612=CARTESIAN_POINT('',(1.5735,1.35007774899251,0.375));
#613=CARTESIAN_POINT('',(1.5735,1.35007774899251,0.375));
#614=CARTESIAN_POINT('',(1.5735,1.35007774899251,0.5));
#615=CARTESIAN_POINT('Origin',(1.2095,1.35007774899251,0.5));
#616=CARTESIAN_POINT('',(1.2095,1.35007774899251,0.5));
#617=CARTESIAN_POINT('',(1.09211259095233,1.28230409677937,0.5));
#618=CARTESIAN_POINT('',(1.2095,1.35007774899251,0.375));
#619=CARTESIAN_POINT('',(1.2095,1.35007774899251,0.5));
#620=CARTESIAN_POINT('',(1.3915,1.45515549798502,0.375));
#621=CARTESIAN_POINT('Origin',(1.2095,1.13992225100749,0.5));
#622=CARTESIAN_POINT('',(1.2095,1.13992225100749,0.5));
#623=CARTESIAN_POINT('',(1.2095,1.10121112550374,0.5));
#624=CARTESIAN_POINT('',(1.2095,1.13992225100749,0.375));
#625=CARTESIAN_POINT('',(1.2095,1.13992225100749,0.5));
#626=CARTESIAN_POINT('',(1.2095,1.35007774899251,0.375));
#627=CARTESIAN_POINT('Origin',(1.3915,1.03484450201498,0.5));
#628=CARTESIAN_POINT('',(1.3915,1.03484450201498,0.5));
#629=CARTESIAN_POINT('',(1.26213740904766,1.10953202872437,0.5));
#630=CARTESIAN_POINT('',(1.3915,1.03484450201498,0.375));
#631=CARTESIAN_POINT('',(1.3915,1.03484450201498,0.5));
#632=CARTESIAN_POINT('',(1.2095,1.13992225100749,0.375));
#633=CARTESIAN_POINT('Origin',(1.5735,1.13992225100749,0.5));
#634=CARTESIAN_POINT('',(1.5735,1.13992225100749,0.5));
#635=CARTESIAN_POINT('',(1.36511259095233,1.01960972429809,0.5));
#636=CARTESIAN_POINT('',(1.5735,1.13992225100749,0.375));
#637=CARTESIAN_POINT('',(1.5735,1.13992225100749,0.5));
#638=CARTESIAN_POINT('',(1.3915,1.03484450201498,0.375));
#639=CARTESIAN_POINT('Origin',(1.5735,1.35007774899251,0.5));
#640=CARTESIAN_POINT('',(1.5735,1.20628887449626,0.5));
#641=CARTESIAN_POINT('',(1.5735,1.13992225100749,0.375));
#642=CARTESIAN_POINT('Origin',(1.3915,1.245,0.375));
#643=CARTESIAN_POINT('Origin',(1.8915,2.125,0.5));
#644=CARTESIAN_POINT('',(1.8915,0.250327096426344,0.355));
#645=CARTESIAN_POINT('',(1.8915,0.2335,0.3652));
#646=CARTESIAN_POINT('Origin',(1.8915,0.0994041134751774,0.125));
#647=CARTESIAN_POINT('',(1.8915,2.125,0.355));
#648=CARTESIAN_POINT('',(1.8915,2.125,0.355));
#649=CARTESIAN_POINT('',(1.8915,2.125,0.5));
#650=CARTESIAN_POINT('',(1.8915,2.125,0.25));
#651=CARTESIAN_POINT('',(1.8915,0.2335,0.5));
#652=CARTESIAN_POINT('',(1.8915,1.59375,0.5));
#653=CARTESIAN_POINT('',(1.8915,0.2335,0.5));
#654=CARTESIAN_POINT('Origin',(1.7505,2.125,0.355));
#655=CARTESIAN_POINT('',(1.7505,0.3745,0.125));
#656=CARTESIAN_POINT('',(1.7505,0.250327096426344,0.355));
#657=CARTESIAN_POINT('Origin',(1.7505,0.0994041134751774,0.125));
#658=CARTESIAN_POINT('',(1.7505,0.3745,0.));
#659=CARTESIAN_POINT('',(1.7505,0.3745,0.24));
#660=CARTESIAN_POINT('',(1.7505,2.125,0.));
#661=CARTESIAN_POINT('',(1.7505,1.59375,0.));
#662=CARTESIAN_POINT('',(1.7505,2.125,0.355));
#663=CARTESIAN_POINT('',(1.7505,2.125,0.1775));
#664=CARTESIAN_POINT('',(1.7505,2.125,0.355));
#665=CARTESIAN_POINT('Origin',(1.8915,2.125,0.355));
#666=CARTESIAN_POINT('',(2.125,0.250327096426344,0.355));
#667=CARTESIAN_POINT('',(2.00825,2.125,0.355));
#668=CARTESIAN_POINT('Origin',(2.125,0.2335,0.5));
#669=CARTESIAN_POINT('',(0.,0.2335,0.5));
#670=CARTESIAN_POINT('',(1.59375,0.2335,0.5));
#671=CARTESIAN_POINT('',(0.,0.2335,0.3652));
#672=CARTESIAN_POINT('',(0.,0.2335,0.25));
#673=CARTESIAN_POINT('',(2.125,0.2335,0.3652));
#674=CARTESIAN_POINT('Origin',(2.125,2.125,0.));
#675=CARTESIAN_POINT('',(2.125,2.125,0.));
#676=CARTESIAN_POINT('',(-2.42636843387368E-33,2.125,0.));
#677=CARTESIAN_POINT('',(2.125,2.125,0.));
#678=CARTESIAN_POINT('',(-2.42636843387368E-33,2.125,0.5));
#679=CARTESIAN_POINT('',(-2.42636843387368E-33,2.125,0.));
#680=CARTESIAN_POINT('',(2.125,2.125,0.5));
#681=CARTESIAN_POINT('Origin',(1.0625,1.0625,0.));
#682=CARTESIAN_POINT('',(0.,0.3745,0.));
#683=CARTESIAN_POINT('',(1.59375,0.3745,0.));
#684=CARTESIAN_POINT('',(-2.42636843387368E-33,2.125,0.));
#685=CARTESIAN_POINT('Origin',(2.125,0.3745,0.125));
#686=CARTESIAN_POINT('',(0.,0.3745,0.125));
#687=CARTESIAN_POINT('',(2.125,0.3745,0.125));
#688=CARTESIAN_POINT('',(0.,0.3745,0.0625));
#689=CARTESIAN_POINT('Origin',(2.125,0.0994041134751774,0.125));
#690=CARTESIAN_POINT('Origin',(0.,0.0994041134751774,0.125));
#691=CARTESIAN_POINT('Origin',(-2.42636843387368E-33,2.125,0.));
#692=CARTESIAN_POINT('',(-2.42636843387368E-33,2.125,0.5));
#693=CARTESIAN_POINT('Origin',(1.0625,1.0625,0.5));
#694=UNCERTAINTY_MEASURE_WITH_UNIT(LENGTH_MEASURE(0.000393700787401575),
#699,'DISTANCE_ACCURACY_VALUE',
'Maximum model space distance between geometric entities at asserted c
onnectivities');
#695=UNCERTAINTY_MEASURE_WITH_UNIT(LENGTH_MEASURE(0.000393700787401575),
#699,'DISTANCE_ACCURACY_VALUE',
'Maximum model space distance between geometric entities at asserted c
onnectivities');
#696=(
GEOMETRIC_REPRESENTATION_CONTEXT(3)
GLOBAL_UNCERTAINTY_ASSIGNED_CONTEXT((#694))
GLOBAL_UNIT_ASSIGNED_CONTEXT((#699,#703,#704))
REPRESENTATION_CONTEXT('','3D')
);
#697=(
GEOMETRIC_REPRESENTATION_CONTEXT(3)
GLOBAL_UNCERTAINTY_ASSIGNED_CONTEXT((#695))
GLOBAL_UNIT_ASSIGNED_CONTEXT((#699,#703,#704))
REPRESENTATION_CONTEXT('','3D')
);
#698=DIMENSIONAL_EXPONENTS(1.,0.,0.,0.,0.,0.,0.);
#699=(
CONVERSION_BASED_UNIT('inch',#702)
LENGTH_UNIT()
NAMED_UNIT(#698)
);
#700=(
LENGTH_UNIT()
NAMED_UNIT(*)
SI_UNIT(.MILLI.,.METRE.)
);
#701=(
LENGTH_UNIT()
NAMED_UNIT(*)
SI_UNIT($,.METRE.)
);
#702=LENGTH_MEASURE_WITH_UNIT(LENGTH_MEASURE(25.4),#700);
#703=(
NAMED_UNIT(*)
PLANE_ANGLE_UNIT()
SI_UNIT($,.RADIAN.)
);
#704=(
NAMED_UNIT(*)
SI_UNIT($,.STERADIAN.)
SOLID_ANGLE_UNIT()
);
#705=SHAPE_DEFINITION_REPRESENTATION(#706,#707);
#706=PRODUCT_DEFINITION_SHAPE('',$,#709);
#707=SHAPE_REPRESENTATION('',(#440),#696);
#708=PRODUCT_DEFINITION_CONTEXT('part definition',#713,'design');
#709=PRODUCT_DEFINITION('Trammel T1 v0','Trammel T1 v0',#710,#708);
#710=PRODUCT_DEFINITION_FORMATION('',$,#715);
#711=PRODUCT_RELATED_PRODUCT_CATEGORY('Trammel T1 v0','Trammel T1 v0',(#715));
#712=APPLICATION_PROTOCOL_DEFINITION('international standard',
'automotive_design',2009,#713);
#713=APPLICATION_CONTEXT(
'Core Data for Automotive Mechanical Design Process');
#714=PRODUCT_CONTEXT('part definition',#713,'mechanical');
#715=PRODUCT('Trammel T1 v0','Trammel T1 v0',$,(#714));
#716=PRESENTATION_STYLE_ASSIGNMENT((#717));
#717=SURFACE_STYLE_USAGE(.BOTH.,#718);
#718=SURFACE_SIDE_STYLE('',(#719));
#719=SURFACE_STYLE_FILL_AREA(#720);
#720=FILL_AREA_STYLE('Steel - Satin',(#721));
#721=FILL_AREA_STYLE_COLOUR('Steel - Satin',#722);
#722=COLOUR_RGB('Steel - Satin',0.627450980392157,0.627450980392157,0.627450980392157);
ENDSEC;
END-ISO-10303-21;
