ISO-10303-21;
HEADER;
/* Generated by software containing ST-Developer
 * from STEP Tools, Inc. (www.steptools.com) 
 */

FILE_DESCRIPTION(
/* description */ (''),
/* implementation_level */ '2;1');

FILE_NAME(
/* name */ 'T3-Block Component.step',
/* time_stamp */ '2026-09-21T00:02:25-04:00',
/* author */ (''),
/* organization */ (''),
/* preprocessor_version */ 'ST-DEVELOPER v20.2',
/* originating_system */ 'Autodesk Translation Framework v15.15.0.0',
/* authorisation */ '');

FILE_SCHEMA (('AUTOMOTIVE_DESIGN { 1 0 10303 214 3 1 1 }'));
ENDSEC;

DATA;
#10=MECHANICAL_DESIGN_GEOMETRIC_PRESENTATION_REPRESENTATION('',(#13),#460);
#11=SHAPE_REPRESENTATION_RELATIONSHIP('SRR','None',#470,#12);
#12=ADVANCED_BREP_SHAPE_REPRESENTATION('',(#14),#459);
#13=STYLED_ITEM('',(#479),#14);
#14=MANIFOLD_SOLID_BREP('Body1',#278);
#15=CYLINDRICAL_SURFACE('',#306,0.275095886524823);
#16=FACE_BOUND('',#46,.T.);
#17=CIRCLE('',#298,0.275095886524823);
#18=CIRCLE('',#300,0.275095886524823);
#19=CIRCLE('',#307,0.275095886524823);
#20=FACE_OUTER_BOUND('',#35,.T.);
#21=FACE_OUTER_BOUND('',#36,.T.);
#22=FACE_OUTER_BOUND('',#37,.T.);
#23=FACE_OUTER_BOUND('',#38,.T.);
#24=FACE_OUTER_BOUND('',#39,.T.);
#25=FACE_OUTER_BOUND('',#40,.T.);
#26=FACE_OUTER_BOUND('',#41,.T.);
#27=FACE_OUTER_BOUND('',#42,.T.);
#28=FACE_OUTER_BOUND('',#43,.T.);
#29=FACE_OUTER_BOUND('',#44,.T.);
#30=FACE_OUTER_BOUND('',#45,.T.);
#31=FACE_OUTER_BOUND('',#47,.T.);
#32=FACE_OUTER_BOUND('',#48,.T.);
#33=FACE_OUTER_BOUND('',#49,.T.);
#34=FACE_OUTER_BOUND('',#50,.T.);
#35=EDGE_LOOP('',(#177,#178,#179,#180));
#36=EDGE_LOOP('',(#181,#182,#183,#184));
#37=EDGE_LOOP('',(#185,#186,#187,#188));
#38=EDGE_LOOP('',(#189,#190,#191,#192));
#39=EDGE_LOOP('',(#193,#194,#195,#196));
#40=EDGE_LOOP('',(#197,#198,#199,#200,#201));
#41=EDGE_LOOP('',(#202,#203,#204,#205,#206));
#42=EDGE_LOOP('',(#207,#208,#209,#210));
#43=EDGE_LOOP('',(#211,#212,#213,#214));
#44=EDGE_LOOP('',(#215,#216,#217,#218,#219,#220));
#45=EDGE_LOOP('',(#221,#222,#223,#224));
#46=EDGE_LOOP('',(#225,#226,#227,#228));
#47=EDGE_LOOP('',(#229,#230,#231,#232));
#48=EDGE_LOOP('',(#233,#234,#235,#236,#237,#238));
#49=EDGE_LOOP('',(#239,#240,#241,#242,#243,#244));
#50=EDGE_LOOP('',(#245,#246,#247,#248));
#51=LINE('',#385,#84);
#52=LINE('',#387,#85);
#53=LINE('',#389,#86);
#54=LINE('',#390,#87);
#55=LINE('',#393,#88);
#56=LINE('',#395,#89);
#57=LINE('',#396,#90);
#58=LINE('',#399,#91);
#59=LINE('',#401,#92);
#60=LINE('',#402,#93);
#61=LINE('',#404,#94);
#62=LINE('',#405,#95);
#63=LINE('',#412,#96);
#64=LINE('',#414,#97);
#65=LINE('',#416,#98);
#66=LINE('',#417,#99);
#67=LINE('',#423,#100);
#68=LINE('',#425,#101);
#69=LINE('',#427,#102);
#70=LINE('',#428,#103);
#71=LINE('',#430,#104);
#72=LINE('',#431,#105);
#73=LINE('',#434,#106);
#74=LINE('',#436,#107);
#75=LINE('',#437,#108);
#76=LINE('',#440,#109);
#77=LINE('',#442,#110);
#78=LINE('',#443,#111);
#79=LINE('',#446,#112);
#80=LINE('',#447,#113);
#81=LINE('',#450,#114);
#82=LINE('',#451,#115);
#83=LINE('',#455,#116);
#84=VECTOR('',#314,0.393700787401575);
#85=VECTOR('',#315,0.393700787401575);
#86=VECTOR('',#316,0.393700787401575);
#87=VECTOR('',#317,0.393700787401575);
#88=VECTOR('',#320,0.393700787401575);
#89=VECTOR('',#321,0.393700787401575);
#90=VECTOR('',#322,0.393700787401575);
#91=VECTOR('',#325,0.393700787401575);
#92=VECTOR('',#326,0.393700787401575);
#93=VECTOR('',#327,0.393700787401575);
#94=VECTOR('',#330,0.393700787401575);
#95=VECTOR('',#331,0.393700787401575);
#96=VECTOR('',#338,0.393700787401575);
#97=VECTOR('',#339,0.393700787401575);
#98=VECTOR('',#340,0.393700787401575);
#99=VECTOR('',#341,0.393700787401575);
#100=VECTOR('',#346,0.393700787401575);
#101=VECTOR('',#347,0.393700787401575);
#102=VECTOR('',#348,0.393700787401575);
#103=VECTOR('',#349,0.393700787401575);
#104=VECTOR('',#352,0.393700787401575);
#105=VECTOR('',#353,0.393700787401575);
#106=VECTOR('',#356,0.393700787401575);
#107=VECTOR('',#357,0.393700787401575);
#108=VECTOR('',#358,0.393700787401575);
#109=VECTOR('',#361,0.393700787401575);
#110=VECTOR('',#362,0.393700787401575);
#111=VECTOR('',#363,0.393700787401575);
#112=VECTOR('',#366,0.393700787401575);
#113=VECTOR('',#367,0.393700787401575);
#114=VECTOR('',#370,0.393700787401575);
#115=VECTOR('',#371,0.393700787401575);
#116=VECTOR('',#378,0.393700787401575);
#117=VERTEX_POINT('',#383);
#118=VERTEX_POINT('',#384);
#119=VERTEX_POINT('',#386);
#120=VERTEX_POINT('',#388);
#121=VERTEX_POINT('',#392);
#122=VERTEX_POINT('',#394);
#123=VERTEX_POINT('',#398);
#124=VERTEX_POINT('',#400);
#125=VERTEX_POINT('',#408);
#126=VERTEX_POINT('',#409);
#127=VERTEX_POINT('',#411);
#128=VERTEX_POINT('',#413);
#129=VERTEX_POINT('',#415);
#130=VERTEX_POINT('',#419);
#131=VERTEX_POINT('',#420);
#132=VERTEX_POINT('',#422);
#133=VERTEX_POINT('',#424);
#134=VERTEX_POINT('',#426);
#135=VERTEX_POINT('',#433);
#136=VERTEX_POINT('',#435);
#137=VERTEX_POINT('',#439);
#138=VERTEX_POINT('',#441);
#139=VERTEX_POINT('',#445);
#140=VERTEX_POINT('',#449);
#141=EDGE_CURVE('',#117,#118,#51,.T.);
#142=EDGE_CURVE('',#117,#119,#52,.T.);
#143=EDGE_CURVE('',#120,#119,#53,.T.);
#144=EDGE_CURVE('',#118,#120,#54,.T.);
#145=EDGE_CURVE('',#118,#121,#55,.T.);
#146=EDGE_CURVE('',#122,#120,#56,.T.);
#147=EDGE_CURVE('',#121,#122,#57,.T.);
#148=EDGE_CURVE('',#121,#123,#58,.T.);
#149=EDGE_CURVE('',#124,#122,#59,.T.);
#150=EDGE_CURVE('',#123,#124,#60,.T.);
#151=EDGE_CURVE('',#123,#117,#61,.T.);
#152=EDGE_CURVE('',#119,#124,#62,.T.);
#153=EDGE_CURVE('',#125,#126,#17,.T.);
#154=EDGE_CURVE('',#127,#125,#63,.T.);
#155=EDGE_CURVE('',#128,#127,#64,.T.);
#156=EDGE_CURVE('',#129,#128,#65,.T.);
#157=EDGE_CURVE('',#126,#129,#66,.T.);
#158=EDGE_CURVE('',#130,#131,#18,.T.);
#159=EDGE_CURVE('',#132,#130,#67,.T.);
#160=EDGE_CURVE('',#133,#132,#68,.T.);
#161=EDGE_CURVE('',#134,#133,#69,.T.);
#162=EDGE_CURVE('',#134,#131,#70,.T.);
#163=EDGE_CURVE('',#131,#125,#71,.T.);
#164=EDGE_CURVE('',#127,#134,#72,.T.);
#165=EDGE_CURVE('',#135,#129,#73,.T.);
#166=EDGE_CURVE('',#136,#135,#74,.T.);
#167=EDGE_CURVE('',#126,#136,#75,.T.);
#168=EDGE_CURVE('',#133,#137,#76,.T.);
#169=EDGE_CURVE('',#137,#138,#77,.T.);
#170=EDGE_CURVE('',#128,#138,#78,.T.);
#171=EDGE_CURVE('',#132,#139,#79,.T.);
#172=EDGE_CURVE('',#137,#139,#80,.T.);
#173=EDGE_CURVE('',#130,#140,#81,.T.);
#174=EDGE_CURVE('',#139,#140,#82,.T.);
#175=EDGE_CURVE('',#140,#136,#19,.T.);
#176=EDGE_CURVE('',#138,#135,#83,.T.);
#177=ORIENTED_EDGE('',*,*,#141,.F.);
#178=ORIENTED_EDGE('',*,*,#142,.T.);
#179=ORIENTED_EDGE('',*,*,#143,.F.);
#180=ORIENTED_EDGE('',*,*,#144,.F.);
#181=ORIENTED_EDGE('',*,*,#145,.F.);
#182=ORIENTED_EDGE('',*,*,#144,.T.);
#183=ORIENTED_EDGE('',*,*,#146,.F.);
#184=ORIENTED_EDGE('',*,*,#147,.F.);
#185=ORIENTED_EDGE('',*,*,#148,.F.);
#186=ORIENTED_EDGE('',*,*,#147,.T.);
#187=ORIENTED_EDGE('',*,*,#149,.F.);
#188=ORIENTED_EDGE('',*,*,#150,.F.);
#189=ORIENTED_EDGE('',*,*,#151,.F.);
#190=ORIENTED_EDGE('',*,*,#150,.T.);
#191=ORIENTED_EDGE('',*,*,#152,.F.);
#192=ORIENTED_EDGE('',*,*,#142,.F.);
#193=ORIENTED_EDGE('',*,*,#152,.T.);
#194=ORIENTED_EDGE('',*,*,#149,.T.);
#195=ORIENTED_EDGE('',*,*,#146,.T.);
#196=ORIENTED_EDGE('',*,*,#143,.T.);
#197=ORIENTED_EDGE('',*,*,#153,.F.);
#198=ORIENTED_EDGE('',*,*,#154,.F.);
#199=ORIENTED_EDGE('',*,*,#155,.F.);
#200=ORIENTED_EDGE('',*,*,#156,.F.);
#201=ORIENTED_EDGE('',*,*,#157,.F.);
#202=ORIENTED_EDGE('',*,*,#158,.F.);
#203=ORIENTED_EDGE('',*,*,#159,.F.);
#204=ORIENTED_EDGE('',*,*,#160,.F.);
#205=ORIENTED_EDGE('',*,*,#161,.F.);
#206=ORIENTED_EDGE('',*,*,#162,.T.);
#207=ORIENTED_EDGE('',*,*,#163,.F.);
#208=ORIENTED_EDGE('',*,*,#162,.F.);
#209=ORIENTED_EDGE('',*,*,#164,.F.);
#210=ORIENTED_EDGE('',*,*,#154,.T.);
#211=ORIENTED_EDGE('',*,*,#157,.T.);
#212=ORIENTED_EDGE('',*,*,#165,.F.);
#213=ORIENTED_EDGE('',*,*,#166,.F.);
#214=ORIENTED_EDGE('',*,*,#167,.F.);
#215=ORIENTED_EDGE('',*,*,#155,.T.);
#216=ORIENTED_EDGE('',*,*,#164,.T.);
#217=ORIENTED_EDGE('',*,*,#161,.T.);
#218=ORIENTED_EDGE('',*,*,#168,.T.);
#219=ORIENTED_EDGE('',*,*,#169,.T.);
#220=ORIENTED_EDGE('',*,*,#170,.F.);
#221=ORIENTED_EDGE('',*,*,#160,.T.);
#222=ORIENTED_EDGE('',*,*,#171,.T.);
#223=ORIENTED_EDGE('',*,*,#172,.F.);
#224=ORIENTED_EDGE('',*,*,#168,.F.);
#225=ORIENTED_EDGE('',*,*,#141,.T.);
#226=ORIENTED_EDGE('',*,*,#145,.T.);
#227=ORIENTED_EDGE('',*,*,#148,.T.);
#228=ORIENTED_EDGE('',*,*,#151,.T.);
#229=ORIENTED_EDGE('',*,*,#159,.T.);
#230=ORIENTED_EDGE('',*,*,#173,.T.);
#231=ORIENTED_EDGE('',*,*,#174,.F.);
#232=ORIENTED_EDGE('',*,*,#171,.F.);
#233=ORIENTED_EDGE('',*,*,#153,.T.);
#234=ORIENTED_EDGE('',*,*,#167,.T.);
#235=ORIENTED_EDGE('',*,*,#175,.F.);
#236=ORIENTED_EDGE('',*,*,#173,.F.);
#237=ORIENTED_EDGE('',*,*,#158,.T.);
#238=ORIENTED_EDGE('',*,*,#163,.T.);
#239=ORIENTED_EDGE('',*,*,#166,.T.);
#240=ORIENTED_EDGE('',*,*,#176,.F.);
#241=ORIENTED_EDGE('',*,*,#169,.F.);
#242=ORIENTED_EDGE('',*,*,#172,.T.);
#243=ORIENTED_EDGE('',*,*,#174,.T.);
#244=ORIENTED_EDGE('',*,*,#175,.T.);
#245=ORIENTED_EDGE('',*,*,#156,.T.);
#246=ORIENTED_EDGE('',*,*,#170,.T.);
#247=ORIENTED_EDGE('',*,*,#176,.T.);
#248=ORIENTED_EDGE('',*,*,#165,.T.);
#249=PLANE('',#292);
#250=PLANE('',#293);
#251=PLANE('',#294);
#252=PLANE('',#295);
#253=PLANE('',#296);
#254=PLANE('',#297);
#255=PLANE('',#299);
#256=PLANE('',#301);
#257=PLANE('',#302);
#258=PLANE('',#303);
#259=PLANE('',#304);
#260=PLANE('',#305);
#261=PLANE('',#308);
#262=PLANE('',#309);
#263=ADVANCED_FACE('',(#20),#249,.T.);
#264=ADVANCED_FACE('',(#21),#250,.T.);
#265=ADVANCED_FACE('',(#22),#251,.T.);
#266=ADVANCED_FACE('',(#23),#252,.T.);
#267=ADVANCED_FACE('',(#24),#253,.T.);
#268=ADVANCED_FACE('',(#25),#254,.F.);
#269=ADVANCED_FACE('',(#26),#255,.F.);
#270=ADVANCED_FACE('',(#27),#256,.F.);
#271=ADVANCED_FACE('',(#28),#257,.F.);
#272=ADVANCED_FACE('',(#29),#258,.T.);
#273=ADVANCED_FACE('',(#30,#16),#259,.F.);
#274=ADVANCED_FACE('',(#31),#260,.F.);
#275=ADVANCED_FACE('',(#32),#15,.F.);
#276=ADVANCED_FACE('',(#33),#261,.T.);
#277=ADVANCED_FACE('',(#34),#262,.T.);
#278=CLOSED_SHELL('',(#263,#264,#265,#266,#267,#268,#269,#270,#271,#272,
#273,#274,#275,#276,#277));
#279=DERIVED_UNIT_ELEMENT(#281,1.);
#280=DERIVED_UNIT_ELEMENT(#464,-3.);
#281=(
MASS_UNIT()
NAMED_UNIT(*)
SI_UNIT(.KILO.,.GRAM.)
);
#282=DERIVED_UNIT((#279,#280));
#283=MEASURE_REPRESENTATION_ITEM('density measure',
POSITIVE_RATIO_MEASURE(7850.),#282);
#284=PROPERTY_DEFINITION_REPRESENTATION(#289,#286);
#285=PROPERTY_DEFINITION_REPRESENTATION(#290,#287);
#286=REPRESENTATION('material name',(#288),#459);
#287=REPRESENTATION('density',(#283),#459);
#288=DESCRIPTIVE_REPRESENTATION_ITEM('Steel','Steel');
#289=PROPERTY_DEFINITION('material property','material name',#472);
#290=PROPERTY_DEFINITION('material property','density of part',#472);
#291=AXIS2_PLACEMENT_3D('',#381,#310,#311);
#292=AXIS2_PLACEMENT_3D('',#382,#312,#313);
#293=AXIS2_PLACEMENT_3D('',#391,#318,#319);
#294=AXIS2_PLACEMENT_3D('',#397,#323,#324);
#295=AXIS2_PLACEMENT_3D('',#403,#328,#329);
#296=AXIS2_PLACEMENT_3D('',#406,#332,#333);
#297=AXIS2_PLACEMENT_3D('',#407,#334,#335);
#298=AXIS2_PLACEMENT_3D('',#410,#336,#337);
#299=AXIS2_PLACEMENT_3D('',#418,#342,#343);
#300=AXIS2_PLACEMENT_3D('',#421,#344,#345);
#301=AXIS2_PLACEMENT_3D('',#429,#350,#351);
#302=AXIS2_PLACEMENT_3D('',#432,#354,#355);
#303=AXIS2_PLACEMENT_3D('',#438,#359,#360);
#304=AXIS2_PLACEMENT_3D('',#444,#364,#365);
#305=AXIS2_PLACEMENT_3D('',#448,#368,#369);
#306=AXIS2_PLACEMENT_3D('',#452,#372,#373);
#307=AXIS2_PLACEMENT_3D('',#453,#374,#375);
#308=AXIS2_PLACEMENT_3D('',#454,#376,#377);
#309=AXIS2_PLACEMENT_3D('',#456,#379,#380);
#310=DIRECTION('axis',(0.,0.,1.));
#311=DIRECTION('refdir',(1.,0.,0.));
#312=DIRECTION('center_axis',(-1.40998606124607E-16,-1.,0.));
#313=DIRECTION('ref_axis',(-1.,1.40998606124607E-16,0.));
#314=DIRECTION('',(1.,-1.40998606124607E-16,0.));
#315=DIRECTION('',(0.,0.,-1.));
#316=DIRECTION('',(-1.,1.40998606124607E-16,0.));
#317=DIRECTION('',(0.,0.,-1.));
#318=DIRECTION('center_axis',(1.,0.,0.));
#319=DIRECTION('ref_axis',(0.,-1.,0.));
#320=DIRECTION('',(0.,1.,0.));
#321=DIRECTION('',(0.,-1.,0.));
#322=DIRECTION('',(0.,0.,-1.));
#323=DIRECTION('center_axis',(-2.81997212249214E-16,1.,0.));
#324=DIRECTION('ref_axis',(1.,2.81997212249214E-16,0.));
#325=DIRECTION('',(-1.,-2.81997212249214E-16,0.));
#326=DIRECTION('',(1.,2.81997212249214E-16,0.));
#327=DIRECTION('',(0.,0.,-1.));
#328=DIRECTION('center_axis',(-1.,0.,0.));
#329=DIRECTION('ref_axis',(0.,1.,0.));
#330=DIRECTION('',(0.,-1.,0.));
#331=DIRECTION('',(0.,1.,0.));
#332=DIRECTION('center_axis',(0.,0.,-1.));
#333=DIRECTION('ref_axis',(-1.,0.,0.));
#334=DIRECTION('center_axis',(-1.,0.,0.));
#335=DIRECTION('ref_axis',(0.,0.,-1.));
#336=DIRECTION('center_axis',(1.,0.,0.));
#337=DIRECTION('ref_axis',(0.,1.,0.));
#338=DIRECTION('',(0.,-1.,0.));
#339=DIRECTION('',(0.,0.,-1.));
#340=DIRECTION('',(0.,1.,0.));
#341=DIRECTION('',(0.,0.,1.));
#342=DIRECTION('center_axis',(-1.,0.,0.));
#343=DIRECTION('ref_axis',(0.,0.,-1.));
#344=DIRECTION('center_axis',(1.,0.,0.));
#345=DIRECTION('ref_axis',(0.,1.,0.));
#346=DIRECTION('',(0.,0.,1.));
#347=DIRECTION('',(0.,-1.,0.));
#348=DIRECTION('',(0.,0.,-1.));
#349=DIRECTION('',(0.,-1.,0.));
#350=DIRECTION('center_axis',(0.,0.,1.));
#351=DIRECTION('ref_axis',(-1.,0.,0.));
#352=DIRECTION('',(1.,0.,0.));
#353=DIRECTION('',(-1.,0.,0.));
#354=DIRECTION('center_axis',(0.,1.,0.));
#355=DIRECTION('ref_axis',(0.,0.,-1.));
#356=DIRECTION('',(1.,0.,0.));
#357=DIRECTION('',(0.,0.,1.));
#358=DIRECTION('',(-1.,0.,0.));
#359=DIRECTION('center_axis',(0.,1.,0.));
#360=DIRECTION('ref_axis',(-1.,0.,0.));
#361=DIRECTION('',(-1.,0.,0.));
#362=DIRECTION('',(0.,0.,1.));
#363=DIRECTION('',(-1.,0.,0.));
#364=DIRECTION('center_axis',(0.,0.,1.));
#365=DIRECTION('ref_axis',(1.,0.,0.));
#366=DIRECTION('',(-1.,0.,0.));
#367=DIRECTION('',(-2.28364087893994E-33,-1.,0.));
#368=DIRECTION('center_axis',(0.,1.,0.));
#369=DIRECTION('ref_axis',(0.,0.,-1.));
#370=DIRECTION('',(-1.,0.,0.));
#371=DIRECTION('',(0.,0.,1.));
#372=DIRECTION('center_axis',(-1.,0.,0.));
#373=DIRECTION('ref_axis',(0.,1.,0.));
#374=DIRECTION('center_axis',(1.,-2.28364087893994E-33,0.));
#375=DIRECTION('ref_axis',(0.,1.,0.));
#376=DIRECTION('center_axis',(-1.,2.28364087893994E-33,0.));
#377=DIRECTION('ref_axis',(-2.28364087893994E-33,-1.,0.));
#378=DIRECTION('',(-2.28364087893994E-33,-1.,0.));
#379=DIRECTION('center_axis',(0.,0.,1.));
#380=DIRECTION('ref_axis',(1.,0.,0.));
#381=CARTESIAN_POINT('',(0.,0.,0.));
#382=CARTESIAN_POINT('Origin',(1.646,0.479,0.));
#383=CARTESIAN_POINT('',(0.406,0.479,0.));
#384=CARTESIAN_POINT('',(1.646,0.479,0.));
#385=CARTESIAN_POINT('',(1.35425,0.479,0.));
#386=CARTESIAN_POINT('',(0.406,0.479,-0.24));
#387=CARTESIAN_POINT('',(0.406,0.479,0.));
#388=CARTESIAN_POINT('',(1.646,0.479,-0.24));
#389=CARTESIAN_POINT('',(1.646,0.479,-0.24));
#390=CARTESIAN_POINT('',(1.646,0.479,0.));
#391=CARTESIAN_POINT('Origin',(1.646,1.719,0.));
#392=CARTESIAN_POINT('',(1.646,1.719,0.));
#393=CARTESIAN_POINT('',(1.646,1.39075,0.));
#394=CARTESIAN_POINT('',(1.646,1.719,-0.24));
#395=CARTESIAN_POINT('',(1.646,1.719,-0.24));
#396=CARTESIAN_POINT('',(1.646,1.719,0.));
#397=CARTESIAN_POINT('Origin',(0.406,1.719,0.));
#398=CARTESIAN_POINT('',(0.406,1.719,0.));
#399=CARTESIAN_POINT('',(0.73425,1.719,0.));
#400=CARTESIAN_POINT('',(0.406,1.719,-0.24));
#401=CARTESIAN_POINT('',(0.406,1.719,-0.24));
#402=CARTESIAN_POINT('',(0.406,1.719,0.));
#403=CARTESIAN_POINT('Origin',(0.406,0.479,0.));
#404=CARTESIAN_POINT('',(0.406,0.77075,0.));
#405=CARTESIAN_POINT('',(0.406,0.479,-0.24));
#406=CARTESIAN_POINT('Origin',(1.026,1.099,-0.24));
#407=CARTESIAN_POINT('Origin',(1.8915,2.125,0.5));
#408=CARTESIAN_POINT('',(1.8915,0.250327096426344,0.355));
#409=CARTESIAN_POINT('',(1.8915,0.2335,0.3652));
#410=CARTESIAN_POINT('Origin',(1.8915,0.0994041134751773,0.125));
#411=CARTESIAN_POINT('',(1.8915,2.125,0.355));
#412=CARTESIAN_POINT('',(1.8915,2.125,0.355));
#413=CARTESIAN_POINT('',(1.8915,2.125,0.5));
#414=CARTESIAN_POINT('',(1.8915,2.125,0.25));
#415=CARTESIAN_POINT('',(1.8915,0.2335,0.5));
#416=CARTESIAN_POINT('',(1.8915,1.59375,0.5));
#417=CARTESIAN_POINT('',(1.8915,0.2335,0.5));
#418=CARTESIAN_POINT('Origin',(1.7505,2.125,0.355));
#419=CARTESIAN_POINT('',(1.7505,0.3745,0.125));
#420=CARTESIAN_POINT('',(1.7505,0.250327096426344,0.355));
#421=CARTESIAN_POINT('Origin',(1.7505,0.0994041134751773,0.125));
#422=CARTESIAN_POINT('',(1.7505,0.3745,0.));
#423=CARTESIAN_POINT('',(1.7505,0.3745,0.24));
#424=CARTESIAN_POINT('',(1.7505,2.125,0.));
#425=CARTESIAN_POINT('',(1.7505,1.59375,0.));
#426=CARTESIAN_POINT('',(1.7505,2.125,0.355));
#427=CARTESIAN_POINT('',(1.7505,2.125,0.1775));
#428=CARTESIAN_POINT('',(1.7505,2.125,0.355));
#429=CARTESIAN_POINT('Origin',(1.8915,2.125,0.355));
#430=CARTESIAN_POINT('',(2.125,0.250327096426344,0.355));
#431=CARTESIAN_POINT('',(2.00825,2.125,0.355));
#432=CARTESIAN_POINT('Origin',(2.125,0.2335,0.5));
#433=CARTESIAN_POINT('',(0.,0.2335,0.5));
#434=CARTESIAN_POINT('',(1.59375,0.2335,0.5));
#435=CARTESIAN_POINT('',(0.,0.2335,0.3652));
#436=CARTESIAN_POINT('',(0.,0.2335,0.25));
#437=CARTESIAN_POINT('',(2.125,0.2335,0.3652));
#438=CARTESIAN_POINT('Origin',(2.125,2.125,0.));
#439=CARTESIAN_POINT('',(4.85273686774737E-33,2.125,0.));
#440=CARTESIAN_POINT('',(2.125,2.125,0.));
#441=CARTESIAN_POINT('',(4.85273686774737E-33,2.125,0.5));
#442=CARTESIAN_POINT('',(4.85273686774737E-33,2.125,0.));
#443=CARTESIAN_POINT('',(2.125,2.125,0.5));
#444=CARTESIAN_POINT('Origin',(1.0625,1.0625,0.));
#445=CARTESIAN_POINT('',(0.,0.3745,0.));
#446=CARTESIAN_POINT('',(1.59375,0.3745,0.));
#447=CARTESIAN_POINT('',(4.85273686774737E-33,2.125,0.));
#448=CARTESIAN_POINT('Origin',(2.125,0.3745,0.125));
#449=CARTESIAN_POINT('',(0.,0.3745,0.125));
#450=CARTESIAN_POINT('',(2.125,0.3745,0.125));
#451=CARTESIAN_POINT('',(0.,0.3745,0.0625));
#452=CARTESIAN_POINT('Origin',(2.125,0.0994041134751773,0.125));
#453=CARTESIAN_POINT('Origin',(0.,0.0994041134751773,0.125));
#454=CARTESIAN_POINT('Origin',(4.85273686774737E-33,2.125,0.));
#455=CARTESIAN_POINT('',(4.85273686774737E-33,2.125,0.5));
#456=CARTESIAN_POINT('Origin',(1.0625,1.0625,0.5));
#457=UNCERTAINTY_MEASURE_WITH_UNIT(LENGTH_MEASURE(0.000393700787401575),
#462,'DISTANCE_ACCURACY_VALUE',
'Maximum model space distance between geometric entities at asserted c
onnectivities');
#458=UNCERTAINTY_MEASURE_WITH_UNIT(LENGTH_MEASURE(0.000393700787401575),
#462,'DISTANCE_ACCURACY_VALUE',
'Maximum model space distance between geometric entities at asserted c
onnectivities');
#459=(
GEOMETRIC_REPRESENTATION_CONTEXT(3)
GLOBAL_UNCERTAINTY_ASSIGNED_CONTEXT((#457))
GLOBAL_UNIT_ASSIGNED_CONTEXT((#462,#466,#467))
REPRESENTATION_CONTEXT('','3D')
);
#460=(
GEOMETRIC_REPRESENTATION_CONTEXT(3)
GLOBAL_UNCERTAINTY_ASSIGNED_CONTEXT((#458))
GLOBAL_UNIT_ASSIGNED_CONTEXT((#462,#466,#467))
REPRESENTATION_CONTEXT('','3D')
);
#461=DIMENSIONAL_EXPONENTS(1.,0.,0.,0.,0.,0.,0.);
#462=(
CONVERSION_BASED_UNIT('inch',#465)
LENGTH_UNIT()
NAMED_UNIT(#461)
);
#463=(
LENGTH_UNIT()
NAMED_UNIT(*)
SI_UNIT(.MILLI.,.METRE.)
);
#464=(
LENGTH_UNIT()
NAMED_UNIT(*)
SI_UNIT($,.METRE.)
);
#465=LENGTH_MEASURE_WITH_UNIT(LENGTH_MEASURE(25.4),#463);
#466=(
NAMED_UNIT(*)
PLANE_ANGLE_UNIT()
SI_UNIT($,.RADIAN.)
);
#467=(
NAMED_UNIT(*)
SI_UNIT($,.STERADIAN.)
SOLID_ANGLE_UNIT()
);
#468=SHAPE_DEFINITION_REPRESENTATION(#469,#470);
#469=PRODUCT_DEFINITION_SHAPE('',$,#472);
#470=SHAPE_REPRESENTATION('',(#291),#459);
#471=PRODUCT_DEFINITION_CONTEXT('part definition',#476,'design');
#472=PRODUCT_DEFINITION('Trammel T3 C v0','Trammel T3 C v0',#473,#471);
#473=PRODUCT_DEFINITION_FORMATION('',$,#478);
#474=PRODUCT_RELATED_PRODUCT_CATEGORY('Trammel T3 C v0',
'Trammel T3 C v0',(#478));
#475=APPLICATION_PROTOCOL_DEFINITION('international standard',
'automotive_design',2009,#476);
#476=APPLICATION_CONTEXT(
'Core Data for Automotive Mechanical Design Process');
#477=PRODUCT_CONTEXT('part definition',#476,'mechanical');
#478=PRODUCT('Trammel T3 C v0','Trammel T3 C v0',$,(#477));
#479=PRESENTATION_STYLE_ASSIGNMENT((#480));
#480=SURFACE_STYLE_USAGE(.BOTH.,#481);
#481=SURFACE_SIDE_STYLE('',(#482));
#482=SURFACE_STYLE_FILL_AREA(#483);
#483=FILL_AREA_STYLE('Steel - Satin',(#484));
#484=FILL_AREA_STYLE_COLOUR('Steel - Satin',#485);
#485=COLOUR_RGB('Steel - Satin',0.627450980392157,0.627450980392157,0.627450980392157);
ENDSEC;
END-ISO-10303-21;
